G04 #@! TF.GenerationSoftware,KiCad,Pcbnew,(5.1.5)-3*
G04 #@! TF.CreationDate,2021-05-28T12:42:32+12:00*
G04 #@! TF.ProjectId,6502-Controller,36353032-2d43-46f6-9e74-726f6c6c6572,rev?*
G04 #@! TF.SameCoordinates,Original*
G04 #@! TF.FileFunction,Legend,Bot*
G04 #@! TF.FilePolarity,Positive*
%FSLAX46Y46*%
G04 Gerber Fmt 4.6, Leading zero omitted, Abs format (unit mm)*
G04 Created by KiCad (PCBNEW (5.1.5)-3) date 2021-05-28 12:42:32*
%MOMM*%
%LPD*%
G04 APERTURE LIST*
%ADD10C,0.120000*%
%ADD11C,0.150000*%
%ADD12C,0.400000*%
G04 APERTURE END LIST*
D10*
X94996000Y-100647500D02*
X97536000Y-100647500D01*
X94996000Y-106108500D02*
X94996000Y-100647500D01*
X97536000Y-106108500D02*
X94996000Y-106108500D01*
X105219500Y-103949500D02*
X105219500Y-106108500D01*
X124714000Y-103949500D02*
X105219500Y-103949500D01*
X124714000Y-100647500D02*
X124714000Y-103949500D01*
X97536000Y-100647500D02*
X124714000Y-100647500D01*
X105156000Y-106108500D02*
X97536000Y-106108500D01*
D11*
X117799214Y-101767166D02*
X117323023Y-101767166D01*
X117894452Y-102052880D02*
X117561119Y-101052880D01*
X117227785Y-102052880D01*
X116465880Y-102052880D02*
X116465880Y-101052880D01*
X116465880Y-102005261D02*
X116561119Y-102052880D01*
X116751595Y-102052880D01*
X116846833Y-102005261D01*
X116894452Y-101957642D01*
X116942071Y-101862404D01*
X116942071Y-101576690D01*
X116894452Y-101481452D01*
X116846833Y-101433833D01*
X116751595Y-101386214D01*
X116561119Y-101386214D01*
X116465880Y-101433833D01*
X115561119Y-102052880D02*
X115561119Y-101052880D01*
X115561119Y-102005261D02*
X115656357Y-102052880D01*
X115846833Y-102052880D01*
X115942071Y-102005261D01*
X115989690Y-101957642D01*
X116037309Y-101862404D01*
X116037309Y-101576690D01*
X115989690Y-101481452D01*
X115942071Y-101433833D01*
X115846833Y-101386214D01*
X115656357Y-101386214D01*
X115561119Y-101433833D01*
X115084928Y-102052880D02*
X115084928Y-101386214D01*
X115084928Y-101576690D02*
X115037309Y-101481452D01*
X114989690Y-101433833D01*
X114894452Y-101386214D01*
X114799214Y-101386214D01*
X114084928Y-102005261D02*
X114180166Y-102052880D01*
X114370642Y-102052880D01*
X114465880Y-102005261D01*
X114513500Y-101910023D01*
X114513500Y-101529071D01*
X114465880Y-101433833D01*
X114370642Y-101386214D01*
X114180166Y-101386214D01*
X114084928Y-101433833D01*
X114037309Y-101529071D01*
X114037309Y-101624309D01*
X114513500Y-101719547D01*
X113656357Y-102005261D02*
X113561119Y-102052880D01*
X113370642Y-102052880D01*
X113275404Y-102005261D01*
X113227785Y-101910023D01*
X113227785Y-101862404D01*
X113275404Y-101767166D01*
X113370642Y-101719547D01*
X113513500Y-101719547D01*
X113608738Y-101671928D01*
X113656357Y-101576690D01*
X113656357Y-101529071D01*
X113608738Y-101433833D01*
X113513500Y-101386214D01*
X113370642Y-101386214D01*
X113275404Y-101433833D01*
X112846833Y-102005261D02*
X112751595Y-102052880D01*
X112561119Y-102052880D01*
X112465880Y-102005261D01*
X112418261Y-101910023D01*
X112418261Y-101862404D01*
X112465880Y-101767166D01*
X112561119Y-101719547D01*
X112703976Y-101719547D01*
X112799214Y-101671928D01*
X112846833Y-101576690D01*
X112846833Y-101529071D01*
X112799214Y-101433833D01*
X112703976Y-101386214D01*
X112561119Y-101386214D01*
X112465880Y-101433833D01*
X111608738Y-102005261D02*
X111703976Y-102052880D01*
X111894452Y-102052880D01*
X111989690Y-102005261D01*
X112037309Y-101910023D01*
X112037309Y-101529071D01*
X111989690Y-101433833D01*
X111894452Y-101386214D01*
X111703976Y-101386214D01*
X111608738Y-101433833D01*
X111561119Y-101529071D01*
X111561119Y-101624309D01*
X112037309Y-101719547D01*
X111180166Y-102005261D02*
X111084928Y-102052880D01*
X110894452Y-102052880D01*
X110799214Y-102005261D01*
X110751595Y-101910023D01*
X110751595Y-101862404D01*
X110799214Y-101767166D01*
X110894452Y-101719547D01*
X111037309Y-101719547D01*
X111132547Y-101671928D01*
X111180166Y-101576690D01*
X111180166Y-101529071D01*
X111132547Y-101433833D01*
X111037309Y-101386214D01*
X110894452Y-101386214D01*
X110799214Y-101433833D01*
X110275404Y-102005261D02*
X110275404Y-102052880D01*
X110323023Y-102148119D01*
X110370642Y-102195738D01*
X109132547Y-101767166D02*
X108656357Y-101767166D01*
X109227785Y-102052880D02*
X108894452Y-101052880D01*
X108561119Y-102052880D01*
X107656357Y-101957642D02*
X107703976Y-102005261D01*
X107846833Y-102052880D01*
X107942071Y-102052880D01*
X108084928Y-102005261D01*
X108180166Y-101910023D01*
X108227785Y-101814785D01*
X108275404Y-101624309D01*
X108275404Y-101481452D01*
X108227785Y-101290976D01*
X108180166Y-101195738D01*
X108084928Y-101100500D01*
X107942071Y-101052880D01*
X107846833Y-101052880D01*
X107703976Y-101100500D01*
X107656357Y-101148119D01*
X107227785Y-102052880D02*
X107227785Y-101052880D01*
X105846833Y-102052880D02*
X105942071Y-102005261D01*
X105989690Y-101957642D01*
X106037309Y-101862404D01*
X106037309Y-101576690D01*
X105989690Y-101481452D01*
X105942071Y-101433833D01*
X105846833Y-101386214D01*
X105703976Y-101386214D01*
X105608738Y-101433833D01*
X105561119Y-101481452D01*
X105513500Y-101576690D01*
X105513500Y-101862404D01*
X105561119Y-101957642D01*
X105608738Y-102005261D01*
X105703976Y-102052880D01*
X105846833Y-102052880D01*
X105084928Y-101386214D02*
X105084928Y-102052880D01*
X105084928Y-101481452D02*
X105037309Y-101433833D01*
X104942071Y-101386214D01*
X104799214Y-101386214D01*
X104703976Y-101433833D01*
X104656357Y-101529071D01*
X104656357Y-102052880D01*
X103227785Y-101052880D02*
X103132547Y-101052880D01*
X103037309Y-101100500D01*
X102989690Y-101148119D01*
X102942071Y-101243357D01*
X102894452Y-101433833D01*
X102894452Y-101671928D01*
X102942071Y-101862404D01*
X102989690Y-101957642D01*
X103037309Y-102005261D01*
X103132547Y-102052880D01*
X103227785Y-102052880D01*
X103323023Y-102005261D01*
X103370642Y-101957642D01*
X103418261Y-101862404D01*
X103465880Y-101671928D01*
X103465880Y-101433833D01*
X103418261Y-101243357D01*
X103370642Y-101148119D01*
X103323023Y-101100500D01*
X103227785Y-101052880D01*
X102561119Y-102052880D02*
X102037309Y-101386214D01*
X102561119Y-101386214D02*
X102037309Y-102052880D01*
X101084928Y-101957642D02*
X101132547Y-102005261D01*
X101275404Y-102052880D01*
X101370642Y-102052880D01*
X101513500Y-102005261D01*
X101608738Y-101910023D01*
X101656357Y-101814785D01*
X101703976Y-101624309D01*
X101703976Y-101481452D01*
X101656357Y-101290976D01*
X101608738Y-101195738D01*
X101513500Y-101100500D01*
X101370642Y-101052880D01*
X101275404Y-101052880D01*
X101132547Y-101100500D01*
X101084928Y-101148119D01*
X100465880Y-101052880D02*
X100370642Y-101052880D01*
X100275404Y-101100500D01*
X100227785Y-101148119D01*
X100180166Y-101243357D01*
X100132547Y-101433833D01*
X100132547Y-101671928D01*
X100180166Y-101862404D01*
X100227785Y-101957642D01*
X100275404Y-102005261D01*
X100370642Y-102052880D01*
X100465880Y-102052880D01*
X100561119Y-102005261D01*
X100608738Y-101957642D01*
X100656357Y-101862404D01*
X100703976Y-101671928D01*
X100703976Y-101433833D01*
X100656357Y-101243357D01*
X100608738Y-101148119D01*
X100561119Y-101100500D01*
X100465880Y-101052880D01*
X99513500Y-101052880D02*
X99418261Y-101052880D01*
X99323023Y-101100500D01*
X99275404Y-101148119D01*
X99227785Y-101243357D01*
X99180166Y-101433833D01*
X99180166Y-101671928D01*
X99227785Y-101862404D01*
X99275404Y-101957642D01*
X99323023Y-102005261D01*
X99418261Y-102052880D01*
X99513500Y-102052880D01*
X99608738Y-102005261D01*
X99656357Y-101957642D01*
X99703976Y-101862404D01*
X99751595Y-101671928D01*
X99751595Y-101433833D01*
X99703976Y-101243357D01*
X99656357Y-101148119D01*
X99608738Y-101100500D01*
X99513500Y-101052880D01*
X98561119Y-101052880D02*
X98465880Y-101052880D01*
X98370642Y-101100500D01*
X98323023Y-101148119D01*
X98275404Y-101243357D01*
X98227785Y-101433833D01*
X98227785Y-101671928D01*
X98275404Y-101862404D01*
X98323023Y-101957642D01*
X98370642Y-102005261D01*
X98465880Y-102052880D01*
X98561119Y-102052880D01*
X98656357Y-102005261D01*
X98703976Y-101957642D01*
X98751595Y-101862404D01*
X98799214Y-101671928D01*
X98799214Y-101433833D01*
X98751595Y-101243357D01*
X98703976Y-101148119D01*
X98656357Y-101100500D01*
X98561119Y-101052880D01*
X120608738Y-102702880D02*
X120513500Y-102702880D01*
X120418261Y-102750500D01*
X120370642Y-102798119D01*
X120323023Y-102893357D01*
X120275404Y-103083833D01*
X120275404Y-103321928D01*
X120323023Y-103512404D01*
X120370642Y-103607642D01*
X120418261Y-103655261D01*
X120513500Y-103702880D01*
X120608738Y-103702880D01*
X120703976Y-103655261D01*
X120751595Y-103607642D01*
X120799214Y-103512404D01*
X120846833Y-103321928D01*
X120846833Y-103083833D01*
X120799214Y-102893357D01*
X120751595Y-102798119D01*
X120703976Y-102750500D01*
X120608738Y-102702880D01*
X119942071Y-103702880D02*
X119418261Y-103036214D01*
X119942071Y-103036214D02*
X119418261Y-103702880D01*
X119084928Y-102798119D02*
X119037309Y-102750500D01*
X118942071Y-102702880D01*
X118703976Y-102702880D01*
X118608738Y-102750500D01*
X118561119Y-102798119D01*
X118513500Y-102893357D01*
X118513500Y-102988595D01*
X118561119Y-103131452D01*
X119132547Y-103702880D01*
X118513500Y-103702880D01*
X117894452Y-102702880D02*
X117799214Y-102702880D01*
X117703976Y-102750500D01*
X117656357Y-102798119D01*
X117608738Y-102893357D01*
X117561119Y-103083833D01*
X117561119Y-103321928D01*
X117608738Y-103512404D01*
X117656357Y-103607642D01*
X117703976Y-103655261D01*
X117799214Y-103702880D01*
X117894452Y-103702880D01*
X117989690Y-103655261D01*
X118037309Y-103607642D01*
X118084928Y-103512404D01*
X118132547Y-103321928D01*
X118132547Y-103083833D01*
X118084928Y-102893357D01*
X118037309Y-102798119D01*
X117989690Y-102750500D01*
X117894452Y-102702880D01*
X116942071Y-102702880D02*
X116846833Y-102702880D01*
X116751595Y-102750500D01*
X116703976Y-102798119D01*
X116656357Y-102893357D01*
X116608738Y-103083833D01*
X116608738Y-103321928D01*
X116656357Y-103512404D01*
X116703976Y-103607642D01*
X116751595Y-103655261D01*
X116846833Y-103702880D01*
X116942071Y-103702880D01*
X117037309Y-103655261D01*
X117084928Y-103607642D01*
X117132547Y-103512404D01*
X117180166Y-103321928D01*
X117180166Y-103083833D01*
X117132547Y-102893357D01*
X117084928Y-102798119D01*
X117037309Y-102750500D01*
X116942071Y-102702880D01*
X115989690Y-102702880D02*
X115894452Y-102702880D01*
X115799214Y-102750500D01*
X115751595Y-102798119D01*
X115703976Y-102893357D01*
X115656357Y-103083833D01*
X115656357Y-103321928D01*
X115703976Y-103512404D01*
X115751595Y-103607642D01*
X115799214Y-103655261D01*
X115894452Y-103702880D01*
X115989690Y-103702880D01*
X116084928Y-103655261D01*
X116132547Y-103607642D01*
X116180166Y-103512404D01*
X116227785Y-103321928D01*
X116227785Y-103083833D01*
X116180166Y-102893357D01*
X116132547Y-102798119D01*
X116084928Y-102750500D01*
X115989690Y-102702880D01*
X115180166Y-103655261D02*
X115180166Y-103702880D01*
X115227785Y-103798119D01*
X115275404Y-103845738D01*
X113799214Y-102702880D02*
X113703976Y-102702880D01*
X113608738Y-102750500D01*
X113561119Y-102798119D01*
X113513500Y-102893357D01*
X113465880Y-103083833D01*
X113465880Y-103321928D01*
X113513500Y-103512404D01*
X113561119Y-103607642D01*
X113608738Y-103655261D01*
X113703976Y-103702880D01*
X113799214Y-103702880D01*
X113894452Y-103655261D01*
X113942071Y-103607642D01*
X113989690Y-103512404D01*
X114037309Y-103321928D01*
X114037309Y-103083833D01*
X113989690Y-102893357D01*
X113942071Y-102798119D01*
X113894452Y-102750500D01*
X113799214Y-102702880D01*
X113132547Y-103702880D02*
X112608738Y-103036214D01*
X113132547Y-103036214D02*
X112608738Y-103702880D01*
X111799214Y-103036214D02*
X111799214Y-103702880D01*
X112037309Y-102655261D02*
X112275404Y-103369547D01*
X111656357Y-103369547D01*
X111084928Y-102702880D02*
X110989690Y-102702880D01*
X110894452Y-102750500D01*
X110846833Y-102798119D01*
X110799214Y-102893357D01*
X110751595Y-103083833D01*
X110751595Y-103321928D01*
X110799214Y-103512404D01*
X110846833Y-103607642D01*
X110894452Y-103655261D01*
X110989690Y-103702880D01*
X111084928Y-103702880D01*
X111180166Y-103655261D01*
X111227785Y-103607642D01*
X111275404Y-103512404D01*
X111323023Y-103321928D01*
X111323023Y-103083833D01*
X111275404Y-102893357D01*
X111227785Y-102798119D01*
X111180166Y-102750500D01*
X111084928Y-102702880D01*
X110132547Y-102702880D02*
X110037309Y-102702880D01*
X109942071Y-102750500D01*
X109894452Y-102798119D01*
X109846833Y-102893357D01*
X109799214Y-103083833D01*
X109799214Y-103321928D01*
X109846833Y-103512404D01*
X109894452Y-103607642D01*
X109942071Y-103655261D01*
X110037309Y-103702880D01*
X110132547Y-103702880D01*
X110227785Y-103655261D01*
X110275404Y-103607642D01*
X110323023Y-103512404D01*
X110370642Y-103321928D01*
X110370642Y-103083833D01*
X110323023Y-102893357D01*
X110275404Y-102798119D01*
X110227785Y-102750500D01*
X110132547Y-102702880D01*
X109180166Y-102702880D02*
X109084928Y-102702880D01*
X108989690Y-102750500D01*
X108942071Y-102798119D01*
X108894452Y-102893357D01*
X108846833Y-103083833D01*
X108846833Y-103321928D01*
X108894452Y-103512404D01*
X108942071Y-103607642D01*
X108989690Y-103655261D01*
X109084928Y-103702880D01*
X109180166Y-103702880D01*
X109275404Y-103655261D01*
X109323023Y-103607642D01*
X109370642Y-103512404D01*
X109418261Y-103321928D01*
X109418261Y-103083833D01*
X109370642Y-102893357D01*
X109323023Y-102798119D01*
X109275404Y-102750500D01*
X109180166Y-102702880D01*
X108370642Y-103655261D02*
X108370642Y-103702880D01*
X108418261Y-103798119D01*
X108465880Y-103845738D01*
X106989690Y-102702880D02*
X106894452Y-102702880D01*
X106799214Y-102750500D01*
X106751595Y-102798119D01*
X106703976Y-102893357D01*
X106656357Y-103083833D01*
X106656357Y-103321928D01*
X106703976Y-103512404D01*
X106751595Y-103607642D01*
X106799214Y-103655261D01*
X106894452Y-103702880D01*
X106989690Y-103702880D01*
X107084928Y-103655261D01*
X107132547Y-103607642D01*
X107180166Y-103512404D01*
X107227785Y-103321928D01*
X107227785Y-103083833D01*
X107180166Y-102893357D01*
X107132547Y-102798119D01*
X107084928Y-102750500D01*
X106989690Y-102702880D01*
X106323023Y-103702880D02*
X105799214Y-103036214D01*
X106323023Y-103036214D02*
X105799214Y-103702880D01*
X104989690Y-102702880D02*
X105180166Y-102702880D01*
X105275404Y-102750500D01*
X105323023Y-102798119D01*
X105418261Y-102940976D01*
X105465880Y-103131452D01*
X105465880Y-103512404D01*
X105418261Y-103607642D01*
X105370642Y-103655261D01*
X105275404Y-103702880D01*
X105084928Y-103702880D01*
X104989690Y-103655261D01*
X104942071Y-103607642D01*
X104894452Y-103512404D01*
X104894452Y-103274309D01*
X104942071Y-103179071D01*
X104989690Y-103131452D01*
X105084928Y-103083833D01*
X105275404Y-103083833D01*
X105370642Y-103131452D01*
X105418261Y-103179071D01*
X105465880Y-103274309D01*
X104275404Y-102702880D02*
X104180166Y-102702880D01*
X104084928Y-102750500D01*
X104037309Y-102798119D01*
X103989690Y-102893357D01*
X103942071Y-103083833D01*
X103942071Y-103321928D01*
X103989690Y-103512404D01*
X104037309Y-103607642D01*
X104084928Y-103655261D01*
X104180166Y-103702880D01*
X104275404Y-103702880D01*
X104370642Y-103655261D01*
X104418261Y-103607642D01*
X104465880Y-103512404D01*
X104513500Y-103321928D01*
X104513500Y-103083833D01*
X104465880Y-102893357D01*
X104418261Y-102798119D01*
X104370642Y-102750500D01*
X104275404Y-102702880D01*
X103323023Y-102702880D02*
X103227785Y-102702880D01*
X103132547Y-102750500D01*
X103084928Y-102798119D01*
X103037309Y-102893357D01*
X102989690Y-103083833D01*
X102989690Y-103321928D01*
X103037309Y-103512404D01*
X103084928Y-103607642D01*
X103132547Y-103655261D01*
X103227785Y-103702880D01*
X103323023Y-103702880D01*
X103418261Y-103655261D01*
X103465880Y-103607642D01*
X103513500Y-103512404D01*
X103561119Y-103321928D01*
X103561119Y-103083833D01*
X103513500Y-102893357D01*
X103465880Y-102798119D01*
X103418261Y-102750500D01*
X103323023Y-102702880D01*
X102370642Y-102702880D02*
X102275404Y-102702880D01*
X102180166Y-102750500D01*
X102132547Y-102798119D01*
X102084928Y-102893357D01*
X102037309Y-103083833D01*
X102037309Y-103321928D01*
X102084928Y-103512404D01*
X102132547Y-103607642D01*
X102180166Y-103655261D01*
X102275404Y-103702880D01*
X102370642Y-103702880D01*
X102465880Y-103655261D01*
X102513500Y-103607642D01*
X102561119Y-103512404D01*
X102608738Y-103321928D01*
X102608738Y-103083833D01*
X102561119Y-102893357D01*
X102513500Y-102798119D01*
X102465880Y-102750500D01*
X102370642Y-102702880D01*
X101561119Y-103655261D02*
X101561119Y-103702880D01*
X101608738Y-103798119D01*
X101656357Y-103845738D01*
X100180166Y-102702880D02*
X100084928Y-102702880D01*
X99989690Y-102750500D01*
X99942071Y-102798119D01*
X99894452Y-102893357D01*
X99846833Y-103083833D01*
X99846833Y-103321928D01*
X99894452Y-103512404D01*
X99942071Y-103607642D01*
X99989690Y-103655261D01*
X100084928Y-103702880D01*
X100180166Y-103702880D01*
X100275404Y-103655261D01*
X100323023Y-103607642D01*
X100370642Y-103512404D01*
X100418261Y-103321928D01*
X100418261Y-103083833D01*
X100370642Y-102893357D01*
X100323023Y-102798119D01*
X100275404Y-102750500D01*
X100180166Y-102702880D01*
X99513500Y-103702880D02*
X98989690Y-103036214D01*
X99513500Y-103036214D02*
X98989690Y-103702880D01*
X98037309Y-103607642D02*
X98084928Y-103655261D01*
X98227785Y-103702880D01*
X98323023Y-103702880D01*
X98465880Y-103655261D01*
X98561119Y-103560023D01*
X98608738Y-103464785D01*
X98656357Y-103274309D01*
X98656357Y-103131452D01*
X98608738Y-102940976D01*
X98561119Y-102845738D01*
X98465880Y-102750500D01*
X98323023Y-102702880D01*
X98227785Y-102702880D01*
X98084928Y-102750500D01*
X98037309Y-102798119D01*
X97418261Y-102702880D02*
X97323023Y-102702880D01*
X97227785Y-102750500D01*
X97180166Y-102798119D01*
X97132547Y-102893357D01*
X97084928Y-103083833D01*
X97084928Y-103321928D01*
X97132547Y-103512404D01*
X97180166Y-103607642D01*
X97227785Y-103655261D01*
X97323023Y-103702880D01*
X97418261Y-103702880D01*
X97513500Y-103655261D01*
X97561119Y-103607642D01*
X97608738Y-103512404D01*
X97656357Y-103321928D01*
X97656357Y-103083833D01*
X97608738Y-102893357D01*
X97561119Y-102798119D01*
X97513500Y-102750500D01*
X97418261Y-102702880D01*
X96465880Y-102702880D02*
X96370642Y-102702880D01*
X96275404Y-102750500D01*
X96227785Y-102798119D01*
X96180166Y-102893357D01*
X96132547Y-103083833D01*
X96132547Y-103321928D01*
X96180166Y-103512404D01*
X96227785Y-103607642D01*
X96275404Y-103655261D01*
X96370642Y-103702880D01*
X96465880Y-103702880D01*
X96561119Y-103655261D01*
X96608738Y-103607642D01*
X96656357Y-103512404D01*
X96703976Y-103321928D01*
X96703976Y-103083833D01*
X96656357Y-102893357D01*
X96608738Y-102798119D01*
X96561119Y-102750500D01*
X96465880Y-102702880D01*
X95513500Y-102702880D02*
X95418261Y-102702880D01*
X95323023Y-102750500D01*
X95275404Y-102798119D01*
X95227785Y-102893357D01*
X95180166Y-103083833D01*
X95180166Y-103321928D01*
X95227785Y-103512404D01*
X95275404Y-103607642D01*
X95323023Y-103655261D01*
X95418261Y-103702880D01*
X95513500Y-103702880D01*
X95608738Y-103655261D01*
X95656357Y-103607642D01*
X95703976Y-103512404D01*
X95751595Y-103321928D01*
X95751595Y-103083833D01*
X95703976Y-102893357D01*
X95656357Y-102798119D01*
X95608738Y-102750500D01*
X95513500Y-102702880D01*
D10*
X155765500Y-112522000D02*
X155765500Y-109537500D01*
X200914000Y-112522000D02*
X155765500Y-112522000D01*
X200914000Y-109537500D02*
X200914000Y-112522000D01*
X155702000Y-109537500D02*
X200914000Y-109537500D01*
D11*
X156964000Y-111759904D02*
X157011619Y-111855142D01*
X157011619Y-111998000D01*
X156964000Y-112140857D01*
X156868761Y-112236095D01*
X156773523Y-112283714D01*
X156583047Y-112331333D01*
X156440190Y-112331333D01*
X156249714Y-112283714D01*
X156154476Y-112236095D01*
X156059238Y-112140857D01*
X156011619Y-111998000D01*
X156011619Y-111902761D01*
X156059238Y-111759904D01*
X156106857Y-111712285D01*
X156440190Y-111712285D01*
X156440190Y-111902761D01*
X156011619Y-111283714D02*
X157011619Y-111283714D01*
X156011619Y-110712285D01*
X157011619Y-110712285D01*
X156011619Y-110236095D02*
X157011619Y-110236095D01*
X157011619Y-109998000D01*
X156964000Y-109855142D01*
X156868761Y-109759904D01*
X156773523Y-109712285D01*
X156583047Y-109664666D01*
X156440190Y-109664666D01*
X156249714Y-109712285D01*
X156154476Y-109759904D01*
X156059238Y-109855142D01*
X156011619Y-109998000D01*
X156011619Y-110236095D01*
X202668119Y-111378976D02*
X202668119Y-111855166D01*
X202191928Y-111902785D01*
X202239547Y-111855166D01*
X202287166Y-111759928D01*
X202287166Y-111521833D01*
X202239547Y-111426595D01*
X202191928Y-111378976D01*
X202096690Y-111331357D01*
X201858595Y-111331357D01*
X201763357Y-111378976D01*
X201715738Y-111426595D01*
X201668119Y-111521833D01*
X201668119Y-111759928D01*
X201715738Y-111855166D01*
X201763357Y-111902785D01*
X202668119Y-111045642D02*
X201668119Y-110712309D01*
X202668119Y-110378976D01*
X205398619Y-111315476D02*
X205398619Y-111791666D01*
X204922428Y-111839285D01*
X204970047Y-111791666D01*
X205017666Y-111696428D01*
X205017666Y-111458333D01*
X204970047Y-111363095D01*
X204922428Y-111315476D01*
X204827190Y-111267857D01*
X204589095Y-111267857D01*
X204493857Y-111315476D01*
X204446238Y-111363095D01*
X204398619Y-111458333D01*
X204398619Y-111696428D01*
X204446238Y-111791666D01*
X204493857Y-111839285D01*
X205398619Y-110982142D02*
X204398619Y-110648809D01*
X205398619Y-110315476D01*
X161091619Y-115538095D02*
X162091619Y-115538095D01*
X162091619Y-115157142D01*
X162044000Y-115061904D01*
X161996380Y-115014285D01*
X161901142Y-114966666D01*
X161758285Y-114966666D01*
X161663047Y-115014285D01*
X161615428Y-115061904D01*
X161567809Y-115157142D01*
X161567809Y-115538095D01*
X161615428Y-114204761D02*
X161567809Y-114061904D01*
X161520190Y-114014285D01*
X161424952Y-113966666D01*
X161282095Y-113966666D01*
X161186857Y-114014285D01*
X161139238Y-114061904D01*
X161091619Y-114157142D01*
X161091619Y-114538095D01*
X162091619Y-114538095D01*
X162091619Y-114204761D01*
X162044000Y-114109523D01*
X161996380Y-114061904D01*
X161901142Y-114014285D01*
X161805904Y-114014285D01*
X161710666Y-114061904D01*
X161663047Y-114109523D01*
X161615428Y-114204761D01*
X161615428Y-114538095D01*
X162091619Y-113633333D02*
X162091619Y-112966666D01*
X161091619Y-113395238D01*
X163758619Y-115538095D02*
X164758619Y-115538095D01*
X164758619Y-115157142D01*
X164711000Y-115061904D01*
X164663380Y-115014285D01*
X164568142Y-114966666D01*
X164425285Y-114966666D01*
X164330047Y-115014285D01*
X164282428Y-115061904D01*
X164234809Y-115157142D01*
X164234809Y-115538095D01*
X164282428Y-114204761D02*
X164234809Y-114061904D01*
X164187190Y-114014285D01*
X164091952Y-113966666D01*
X163949095Y-113966666D01*
X163853857Y-114014285D01*
X163806238Y-114061904D01*
X163758619Y-114157142D01*
X163758619Y-114538095D01*
X164758619Y-114538095D01*
X164758619Y-114204761D01*
X164711000Y-114109523D01*
X164663380Y-114061904D01*
X164568142Y-114014285D01*
X164472904Y-114014285D01*
X164377666Y-114061904D01*
X164330047Y-114109523D01*
X164282428Y-114204761D01*
X164282428Y-114538095D01*
X164758619Y-113109523D02*
X164758619Y-113300000D01*
X164711000Y-113395238D01*
X164663380Y-113442857D01*
X164520523Y-113538095D01*
X164330047Y-113585714D01*
X163949095Y-113585714D01*
X163853857Y-113538095D01*
X163806238Y-113490476D01*
X163758619Y-113395238D01*
X163758619Y-113204761D01*
X163806238Y-113109523D01*
X163853857Y-113061904D01*
X163949095Y-113014285D01*
X164187190Y-113014285D01*
X164282428Y-113061904D01*
X164330047Y-113109523D01*
X164377666Y-113204761D01*
X164377666Y-113395238D01*
X164330047Y-113490476D01*
X164282428Y-113538095D01*
X164187190Y-113585714D01*
X156106857Y-114903166D02*
X156059238Y-114950785D01*
X156011619Y-115093642D01*
X156011619Y-115188880D01*
X156059238Y-115331738D01*
X156154476Y-115426976D01*
X156249714Y-115474595D01*
X156440190Y-115522214D01*
X156583047Y-115522214D01*
X156773523Y-115474595D01*
X156868761Y-115426976D01*
X156964000Y-115331738D01*
X157011619Y-115188880D01*
X157011619Y-115093642D01*
X156964000Y-114950785D01*
X156916380Y-114903166D01*
X156535428Y-114141261D02*
X156487809Y-113998404D01*
X156440190Y-113950785D01*
X156344952Y-113903166D01*
X156202095Y-113903166D01*
X156106857Y-113950785D01*
X156059238Y-113998404D01*
X156011619Y-114093642D01*
X156011619Y-114474595D01*
X157011619Y-114474595D01*
X157011619Y-114141261D01*
X156964000Y-114046023D01*
X156916380Y-113998404D01*
X156821142Y-113950785D01*
X156725904Y-113950785D01*
X156630666Y-113998404D01*
X156583047Y-114046023D01*
X156535428Y-114141261D01*
X156535428Y-114474595D01*
X156916380Y-113522214D02*
X156964000Y-113474595D01*
X157011619Y-113379357D01*
X157011619Y-113141261D01*
X156964000Y-113046023D01*
X156916380Y-112998404D01*
X156821142Y-112950785D01*
X156725904Y-112950785D01*
X156583047Y-112998404D01*
X156011619Y-113569833D01*
X156011619Y-112950785D01*
X158710357Y-114966666D02*
X158662738Y-115014285D01*
X158615119Y-115157142D01*
X158615119Y-115252380D01*
X158662738Y-115395238D01*
X158757976Y-115490476D01*
X158853214Y-115538095D01*
X159043690Y-115585714D01*
X159186547Y-115585714D01*
X159377023Y-115538095D01*
X159472261Y-115490476D01*
X159567500Y-115395238D01*
X159615119Y-115252380D01*
X159615119Y-115157142D01*
X159567500Y-115014285D01*
X159519880Y-114966666D01*
X159138928Y-114204761D02*
X159091309Y-114061904D01*
X159043690Y-114014285D01*
X158948452Y-113966666D01*
X158805595Y-113966666D01*
X158710357Y-114014285D01*
X158662738Y-114061904D01*
X158615119Y-114157142D01*
X158615119Y-114538095D01*
X159615119Y-114538095D01*
X159615119Y-114204761D01*
X159567500Y-114109523D01*
X159519880Y-114061904D01*
X159424642Y-114014285D01*
X159329404Y-114014285D01*
X159234166Y-114061904D01*
X159186547Y-114109523D01*
X159138928Y-114204761D01*
X159138928Y-114538095D01*
X158615119Y-113014285D02*
X158615119Y-113585714D01*
X158615119Y-113300000D02*
X159615119Y-113300000D01*
X159472261Y-113395238D01*
X159377023Y-113490476D01*
X159329404Y-113585714D01*
X181411619Y-115530166D02*
X182411619Y-115530166D01*
X182411619Y-115149214D01*
X182364000Y-115053976D01*
X182316380Y-115006357D01*
X182221142Y-114958738D01*
X182078285Y-114958738D01*
X181983047Y-115006357D01*
X181935428Y-115053976D01*
X181887809Y-115149214D01*
X181887809Y-115530166D01*
X181697333Y-114577785D02*
X181697333Y-114101595D01*
X181411619Y-114673023D02*
X182411619Y-114339690D01*
X181411619Y-114006357D01*
X182411619Y-113768261D02*
X182411619Y-113101595D01*
X181411619Y-113530166D01*
X184078619Y-115530166D02*
X185078619Y-115530166D01*
X185078619Y-115149214D01*
X185031000Y-115053976D01*
X184983380Y-115006357D01*
X184888142Y-114958738D01*
X184745285Y-114958738D01*
X184650047Y-115006357D01*
X184602428Y-115053976D01*
X184554809Y-115149214D01*
X184554809Y-115530166D01*
X184364333Y-114577785D02*
X184364333Y-114101595D01*
X184078619Y-114673023D02*
X185078619Y-114339690D01*
X184078619Y-114006357D01*
X185078619Y-113244452D02*
X185078619Y-113434928D01*
X185031000Y-113530166D01*
X184983380Y-113577785D01*
X184840523Y-113673023D01*
X184650047Y-113720642D01*
X184269095Y-113720642D01*
X184173857Y-113673023D01*
X184126238Y-113625404D01*
X184078619Y-113530166D01*
X184078619Y-113339690D01*
X184126238Y-113244452D01*
X184173857Y-113196833D01*
X184269095Y-113149214D01*
X184507190Y-113149214D01*
X184602428Y-113196833D01*
X184650047Y-113244452D01*
X184697666Y-113339690D01*
X184697666Y-113530166D01*
X184650047Y-113625404D01*
X184602428Y-113673023D01*
X184507190Y-113720642D01*
X186491619Y-115530166D02*
X187491619Y-115530166D01*
X187491619Y-115149214D01*
X187444000Y-115053976D01*
X187396380Y-115006357D01*
X187301142Y-114958738D01*
X187158285Y-114958738D01*
X187063047Y-115006357D01*
X187015428Y-115053976D01*
X186967809Y-115149214D01*
X186967809Y-115530166D01*
X186777333Y-114577785D02*
X186777333Y-114101595D01*
X186491619Y-114673023D02*
X187491619Y-114339690D01*
X186491619Y-114006357D01*
X187491619Y-113196833D02*
X187491619Y-113673023D01*
X187015428Y-113720642D01*
X187063047Y-113673023D01*
X187110666Y-113577785D01*
X187110666Y-113339690D01*
X187063047Y-113244452D01*
X187015428Y-113196833D01*
X186920190Y-113149214D01*
X186682095Y-113149214D01*
X186586857Y-113196833D01*
X186539238Y-113244452D01*
X186491619Y-113339690D01*
X186491619Y-113577785D01*
X186539238Y-113673023D01*
X186586857Y-113720642D01*
X178935119Y-115538095D02*
X179935119Y-115538095D01*
X179935119Y-115157142D01*
X179887500Y-115061904D01*
X179839880Y-115014285D01*
X179744642Y-114966666D01*
X179601785Y-114966666D01*
X179506547Y-115014285D01*
X179458928Y-115061904D01*
X179411309Y-115157142D01*
X179411309Y-115538095D01*
X179458928Y-114204761D02*
X179411309Y-114061904D01*
X179363690Y-114014285D01*
X179268452Y-113966666D01*
X179125595Y-113966666D01*
X179030357Y-114014285D01*
X178982738Y-114061904D01*
X178935119Y-114157142D01*
X178935119Y-114538095D01*
X179935119Y-114538095D01*
X179935119Y-114204761D01*
X179887500Y-114109523D01*
X179839880Y-114061904D01*
X179744642Y-114014285D01*
X179649404Y-114014285D01*
X179554166Y-114061904D01*
X179506547Y-114109523D01*
X179458928Y-114204761D01*
X179458928Y-114538095D01*
X179935119Y-113347619D02*
X179935119Y-113252380D01*
X179887500Y-113157142D01*
X179839880Y-113109523D01*
X179744642Y-113061904D01*
X179554166Y-113014285D01*
X179316071Y-113014285D01*
X179125595Y-113061904D01*
X179030357Y-113109523D01*
X178982738Y-113157142D01*
X178935119Y-113252380D01*
X178935119Y-113347619D01*
X178982738Y-113442857D01*
X179030357Y-113490476D01*
X179125595Y-113538095D01*
X179316071Y-113585714D01*
X179554166Y-113585714D01*
X179744642Y-113538095D01*
X179839880Y-113490476D01*
X179887500Y-113442857D01*
X179935119Y-113347619D01*
X173791619Y-115538095D02*
X174791619Y-115538095D01*
X174791619Y-115157142D01*
X174744000Y-115061904D01*
X174696380Y-115014285D01*
X174601142Y-114966666D01*
X174458285Y-114966666D01*
X174363047Y-115014285D01*
X174315428Y-115061904D01*
X174267809Y-115157142D01*
X174267809Y-115538095D01*
X174315428Y-114204761D02*
X174267809Y-114061904D01*
X174220190Y-114014285D01*
X174124952Y-113966666D01*
X173982095Y-113966666D01*
X173886857Y-114014285D01*
X173839238Y-114061904D01*
X173791619Y-114157142D01*
X173791619Y-114538095D01*
X174791619Y-114538095D01*
X174791619Y-114204761D01*
X174744000Y-114109523D01*
X174696380Y-114061904D01*
X174601142Y-114014285D01*
X174505904Y-114014285D01*
X174410666Y-114061904D01*
X174363047Y-114109523D01*
X174315428Y-114204761D01*
X174315428Y-114538095D01*
X174696380Y-113585714D02*
X174744000Y-113538095D01*
X174791619Y-113442857D01*
X174791619Y-113204761D01*
X174744000Y-113109523D01*
X174696380Y-113061904D01*
X174601142Y-113014285D01*
X174505904Y-113014285D01*
X174363047Y-113061904D01*
X173791619Y-113633333D01*
X173791619Y-113014285D01*
X176331619Y-115474595D02*
X177331619Y-115474595D01*
X177331619Y-115093642D01*
X177284000Y-114998404D01*
X177236380Y-114950785D01*
X177141142Y-114903166D01*
X176998285Y-114903166D01*
X176903047Y-114950785D01*
X176855428Y-114998404D01*
X176807809Y-115093642D01*
X176807809Y-115474595D01*
X176855428Y-114141261D02*
X176807809Y-113998404D01*
X176760190Y-113950785D01*
X176664952Y-113903166D01*
X176522095Y-113903166D01*
X176426857Y-113950785D01*
X176379238Y-113998404D01*
X176331619Y-114093642D01*
X176331619Y-114474595D01*
X177331619Y-114474595D01*
X177331619Y-114141261D01*
X177284000Y-114046023D01*
X177236380Y-113998404D01*
X177141142Y-113950785D01*
X177045904Y-113950785D01*
X176950666Y-113998404D01*
X176903047Y-114046023D01*
X176855428Y-114141261D01*
X176855428Y-114474595D01*
X176331619Y-112950785D02*
X176331619Y-113522214D01*
X176331619Y-113236500D02*
X177331619Y-113236500D01*
X177188761Y-113331738D01*
X177093523Y-113426976D01*
X177045904Y-113522214D01*
X168838619Y-115538095D02*
X169838619Y-115538095D01*
X169838619Y-115157142D01*
X169791000Y-115061904D01*
X169743380Y-115014285D01*
X169648142Y-114966666D01*
X169505285Y-114966666D01*
X169410047Y-115014285D01*
X169362428Y-115061904D01*
X169314809Y-115157142D01*
X169314809Y-115538095D01*
X169362428Y-114204761D02*
X169314809Y-114061904D01*
X169267190Y-114014285D01*
X169171952Y-113966666D01*
X169029095Y-113966666D01*
X168933857Y-114014285D01*
X168886238Y-114061904D01*
X168838619Y-114157142D01*
X168838619Y-114538095D01*
X169838619Y-114538095D01*
X169838619Y-114204761D01*
X169791000Y-114109523D01*
X169743380Y-114061904D01*
X169648142Y-114014285D01*
X169552904Y-114014285D01*
X169457666Y-114061904D01*
X169410047Y-114109523D01*
X169362428Y-114204761D01*
X169362428Y-114538095D01*
X169505285Y-113109523D02*
X168838619Y-113109523D01*
X169886238Y-113347619D02*
X169171952Y-113585714D01*
X169171952Y-112966666D01*
X171251619Y-115538095D02*
X172251619Y-115538095D01*
X172251619Y-115157142D01*
X172204000Y-115061904D01*
X172156380Y-115014285D01*
X172061142Y-114966666D01*
X171918285Y-114966666D01*
X171823047Y-115014285D01*
X171775428Y-115061904D01*
X171727809Y-115157142D01*
X171727809Y-115538095D01*
X171775428Y-114204761D02*
X171727809Y-114061904D01*
X171680190Y-114014285D01*
X171584952Y-113966666D01*
X171442095Y-113966666D01*
X171346857Y-114014285D01*
X171299238Y-114061904D01*
X171251619Y-114157142D01*
X171251619Y-114538095D01*
X172251619Y-114538095D01*
X172251619Y-114204761D01*
X172204000Y-114109523D01*
X172156380Y-114061904D01*
X172061142Y-114014285D01*
X171965904Y-114014285D01*
X171870666Y-114061904D01*
X171823047Y-114109523D01*
X171775428Y-114204761D01*
X171775428Y-114538095D01*
X172251619Y-113633333D02*
X172251619Y-113014285D01*
X171870666Y-113347619D01*
X171870666Y-113204761D01*
X171823047Y-113109523D01*
X171775428Y-113061904D01*
X171680190Y-113014285D01*
X171442095Y-113014285D01*
X171346857Y-113061904D01*
X171299238Y-113109523D01*
X171251619Y-113204761D01*
X171251619Y-113490476D01*
X171299238Y-113585714D01*
X171346857Y-113633333D01*
X167393880Y-113061904D02*
X166393880Y-113061904D01*
X166393880Y-113442857D01*
X166441500Y-113538095D01*
X166489119Y-113585714D01*
X166584357Y-113633333D01*
X166727214Y-113633333D01*
X166822452Y-113585714D01*
X166870071Y-113538095D01*
X166917690Y-113442857D01*
X166917690Y-113061904D01*
X166870071Y-114395238D02*
X166917690Y-114538095D01*
X166965309Y-114585714D01*
X167060547Y-114633333D01*
X167203404Y-114633333D01*
X167298642Y-114585714D01*
X167346261Y-114538095D01*
X167393880Y-114442857D01*
X167393880Y-114061904D01*
X166393880Y-114061904D01*
X166393880Y-114395238D01*
X166441500Y-114490476D01*
X166489119Y-114538095D01*
X166584357Y-114585714D01*
X166679595Y-114585714D01*
X166774833Y-114538095D01*
X166822452Y-114490476D01*
X166870071Y-114395238D01*
X166870071Y-114061904D01*
X166393880Y-115538095D02*
X166393880Y-115061904D01*
X166870071Y-115014285D01*
X166822452Y-115061904D01*
X166774833Y-115157142D01*
X166774833Y-115395238D01*
X166822452Y-115490476D01*
X166870071Y-115538095D01*
X166965309Y-115585714D01*
X167203404Y-115585714D01*
X167298642Y-115538095D01*
X167346261Y-115490476D01*
X167393880Y-115395238D01*
X167393880Y-115157142D01*
X167346261Y-115061904D01*
X167298642Y-115014285D01*
X199128119Y-115593666D02*
X200128119Y-115593666D01*
X200128119Y-115212714D01*
X200080500Y-115117476D01*
X200032880Y-115069857D01*
X199937642Y-115022238D01*
X199794785Y-115022238D01*
X199699547Y-115069857D01*
X199651928Y-115117476D01*
X199604309Y-115212714D01*
X199604309Y-115593666D01*
X199413833Y-114641285D02*
X199413833Y-114165095D01*
X199128119Y-114736523D02*
X200128119Y-114403190D01*
X199128119Y-114069857D01*
X200128119Y-113546047D02*
X200128119Y-113450809D01*
X200080500Y-113355571D01*
X200032880Y-113307952D01*
X199937642Y-113260333D01*
X199747166Y-113212714D01*
X199509071Y-113212714D01*
X199318595Y-113260333D01*
X199223357Y-113307952D01*
X199175738Y-113355571D01*
X199128119Y-113450809D01*
X199128119Y-113546047D01*
X199175738Y-113641285D01*
X199223357Y-113688904D01*
X199318595Y-113736523D01*
X199509071Y-113784142D01*
X199747166Y-113784142D01*
X199937642Y-113736523D01*
X200032880Y-113688904D01*
X200080500Y-113641285D01*
X200128119Y-113546047D01*
X191635119Y-115657166D02*
X192635119Y-115657166D01*
X192635119Y-115276214D01*
X192587500Y-115180976D01*
X192539880Y-115133357D01*
X192444642Y-115085738D01*
X192301785Y-115085738D01*
X192206547Y-115133357D01*
X192158928Y-115180976D01*
X192111309Y-115276214D01*
X192111309Y-115657166D01*
X191920833Y-114704785D02*
X191920833Y-114228595D01*
X191635119Y-114800023D02*
X192635119Y-114466690D01*
X191635119Y-114133357D01*
X192635119Y-113895261D02*
X192635119Y-113276214D01*
X192254166Y-113609547D01*
X192254166Y-113466690D01*
X192206547Y-113371452D01*
X192158928Y-113323833D01*
X192063690Y-113276214D01*
X191825595Y-113276214D01*
X191730357Y-113323833D01*
X191682738Y-113371452D01*
X191635119Y-113466690D01*
X191635119Y-113752404D01*
X191682738Y-113847642D01*
X191730357Y-113895261D01*
X194111619Y-115593666D02*
X195111619Y-115593666D01*
X195111619Y-115212714D01*
X195064000Y-115117476D01*
X195016380Y-115069857D01*
X194921142Y-115022238D01*
X194778285Y-115022238D01*
X194683047Y-115069857D01*
X194635428Y-115117476D01*
X194587809Y-115212714D01*
X194587809Y-115593666D01*
X194397333Y-114641285D02*
X194397333Y-114165095D01*
X194111619Y-114736523D02*
X195111619Y-114403190D01*
X194111619Y-114069857D01*
X195016380Y-113784142D02*
X195064000Y-113736523D01*
X195111619Y-113641285D01*
X195111619Y-113403190D01*
X195064000Y-113307952D01*
X195016380Y-113260333D01*
X194921142Y-113212714D01*
X194825904Y-113212714D01*
X194683047Y-113260333D01*
X194111619Y-113831761D01*
X194111619Y-113212714D01*
X201890357Y-114958738D02*
X201842738Y-115006357D01*
X201795119Y-115149214D01*
X201795119Y-115244452D01*
X201842738Y-115387309D01*
X201937976Y-115482547D01*
X202033214Y-115530166D01*
X202223690Y-115577785D01*
X202366547Y-115577785D01*
X202557023Y-115530166D01*
X202652261Y-115482547D01*
X202747500Y-115387309D01*
X202795119Y-115244452D01*
X202795119Y-115149214D01*
X202747500Y-115006357D01*
X202699880Y-114958738D01*
X202080833Y-114577785D02*
X202080833Y-114101595D01*
X201795119Y-114673023D02*
X202795119Y-114339690D01*
X201795119Y-114006357D01*
X202699880Y-113720642D02*
X202747500Y-113673023D01*
X202795119Y-113577785D01*
X202795119Y-113339690D01*
X202747500Y-113244452D01*
X202699880Y-113196833D01*
X202604642Y-113149214D01*
X202509404Y-113149214D01*
X202366547Y-113196833D01*
X201795119Y-113768261D01*
X201795119Y-113149214D01*
X189031619Y-115530166D02*
X190031619Y-115530166D01*
X190031619Y-115149214D01*
X189984000Y-115053976D01*
X189936380Y-115006357D01*
X189841142Y-114958738D01*
X189698285Y-114958738D01*
X189603047Y-115006357D01*
X189555428Y-115053976D01*
X189507809Y-115149214D01*
X189507809Y-115530166D01*
X189317333Y-114577785D02*
X189317333Y-114101595D01*
X189031619Y-114673023D02*
X190031619Y-114339690D01*
X189031619Y-114006357D01*
X189698285Y-113244452D02*
X189031619Y-113244452D01*
X190079238Y-113482547D02*
X189364952Y-113720642D01*
X189364952Y-113101595D01*
X204684357Y-114958738D02*
X204636738Y-115006357D01*
X204589119Y-115149214D01*
X204589119Y-115244452D01*
X204636738Y-115387309D01*
X204731976Y-115482547D01*
X204827214Y-115530166D01*
X205017690Y-115577785D01*
X205160547Y-115577785D01*
X205351023Y-115530166D01*
X205446261Y-115482547D01*
X205541500Y-115387309D01*
X205589119Y-115244452D01*
X205589119Y-115149214D01*
X205541500Y-115006357D01*
X205493880Y-114958738D01*
X204874833Y-114577785D02*
X204874833Y-114101595D01*
X204589119Y-114673023D02*
X205589119Y-114339690D01*
X204589119Y-114006357D01*
X204589119Y-113149214D02*
X204589119Y-113720642D01*
X204589119Y-113434928D02*
X205589119Y-113434928D01*
X205446261Y-113530166D01*
X205351023Y-113625404D01*
X205303404Y-113720642D01*
X196651619Y-115593666D02*
X197651619Y-115593666D01*
X197651619Y-115212714D01*
X197604000Y-115117476D01*
X197556380Y-115069857D01*
X197461142Y-115022238D01*
X197318285Y-115022238D01*
X197223047Y-115069857D01*
X197175428Y-115117476D01*
X197127809Y-115212714D01*
X197127809Y-115593666D01*
X196937333Y-114641285D02*
X196937333Y-114165095D01*
X196651619Y-114736523D02*
X197651619Y-114403190D01*
X196651619Y-114069857D01*
X196651619Y-113212714D02*
X196651619Y-113784142D01*
X196651619Y-113498428D02*
X197651619Y-113498428D01*
X197508761Y-113593666D01*
X197413523Y-113688904D01*
X197365904Y-113784142D01*
X139819000Y-115244261D02*
X139866619Y-115339500D01*
X139866619Y-115482357D01*
X139819000Y-115625214D01*
X139723761Y-115720452D01*
X139628523Y-115768071D01*
X139438047Y-115815690D01*
X139295190Y-115815690D01*
X139104714Y-115768071D01*
X139009476Y-115720452D01*
X138914238Y-115625214D01*
X138866619Y-115482357D01*
X138866619Y-115387119D01*
X138914238Y-115244261D01*
X138961857Y-115196642D01*
X139295190Y-115196642D01*
X139295190Y-115387119D01*
X138866619Y-114768071D02*
X139866619Y-114768071D01*
X138866619Y-114196642D01*
X139866619Y-114196642D01*
X138866619Y-113720452D02*
X139866619Y-113720452D01*
X139866619Y-113482357D01*
X139819000Y-113339500D01*
X139723761Y-113244261D01*
X139628523Y-113196642D01*
X139438047Y-113149023D01*
X139295190Y-113149023D01*
X139104714Y-113196642D01*
X139009476Y-113244261D01*
X138914238Y-113339500D01*
X138866619Y-113482357D01*
X138866619Y-113720452D01*
X138866619Y-112053785D02*
X139533285Y-111529976D01*
X139533285Y-112053785D02*
X138866619Y-111529976D01*
X139771380Y-110434738D02*
X139819000Y-110387119D01*
X139866619Y-110291880D01*
X139866619Y-110053785D01*
X139819000Y-109958547D01*
X139771380Y-109910928D01*
X139676142Y-109863309D01*
X139580904Y-109863309D01*
X139438047Y-109910928D01*
X138866619Y-110482357D01*
X138866619Y-109863309D01*
X136263119Y-115522047D02*
X137263119Y-115522047D01*
X136263119Y-114474428D02*
X136739309Y-114807761D01*
X136263119Y-115045857D02*
X137263119Y-115045857D01*
X137263119Y-114664904D01*
X137215500Y-114569666D01*
X137167880Y-114522047D01*
X137072642Y-114474428D01*
X136929785Y-114474428D01*
X136834547Y-114522047D01*
X136786928Y-114569666D01*
X136739309Y-114664904D01*
X136739309Y-115045857D01*
X136167880Y-113379190D02*
X136215500Y-113474428D01*
X136310738Y-113569666D01*
X136453595Y-113712523D01*
X136501214Y-113807761D01*
X136501214Y-113903000D01*
X136263119Y-113855380D02*
X136310738Y-113950619D01*
X136405976Y-114045857D01*
X136596452Y-114093476D01*
X136929785Y-114093476D01*
X137120261Y-114045857D01*
X137215500Y-113950619D01*
X137263119Y-113855380D01*
X137263119Y-113664904D01*
X137215500Y-113569666D01*
X137120261Y-113474428D01*
X136929785Y-113426809D01*
X136596452Y-113426809D01*
X136405976Y-113474428D01*
X136310738Y-113569666D01*
X136263119Y-113664904D01*
X136263119Y-113855380D01*
X136310738Y-112950619D02*
X136263119Y-112950619D01*
X136167880Y-112998238D01*
X136120261Y-113045857D01*
X136263119Y-111760142D02*
X137263119Y-111760142D01*
X137263119Y-111522047D01*
X137215500Y-111379190D01*
X137120261Y-111283952D01*
X137025023Y-111236333D01*
X136834547Y-111188714D01*
X136691690Y-111188714D01*
X136501214Y-111236333D01*
X136405976Y-111283952D01*
X136310738Y-111379190D01*
X136263119Y-111522047D01*
X136263119Y-111760142D01*
X137263119Y-110569666D02*
X137263119Y-110474428D01*
X137215500Y-110379190D01*
X137167880Y-110331571D01*
X137072642Y-110283952D01*
X136882166Y-110236333D01*
X136644071Y-110236333D01*
X136453595Y-110283952D01*
X136358357Y-110331571D01*
X136310738Y-110379190D01*
X136263119Y-110474428D01*
X136263119Y-110569666D01*
X136310738Y-110664904D01*
X136358357Y-110712523D01*
X136453595Y-110760142D01*
X136644071Y-110807761D01*
X136882166Y-110807761D01*
X137072642Y-110760142D01*
X137167880Y-110712523D01*
X137215500Y-110664904D01*
X137263119Y-110569666D01*
X133659619Y-114990285D02*
X134135809Y-115323619D01*
X133659619Y-115561714D02*
X134659619Y-115561714D01*
X134659619Y-115180761D01*
X134612000Y-115085523D01*
X134564380Y-115037904D01*
X134469142Y-114990285D01*
X134326285Y-114990285D01*
X134231047Y-115037904D01*
X134183428Y-115085523D01*
X134135809Y-115180761D01*
X134135809Y-115561714D01*
X133659619Y-114561714D02*
X134659619Y-114561714D01*
X134659619Y-114323619D01*
X134612000Y-114180761D01*
X134516761Y-114085523D01*
X134421523Y-114037904D01*
X134231047Y-113990285D01*
X134088190Y-113990285D01*
X133897714Y-114037904D01*
X133802476Y-114085523D01*
X133707238Y-114180761D01*
X133659619Y-114323619D01*
X133659619Y-114561714D01*
X134135809Y-113371238D02*
X133659619Y-113371238D01*
X134659619Y-113704571D02*
X134135809Y-113371238D01*
X134659619Y-113037904D01*
X133707238Y-112656952D02*
X133659619Y-112656952D01*
X133564380Y-112704571D01*
X133516761Y-112752190D01*
X133659619Y-111466476D02*
X134659619Y-111466476D01*
X134659619Y-111228380D01*
X134612000Y-111085523D01*
X134516761Y-110990285D01*
X134421523Y-110942666D01*
X134231047Y-110895047D01*
X134088190Y-110895047D01*
X133897714Y-110942666D01*
X133802476Y-110990285D01*
X133707238Y-111085523D01*
X133659619Y-111228380D01*
X133659619Y-111466476D01*
X133659619Y-109942666D02*
X133659619Y-110514095D01*
X133659619Y-110228380D02*
X134659619Y-110228380D01*
X134516761Y-110323619D01*
X134421523Y-110418857D01*
X134373904Y-110514095D01*
X128992333Y-115466523D02*
X128992333Y-114990333D01*
X128706619Y-115561761D02*
X129706619Y-115228428D01*
X128706619Y-114895095D01*
X128706619Y-114037952D02*
X128706619Y-114609380D01*
X128706619Y-114323666D02*
X129706619Y-114323666D01*
X129563761Y-114418904D01*
X129468523Y-114514142D01*
X129420904Y-114609380D01*
X128754238Y-113561761D02*
X128706619Y-113561761D01*
X128611380Y-113609380D01*
X128563761Y-113657000D01*
X128706619Y-112371285D02*
X129706619Y-112371285D01*
X129706619Y-112133190D01*
X129659000Y-111990333D01*
X129563761Y-111895095D01*
X129468523Y-111847476D01*
X129278047Y-111799857D01*
X129135190Y-111799857D01*
X128944714Y-111847476D01*
X128849476Y-111895095D01*
X128754238Y-111990333D01*
X128706619Y-112133190D01*
X128706619Y-112371285D01*
X129706619Y-111466523D02*
X129706619Y-110847476D01*
X129325666Y-111180809D01*
X129325666Y-111037952D01*
X129278047Y-110942714D01*
X129230428Y-110895095D01*
X129135190Y-110847476D01*
X128897095Y-110847476D01*
X128801857Y-110895095D01*
X128754238Y-110942714D01*
X128706619Y-111037952D01*
X128706619Y-111323666D01*
X128754238Y-111418904D01*
X128801857Y-111466523D01*
X131722833Y-115466523D02*
X131722833Y-114990333D01*
X131437119Y-115561761D02*
X132437119Y-115228428D01*
X131437119Y-114895095D01*
X132437119Y-114371285D02*
X132437119Y-114276047D01*
X132389500Y-114180809D01*
X132341880Y-114133190D01*
X132246642Y-114085571D01*
X132056166Y-114037952D01*
X131818071Y-114037952D01*
X131627595Y-114085571D01*
X131532357Y-114133190D01*
X131484738Y-114180809D01*
X131437119Y-114276047D01*
X131437119Y-114371285D01*
X131484738Y-114466523D01*
X131532357Y-114514142D01*
X131627595Y-114561761D01*
X131818071Y-114609380D01*
X132056166Y-114609380D01*
X132246642Y-114561761D01*
X132341880Y-114514142D01*
X132389500Y-114466523D01*
X132437119Y-114371285D01*
X131484738Y-113561761D02*
X131437119Y-113561761D01*
X131341880Y-113609380D01*
X131294261Y-113657000D01*
X131437119Y-112371285D02*
X132437119Y-112371285D01*
X132437119Y-112133190D01*
X132389500Y-111990333D01*
X132294261Y-111895095D01*
X132199023Y-111847476D01*
X132008547Y-111799857D01*
X131865690Y-111799857D01*
X131675214Y-111847476D01*
X131579976Y-111895095D01*
X131484738Y-111990333D01*
X131437119Y-112133190D01*
X131437119Y-112371285D01*
X132341880Y-111418904D02*
X132389500Y-111371285D01*
X132437119Y-111276047D01*
X132437119Y-111037952D01*
X132389500Y-110942714D01*
X132341880Y-110895095D01*
X132246642Y-110847476D01*
X132151404Y-110847476D01*
X132008547Y-110895095D01*
X131437119Y-111466523D01*
X131437119Y-110847476D01*
X126388833Y-115466523D02*
X126388833Y-114990333D01*
X126103119Y-115561761D02*
X127103119Y-115228428D01*
X126103119Y-114895095D01*
X127007880Y-114609380D02*
X127055500Y-114561761D01*
X127103119Y-114466523D01*
X127103119Y-114228428D01*
X127055500Y-114133190D01*
X127007880Y-114085571D01*
X126912642Y-114037952D01*
X126817404Y-114037952D01*
X126674547Y-114085571D01*
X126103119Y-114657000D01*
X126103119Y-114037952D01*
X126150738Y-113561761D02*
X126103119Y-113561761D01*
X126007880Y-113609380D01*
X125960261Y-113657000D01*
X126103119Y-112371285D02*
X127103119Y-112371285D01*
X127103119Y-112133190D01*
X127055500Y-111990333D01*
X126960261Y-111895095D01*
X126865023Y-111847476D01*
X126674547Y-111799857D01*
X126531690Y-111799857D01*
X126341214Y-111847476D01*
X126245976Y-111895095D01*
X126150738Y-111990333D01*
X126103119Y-112133190D01*
X126103119Y-112371285D01*
X126769785Y-110942714D02*
X126103119Y-110942714D01*
X127150738Y-111180809D02*
X126436452Y-111418904D01*
X126436452Y-110799857D01*
X123785333Y-115466523D02*
X123785333Y-114990333D01*
X123499619Y-115561761D02*
X124499619Y-115228428D01*
X123499619Y-114895095D01*
X124499619Y-114657000D02*
X124499619Y-114037952D01*
X124118666Y-114371285D01*
X124118666Y-114228428D01*
X124071047Y-114133190D01*
X124023428Y-114085571D01*
X123928190Y-114037952D01*
X123690095Y-114037952D01*
X123594857Y-114085571D01*
X123547238Y-114133190D01*
X123499619Y-114228428D01*
X123499619Y-114514142D01*
X123547238Y-114609380D01*
X123594857Y-114657000D01*
X123547238Y-113561761D02*
X123499619Y-113561761D01*
X123404380Y-113609380D01*
X123356761Y-113657000D01*
X123499619Y-112371285D02*
X124499619Y-112371285D01*
X124499619Y-112133190D01*
X124452000Y-111990333D01*
X124356761Y-111895095D01*
X124261523Y-111847476D01*
X124071047Y-111799857D01*
X123928190Y-111799857D01*
X123737714Y-111847476D01*
X123642476Y-111895095D01*
X123547238Y-111990333D01*
X123499619Y-112133190D01*
X123499619Y-112371285D01*
X124499619Y-110895095D02*
X124499619Y-111371285D01*
X124023428Y-111418904D01*
X124071047Y-111371285D01*
X124118666Y-111276047D01*
X124118666Y-111037952D01*
X124071047Y-110942714D01*
X124023428Y-110895095D01*
X123928190Y-110847476D01*
X123690095Y-110847476D01*
X123594857Y-110895095D01*
X123547238Y-110942714D01*
X123499619Y-111037952D01*
X123499619Y-111276047D01*
X123547238Y-111371285D01*
X123594857Y-111418904D01*
X121181833Y-115466523D02*
X121181833Y-114990333D01*
X120896119Y-115561761D02*
X121896119Y-115228428D01*
X120896119Y-114895095D01*
X121562785Y-114133190D02*
X120896119Y-114133190D01*
X121943738Y-114371285D02*
X121229452Y-114609380D01*
X121229452Y-113990333D01*
X120943738Y-113561761D02*
X120896119Y-113561761D01*
X120800880Y-113609380D01*
X120753261Y-113657000D01*
X120896119Y-112371285D02*
X121896119Y-112371285D01*
X121896119Y-112133190D01*
X121848500Y-111990333D01*
X121753261Y-111895095D01*
X121658023Y-111847476D01*
X121467547Y-111799857D01*
X121324690Y-111799857D01*
X121134214Y-111847476D01*
X121038976Y-111895095D01*
X120943738Y-111990333D01*
X120896119Y-112133190D01*
X120896119Y-112371285D01*
X121896119Y-110942714D02*
X121896119Y-111133190D01*
X121848500Y-111228428D01*
X121800880Y-111276047D01*
X121658023Y-111371285D01*
X121467547Y-111418904D01*
X121086595Y-111418904D01*
X120991357Y-111371285D01*
X120943738Y-111323666D01*
X120896119Y-111228428D01*
X120896119Y-111037952D01*
X120943738Y-110942714D01*
X120991357Y-110895095D01*
X121086595Y-110847476D01*
X121324690Y-110847476D01*
X121419928Y-110895095D01*
X121467547Y-110942714D01*
X121515166Y-111037952D01*
X121515166Y-111228428D01*
X121467547Y-111323666D01*
X121419928Y-111371285D01*
X121324690Y-111418904D01*
X118705333Y-115466523D02*
X118705333Y-114990333D01*
X118419619Y-115561761D02*
X119419619Y-115228428D01*
X118419619Y-114895095D01*
X119419619Y-114085571D02*
X119419619Y-114561761D01*
X118943428Y-114609380D01*
X118991047Y-114561761D01*
X119038666Y-114466523D01*
X119038666Y-114228428D01*
X118991047Y-114133190D01*
X118943428Y-114085571D01*
X118848190Y-114037952D01*
X118610095Y-114037952D01*
X118514857Y-114085571D01*
X118467238Y-114133190D01*
X118419619Y-114228428D01*
X118419619Y-114466523D01*
X118467238Y-114561761D01*
X118514857Y-114609380D01*
X118467238Y-113561761D02*
X118419619Y-113561761D01*
X118324380Y-113609380D01*
X118276761Y-113657000D01*
X118419619Y-112371285D02*
X119419619Y-112371285D01*
X119419619Y-112133190D01*
X119372000Y-111990333D01*
X119276761Y-111895095D01*
X119181523Y-111847476D01*
X118991047Y-111799857D01*
X118848190Y-111799857D01*
X118657714Y-111847476D01*
X118562476Y-111895095D01*
X118467238Y-111990333D01*
X118419619Y-112133190D01*
X118419619Y-112371285D01*
X119419619Y-111466523D02*
X119419619Y-110799857D01*
X118419619Y-111228428D01*
X116355833Y-115498261D02*
X116355833Y-115022071D01*
X116070119Y-115593500D02*
X117070119Y-115260166D01*
X116070119Y-114926833D01*
X117070119Y-114164928D02*
X117070119Y-114355404D01*
X117022500Y-114450642D01*
X116974880Y-114498261D01*
X116832023Y-114593500D01*
X116641547Y-114641119D01*
X116260595Y-114641119D01*
X116165357Y-114593500D01*
X116117738Y-114545880D01*
X116070119Y-114450642D01*
X116070119Y-114260166D01*
X116117738Y-114164928D01*
X116165357Y-114117309D01*
X116260595Y-114069690D01*
X116498690Y-114069690D01*
X116593928Y-114117309D01*
X116641547Y-114164928D01*
X116689166Y-114260166D01*
X116689166Y-114450642D01*
X116641547Y-114545880D01*
X116593928Y-114593500D01*
X116498690Y-114641119D01*
X116117738Y-113593500D02*
X116070119Y-113593500D01*
X115974880Y-113641119D01*
X115927261Y-113688738D01*
X116070119Y-111831595D02*
X116546309Y-112164928D01*
X116070119Y-112403023D02*
X117070119Y-112403023D01*
X117070119Y-112022071D01*
X117022500Y-111926833D01*
X116974880Y-111879214D01*
X116879642Y-111831595D01*
X116736785Y-111831595D01*
X116641547Y-111879214D01*
X116593928Y-111926833D01*
X116546309Y-112022071D01*
X116546309Y-112403023D01*
X117437500Y-111641119D02*
X117437500Y-110498261D01*
X117070119Y-111498261D02*
X116070119Y-111260166D01*
X116784404Y-111069690D01*
X116070119Y-110879214D01*
X117070119Y-110641119D01*
X113879333Y-115506142D02*
X113879333Y-115029952D01*
X113593619Y-115601380D02*
X114593619Y-115268047D01*
X113593619Y-114934714D01*
X114593619Y-114696619D02*
X114593619Y-114029952D01*
X113593619Y-114458523D01*
X113641238Y-113601380D02*
X113593619Y-113601380D01*
X113498380Y-113649000D01*
X113450761Y-113696619D01*
X114546000Y-111887095D02*
X114593619Y-111982333D01*
X114593619Y-112125190D01*
X114546000Y-112268047D01*
X114450761Y-112363285D01*
X114355523Y-112410904D01*
X114165047Y-112458523D01*
X114022190Y-112458523D01*
X113831714Y-112410904D01*
X113736476Y-112363285D01*
X113641238Y-112268047D01*
X113593619Y-112125190D01*
X113593619Y-112029952D01*
X113641238Y-111887095D01*
X113688857Y-111839476D01*
X114022190Y-111839476D01*
X114022190Y-112029952D01*
X113593619Y-111410904D02*
X114593619Y-111410904D01*
X113593619Y-110839476D01*
X114593619Y-110839476D01*
X113593619Y-110363285D02*
X114593619Y-110363285D01*
X114593619Y-110125190D01*
X114546000Y-109982333D01*
X114450761Y-109887095D01*
X114355523Y-109839476D01*
X114165047Y-109791857D01*
X114022190Y-109791857D01*
X113831714Y-109839476D01*
X113736476Y-109887095D01*
X113641238Y-109982333D01*
X113593619Y-110125190D01*
X113593619Y-110363285D01*
X111212333Y-115537904D02*
X111212333Y-115061714D01*
X110926619Y-115633142D02*
X111926619Y-115299809D01*
X110926619Y-114966476D01*
X111498047Y-114490285D02*
X111545666Y-114585523D01*
X111593285Y-114633142D01*
X111688523Y-114680761D01*
X111736142Y-114680761D01*
X111831380Y-114633142D01*
X111879000Y-114585523D01*
X111926619Y-114490285D01*
X111926619Y-114299809D01*
X111879000Y-114204571D01*
X111831380Y-114156952D01*
X111736142Y-114109333D01*
X111688523Y-114109333D01*
X111593285Y-114156952D01*
X111545666Y-114204571D01*
X111498047Y-114299809D01*
X111498047Y-114490285D01*
X111450428Y-114585523D01*
X111402809Y-114633142D01*
X111307571Y-114680761D01*
X111117095Y-114680761D01*
X111021857Y-114633142D01*
X110974238Y-114585523D01*
X110926619Y-114490285D01*
X110926619Y-114299809D01*
X110974238Y-114204571D01*
X111021857Y-114156952D01*
X111117095Y-114109333D01*
X111307571Y-114109333D01*
X111402809Y-114156952D01*
X111450428Y-114204571D01*
X111498047Y-114299809D01*
X110974238Y-113633142D02*
X110926619Y-113633142D01*
X110831380Y-113680761D01*
X110783761Y-113728380D01*
X110926619Y-111871238D02*
X111402809Y-112204571D01*
X110926619Y-112442666D02*
X111926619Y-112442666D01*
X111926619Y-112061714D01*
X111879000Y-111966476D01*
X111831380Y-111918857D01*
X111736142Y-111871238D01*
X111593285Y-111871238D01*
X111498047Y-111918857D01*
X111450428Y-111966476D01*
X111402809Y-112061714D01*
X111402809Y-112442666D01*
X111450428Y-111442666D02*
X111450428Y-111109333D01*
X110926619Y-110966476D02*
X110926619Y-111442666D01*
X111926619Y-111442666D01*
X111926619Y-110966476D01*
X110974238Y-110585523D02*
X110926619Y-110442666D01*
X110926619Y-110204571D01*
X110974238Y-110109333D01*
X111021857Y-110061714D01*
X111117095Y-110014095D01*
X111212333Y-110014095D01*
X111307571Y-110061714D01*
X111355190Y-110109333D01*
X111402809Y-110204571D01*
X111450428Y-110395047D01*
X111498047Y-110490285D01*
X111545666Y-110537904D01*
X111640904Y-110585523D01*
X111736142Y-110585523D01*
X111831380Y-110537904D01*
X111879000Y-110490285D01*
X111926619Y-110395047D01*
X111926619Y-110156952D01*
X111879000Y-110014095D01*
X108672333Y-115506142D02*
X108672333Y-115029952D01*
X108386619Y-115601380D02*
X109386619Y-115268047D01*
X108386619Y-114934714D01*
X108386619Y-114553761D02*
X108386619Y-114363285D01*
X108434238Y-114268047D01*
X108481857Y-114220428D01*
X108624714Y-114125190D01*
X108815190Y-114077571D01*
X109196142Y-114077571D01*
X109291380Y-114125190D01*
X109339000Y-114172809D01*
X109386619Y-114268047D01*
X109386619Y-114458523D01*
X109339000Y-114553761D01*
X109291380Y-114601380D01*
X109196142Y-114649000D01*
X108958047Y-114649000D01*
X108862809Y-114601380D01*
X108815190Y-114553761D01*
X108767571Y-114458523D01*
X108767571Y-114268047D01*
X108815190Y-114172809D01*
X108862809Y-114125190D01*
X108958047Y-114077571D01*
X108434238Y-113601380D02*
X108386619Y-113601380D01*
X108291380Y-113649000D01*
X108243761Y-113696619D01*
X109339000Y-111887095D02*
X109386619Y-111982333D01*
X109386619Y-112125190D01*
X109339000Y-112268047D01*
X109243761Y-112363285D01*
X109148523Y-112410904D01*
X108958047Y-112458523D01*
X108815190Y-112458523D01*
X108624714Y-112410904D01*
X108529476Y-112363285D01*
X108434238Y-112268047D01*
X108386619Y-112125190D01*
X108386619Y-112029952D01*
X108434238Y-111887095D01*
X108481857Y-111839476D01*
X108815190Y-111839476D01*
X108815190Y-112029952D01*
X108386619Y-111410904D02*
X109386619Y-111410904D01*
X108386619Y-110839476D01*
X109386619Y-110839476D01*
X108386619Y-110363285D02*
X109386619Y-110363285D01*
X109386619Y-110125190D01*
X109339000Y-109982333D01*
X109243761Y-109887095D01*
X109148523Y-109839476D01*
X108958047Y-109791857D01*
X108815190Y-109791857D01*
X108624714Y-109839476D01*
X108529476Y-109887095D01*
X108434238Y-109982333D01*
X108386619Y-110125190D01*
X108386619Y-110363285D01*
X106132333Y-115561714D02*
X106132333Y-115085523D01*
X105846619Y-115656952D02*
X106846619Y-115323619D01*
X105846619Y-114990285D01*
X105846619Y-114133142D02*
X105846619Y-114704571D01*
X105846619Y-114418857D02*
X106846619Y-114418857D01*
X106703761Y-114514095D01*
X106608523Y-114609333D01*
X106560904Y-114704571D01*
X106846619Y-113514095D02*
X106846619Y-113418857D01*
X106799000Y-113323619D01*
X106751380Y-113276000D01*
X106656142Y-113228380D01*
X106465666Y-113180761D01*
X106227571Y-113180761D01*
X106037095Y-113228380D01*
X105941857Y-113276000D01*
X105894238Y-113323619D01*
X105846619Y-113418857D01*
X105846619Y-113514095D01*
X105894238Y-113609333D01*
X105941857Y-113656952D01*
X106037095Y-113704571D01*
X106227571Y-113752190D01*
X106465666Y-113752190D01*
X106656142Y-113704571D01*
X106751380Y-113656952D01*
X106799000Y-113609333D01*
X106846619Y-113514095D01*
X105894238Y-112704571D02*
X105846619Y-112704571D01*
X105751380Y-112752190D01*
X105703761Y-112799809D01*
X105941857Y-110942666D02*
X105894238Y-110990285D01*
X105846619Y-111133142D01*
X105846619Y-111228380D01*
X105894238Y-111371238D01*
X105989476Y-111466476D01*
X106084714Y-111514095D01*
X106275190Y-111561714D01*
X106418047Y-111561714D01*
X106608523Y-111514095D01*
X106703761Y-111466476D01*
X106799000Y-111371238D01*
X106846619Y-111228380D01*
X106846619Y-111133142D01*
X106799000Y-110990285D01*
X106751380Y-110942666D01*
X105846619Y-109990285D02*
X105846619Y-110561714D01*
X105846619Y-110276000D02*
X106846619Y-110276000D01*
X106703761Y-110371238D01*
X106608523Y-110466476D01*
X106560904Y-110561714D01*
X103592333Y-115593523D02*
X103592333Y-115117333D01*
X103306619Y-115688761D02*
X104306619Y-115355428D01*
X103306619Y-115022095D01*
X103306619Y-114164952D02*
X103306619Y-114736380D01*
X103306619Y-114450666D02*
X104306619Y-114450666D01*
X104163761Y-114545904D01*
X104068523Y-114641142D01*
X104020904Y-114736380D01*
X103306619Y-113212571D02*
X103306619Y-113784000D01*
X103306619Y-113498285D02*
X104306619Y-113498285D01*
X104163761Y-113593523D01*
X104068523Y-113688761D01*
X104020904Y-113784000D01*
X103354238Y-112736380D02*
X103306619Y-112736380D01*
X103211380Y-112784000D01*
X103163761Y-112831619D01*
X103401857Y-110974476D02*
X103354238Y-111022095D01*
X103306619Y-111164952D01*
X103306619Y-111260190D01*
X103354238Y-111403047D01*
X103449476Y-111498285D01*
X103544714Y-111545904D01*
X103735190Y-111593523D01*
X103878047Y-111593523D01*
X104068523Y-111545904D01*
X104163761Y-111498285D01*
X104259000Y-111403047D01*
X104306619Y-111260190D01*
X104306619Y-111164952D01*
X104259000Y-111022095D01*
X104211380Y-110974476D01*
X101306333Y-115569714D02*
X101306333Y-115093523D01*
X101020619Y-115664952D02*
X102020619Y-115331619D01*
X101020619Y-114998285D01*
X101020619Y-114141142D02*
X101020619Y-114712571D01*
X101020619Y-114426857D02*
X102020619Y-114426857D01*
X101877761Y-114522095D01*
X101782523Y-114617333D01*
X101734904Y-114712571D01*
X101925380Y-113760190D02*
X101973000Y-113712571D01*
X102020619Y-113617333D01*
X102020619Y-113379238D01*
X101973000Y-113284000D01*
X101925380Y-113236380D01*
X101830142Y-113188761D01*
X101734904Y-113188761D01*
X101592047Y-113236380D01*
X101020619Y-113807809D01*
X101020619Y-113188761D01*
X101068238Y-112712571D02*
X101020619Y-112712571D01*
X100925380Y-112760190D01*
X100877761Y-112807809D01*
X102020619Y-111093523D02*
X102020619Y-111284000D01*
X101973000Y-111379238D01*
X101925380Y-111426857D01*
X101782523Y-111522095D01*
X101592047Y-111569714D01*
X101211095Y-111569714D01*
X101115857Y-111522095D01*
X101068238Y-111474476D01*
X101020619Y-111379238D01*
X101020619Y-111188761D01*
X101068238Y-111093523D01*
X101115857Y-111045904D01*
X101211095Y-110998285D01*
X101449190Y-110998285D01*
X101544428Y-111045904D01*
X101592047Y-111093523D01*
X101639666Y-111188761D01*
X101639666Y-111379238D01*
X101592047Y-111474476D01*
X101544428Y-111522095D01*
X101449190Y-111569714D01*
X98639333Y-115569714D02*
X98639333Y-115093523D01*
X98353619Y-115664952D02*
X99353619Y-115331619D01*
X98353619Y-114998285D01*
X98353619Y-114141142D02*
X98353619Y-114712571D01*
X98353619Y-114426857D02*
X99353619Y-114426857D01*
X99210761Y-114522095D01*
X99115523Y-114617333D01*
X99067904Y-114712571D01*
X99353619Y-113807809D02*
X99353619Y-113188761D01*
X98972666Y-113522095D01*
X98972666Y-113379238D01*
X98925047Y-113284000D01*
X98877428Y-113236380D01*
X98782190Y-113188761D01*
X98544095Y-113188761D01*
X98448857Y-113236380D01*
X98401238Y-113284000D01*
X98353619Y-113379238D01*
X98353619Y-113664952D01*
X98401238Y-113760190D01*
X98448857Y-113807809D01*
X98401238Y-112712571D02*
X98353619Y-112712571D01*
X98258380Y-112760190D01*
X98210761Y-112807809D01*
X99020285Y-111093523D02*
X98353619Y-111093523D01*
X99401238Y-111331619D02*
X98686952Y-111569714D01*
X98686952Y-110950666D01*
X95972333Y-115442714D02*
X95972333Y-114966523D01*
X95686619Y-115537952D02*
X96686619Y-115204619D01*
X95686619Y-114871285D01*
X95686619Y-114014142D02*
X95686619Y-114585571D01*
X95686619Y-114299857D02*
X96686619Y-114299857D01*
X96543761Y-114395095D01*
X96448523Y-114490333D01*
X96400904Y-114585571D01*
X96353285Y-113157000D02*
X95686619Y-113157000D01*
X96734238Y-113395095D02*
X96019952Y-113633190D01*
X96019952Y-113014142D01*
X95734238Y-112585571D02*
X95686619Y-112585571D01*
X95591380Y-112633190D01*
X95543761Y-112680809D01*
X96591380Y-111442714D02*
X96639000Y-111395095D01*
X96686619Y-111299857D01*
X96686619Y-111061761D01*
X96639000Y-110966523D01*
X96591380Y-110918904D01*
X96496142Y-110871285D01*
X96400904Y-110871285D01*
X96258047Y-110918904D01*
X95686619Y-111490333D01*
X95686619Y-110871285D01*
X93559333Y-115474333D02*
X93559333Y-114998142D01*
X93273619Y-115569571D02*
X94273619Y-115236238D01*
X93273619Y-114902904D01*
X93273619Y-114045761D02*
X93273619Y-114617190D01*
X93273619Y-114331476D02*
X94273619Y-114331476D01*
X94130761Y-114426714D01*
X94035523Y-114521952D01*
X93987904Y-114617190D01*
X94273619Y-113141000D02*
X94273619Y-113617190D01*
X93797428Y-113664809D01*
X93845047Y-113617190D01*
X93892666Y-113521952D01*
X93892666Y-113283857D01*
X93845047Y-113188619D01*
X93797428Y-113141000D01*
X93702190Y-113093380D01*
X93464095Y-113093380D01*
X93368857Y-113141000D01*
X93321238Y-113188619D01*
X93273619Y-113283857D01*
X93273619Y-113521952D01*
X93321238Y-113617190D01*
X93368857Y-113664809D01*
X93321238Y-112617190D02*
X93273619Y-112617190D01*
X93178380Y-112664809D01*
X93130761Y-112712428D01*
X94226000Y-110902904D02*
X94273619Y-110998142D01*
X94273619Y-111141000D01*
X94226000Y-111283857D01*
X94130761Y-111379095D01*
X94035523Y-111426714D01*
X93845047Y-111474333D01*
X93702190Y-111474333D01*
X93511714Y-111426714D01*
X93416476Y-111379095D01*
X93321238Y-111283857D01*
X93273619Y-111141000D01*
X93273619Y-111045761D01*
X93321238Y-110902904D01*
X93368857Y-110855285D01*
X93702190Y-110855285D01*
X93702190Y-111045761D01*
X93273619Y-110426714D02*
X94273619Y-110426714D01*
X93273619Y-109855285D01*
X94273619Y-109855285D01*
X93273619Y-109379095D02*
X94273619Y-109379095D01*
X94273619Y-109141000D01*
X94226000Y-108998142D01*
X94130761Y-108902904D01*
X94035523Y-108855285D01*
X93845047Y-108807666D01*
X93702190Y-108807666D01*
X93511714Y-108855285D01*
X93416476Y-108902904D01*
X93321238Y-108998142D01*
X93273619Y-109141000D01*
X93273619Y-109379095D01*
X90765380Y-111442714D02*
X90765380Y-110966523D01*
X91241571Y-110918904D01*
X91193952Y-110966523D01*
X91146333Y-111061761D01*
X91146333Y-111299857D01*
X91193952Y-111395095D01*
X91241571Y-111442714D01*
X91336809Y-111490333D01*
X91574904Y-111490333D01*
X91670142Y-111442714D01*
X91717761Y-111395095D01*
X91765380Y-111299857D01*
X91765380Y-111061761D01*
X91717761Y-110966523D01*
X91670142Y-110918904D01*
X90765380Y-111776047D02*
X91765380Y-112109380D01*
X90765380Y-112442714D01*
X91717761Y-112823666D02*
X91765380Y-112823666D01*
X91860619Y-112776047D01*
X91908238Y-112728428D01*
X90765380Y-114490333D02*
X90765380Y-114014142D01*
X91241571Y-113966523D01*
X91193952Y-114014142D01*
X91146333Y-114109380D01*
X91146333Y-114347476D01*
X91193952Y-114442714D01*
X91241571Y-114490333D01*
X91336809Y-114537952D01*
X91574904Y-114537952D01*
X91670142Y-114490333D01*
X91717761Y-114442714D01*
X91765380Y-114347476D01*
X91765380Y-114109380D01*
X91717761Y-114014142D01*
X91670142Y-113966523D01*
X90765380Y-114823666D02*
X91765380Y-115157000D01*
X90765380Y-115490333D01*
D12*
X187418666Y-50163761D02*
X187799619Y-50163761D01*
X187990095Y-50259000D01*
X188085333Y-50354238D01*
X188275809Y-50639952D01*
X188371047Y-51020904D01*
X188371047Y-51782809D01*
X188275809Y-51973285D01*
X188180571Y-52068523D01*
X187990095Y-52163761D01*
X187609142Y-52163761D01*
X187418666Y-52068523D01*
X187323428Y-51973285D01*
X187228190Y-51782809D01*
X187228190Y-51306619D01*
X187323428Y-51116142D01*
X187418666Y-51020904D01*
X187609142Y-50925666D01*
X187990095Y-50925666D01*
X188180571Y-51020904D01*
X188275809Y-51116142D01*
X188371047Y-51306619D01*
X185418666Y-50163761D02*
X186371047Y-50163761D01*
X186466285Y-51116142D01*
X186371047Y-51020904D01*
X186180571Y-50925666D01*
X185704380Y-50925666D01*
X185513904Y-51020904D01*
X185418666Y-51116142D01*
X185323428Y-51306619D01*
X185323428Y-51782809D01*
X185418666Y-51973285D01*
X185513904Y-52068523D01*
X185704380Y-52163761D01*
X186180571Y-52163761D01*
X186371047Y-52068523D01*
X186466285Y-51973285D01*
X184085333Y-50163761D02*
X183894857Y-50163761D01*
X183704380Y-50259000D01*
X183609142Y-50354238D01*
X183513904Y-50544714D01*
X183418666Y-50925666D01*
X183418666Y-51401857D01*
X183513904Y-51782809D01*
X183609142Y-51973285D01*
X183704380Y-52068523D01*
X183894857Y-52163761D01*
X184085333Y-52163761D01*
X184275809Y-52068523D01*
X184371047Y-51973285D01*
X184466285Y-51782809D01*
X184561523Y-51401857D01*
X184561523Y-50925666D01*
X184466285Y-50544714D01*
X184371047Y-50354238D01*
X184275809Y-50259000D01*
X184085333Y-50163761D01*
X182656761Y-50354238D02*
X182561523Y-50259000D01*
X182371047Y-50163761D01*
X181894857Y-50163761D01*
X181704380Y-50259000D01*
X181609142Y-50354238D01*
X181513904Y-50544714D01*
X181513904Y-50735190D01*
X181609142Y-51020904D01*
X182752000Y-52163761D01*
X181513904Y-52163761D01*
X179132952Y-51401857D02*
X177609142Y-51401857D01*
X175418666Y-50163761D02*
X174752000Y-52163761D01*
X174085333Y-50163761D01*
X173418666Y-52163761D02*
X173418666Y-50163761D01*
X172561523Y-51592333D02*
X171609142Y-51592333D01*
X172752000Y-52163761D02*
X172085333Y-50163761D01*
X171418666Y-52163761D01*
X170656761Y-52068523D02*
X170656761Y-52163761D01*
X170752000Y-52354238D01*
X170847238Y-52449476D01*
X168561523Y-50163761D02*
X167894857Y-52163761D01*
X167228190Y-50163761D01*
X165513904Y-52163761D02*
X166656761Y-52163761D01*
X166085333Y-52163761D02*
X166085333Y-50163761D01*
X166275809Y-50449476D01*
X166466285Y-50639952D01*
X166656761Y-50735190D01*
X164656761Y-51973285D02*
X164561523Y-52068523D01*
X164656761Y-52163761D01*
X164752000Y-52068523D01*
X164656761Y-51973285D01*
X164656761Y-52163761D01*
X162656761Y-52163761D02*
X163799619Y-52163761D01*
X163228190Y-52163761D02*
X163228190Y-50163761D01*
X163418666Y-50449476D01*
X163609142Y-50639952D01*
X163799619Y-50735190D01*
X186418666Y-55563761D02*
X186418666Y-53563761D01*
X186418666Y-54325666D02*
X186228190Y-54230428D01*
X185847238Y-54230428D01*
X185656761Y-54325666D01*
X185561523Y-54420904D01*
X185466285Y-54611380D01*
X185466285Y-55182809D01*
X185561523Y-55373285D01*
X185656761Y-55468523D01*
X185847238Y-55563761D01*
X186228190Y-55563761D01*
X186418666Y-55468523D01*
X184323428Y-55563761D02*
X184513904Y-55468523D01*
X184609142Y-55373285D01*
X184704380Y-55182809D01*
X184704380Y-54611380D01*
X184609142Y-54420904D01*
X184513904Y-54325666D01*
X184323428Y-54230428D01*
X184037714Y-54230428D01*
X183847238Y-54325666D01*
X183752000Y-54420904D01*
X183656761Y-54611380D01*
X183656761Y-55182809D01*
X183752000Y-55373285D01*
X183847238Y-55468523D01*
X184037714Y-55563761D01*
X184323428Y-55563761D01*
X181942476Y-55563761D02*
X181942476Y-54516142D01*
X182037714Y-54325666D01*
X182228190Y-54230428D01*
X182609142Y-54230428D01*
X182799619Y-54325666D01*
X181942476Y-55468523D02*
X182132952Y-55563761D01*
X182609142Y-55563761D01*
X182799619Y-55468523D01*
X182894857Y-55278047D01*
X182894857Y-55087571D01*
X182799619Y-54897095D01*
X182609142Y-54801857D01*
X182132952Y-54801857D01*
X181942476Y-54706619D01*
X180990095Y-55563761D02*
X180990095Y-54230428D01*
X180990095Y-54611380D02*
X180894857Y-54420904D01*
X180799619Y-54325666D01*
X180609142Y-54230428D01*
X180418666Y-54230428D01*
X178894857Y-55563761D02*
X178894857Y-53563761D01*
X178894857Y-55468523D02*
X179085333Y-55563761D01*
X179466285Y-55563761D01*
X179656761Y-55468523D01*
X179752000Y-55373285D01*
X179847238Y-55182809D01*
X179847238Y-54611380D01*
X179752000Y-54420904D01*
X179656761Y-54325666D01*
X179466285Y-54230428D01*
X179085333Y-54230428D01*
X178894857Y-54325666D01*
X176704380Y-53563761D02*
X176037714Y-55563761D01*
X175371047Y-53563761D01*
X173942476Y-55468523D02*
X174132952Y-55563761D01*
X174513904Y-55563761D01*
X174704380Y-55468523D01*
X174799619Y-55278047D01*
X174799619Y-54516142D01*
X174704380Y-54325666D01*
X174513904Y-54230428D01*
X174132952Y-54230428D01*
X173942476Y-54325666D01*
X173847238Y-54516142D01*
X173847238Y-54706619D01*
X174799619Y-54897095D01*
X172990095Y-55563761D02*
X172990095Y-54230428D01*
X172990095Y-54611380D02*
X172894857Y-54420904D01*
X172799619Y-54325666D01*
X172609142Y-54230428D01*
X172418666Y-54230428D01*
X171847238Y-55468523D02*
X171656761Y-55563761D01*
X171275809Y-55563761D01*
X171085333Y-55468523D01*
X170990095Y-55278047D01*
X170990095Y-55182809D01*
X171085333Y-54992333D01*
X171275809Y-54897095D01*
X171561523Y-54897095D01*
X171752000Y-54801857D01*
X171847238Y-54611380D01*
X171847238Y-54516142D01*
X171752000Y-54325666D01*
X171561523Y-54230428D01*
X171275809Y-54230428D01*
X171085333Y-54325666D01*
X170132952Y-55563761D02*
X170132952Y-54230428D01*
X170132952Y-53563761D02*
X170228190Y-53659000D01*
X170132952Y-53754238D01*
X170037714Y-53659000D01*
X170132952Y-53563761D01*
X170132952Y-53754238D01*
X168894857Y-55563761D02*
X169085333Y-55468523D01*
X169180571Y-55373285D01*
X169275809Y-55182809D01*
X169275809Y-54611380D01*
X169180571Y-54420904D01*
X169085333Y-54325666D01*
X168894857Y-54230428D01*
X168609142Y-54230428D01*
X168418666Y-54325666D01*
X168323428Y-54420904D01*
X168228190Y-54611380D01*
X168228190Y-55182809D01*
X168323428Y-55373285D01*
X168418666Y-55468523D01*
X168609142Y-55563761D01*
X168894857Y-55563761D01*
X167371047Y-54230428D02*
X167371047Y-55563761D01*
X167371047Y-54420904D02*
X167275809Y-54325666D01*
X167085333Y-54230428D01*
X166799619Y-54230428D01*
X166609142Y-54325666D01*
X166513904Y-54516142D01*
X166513904Y-55563761D01*
X162990095Y-55563761D02*
X164132952Y-55563761D01*
X163561523Y-55563761D02*
X163561523Y-53563761D01*
X163752000Y-53849476D01*
X163942476Y-54039952D01*
X164132952Y-54135190D01*
M02*
