M48
INCH
T1C0.0157
T2C0.0315
T3C0.0394
T4C0.0400
T5C0.1181
%
G90
G05
T1
X3.4547Y-2.7819
X3.6043Y-2.7245
X3.6154Y-4.0059
X3.6414Y-2.4825
X3.6637Y-3.2561
X3.7146Y-3.9059
X3.8049Y-2.9389
X3.8764Y-3.292
X3.967Y-3.9088
X4.025Y-3.8687
X4.0568Y-3.9501
X4.0712Y-3.4341
X4.177Y-2.5509
X4.1907Y-3.2636
X4.1952Y-3.9987
X4.4135Y-3.0271
X4.4731Y-3.4538
X4.5453Y-3.0204
X4.5833Y-2.8344
X4.5904Y-3.2701
X4.6115Y-3.4538
X4.6481Y-2.8185
X4.7384Y-2.7646
X4.7489Y-2.5242
X4.7869Y-2.5565
X4.8221Y-2.788
X4.8234Y-3.137
X5.0339Y-2.4442
X5.0567Y-2.572
X5.1742Y-3.2384
X5.2074Y-3.9286
X5.2388Y-4.1987
X5.272Y-4.3242
X5.273Y-3.0275
X5.2824Y-1.8814
X5.2988Y-2.2584
X5.312Y-2.5195
X5.3189Y-3.2304
X5.3413Y-3.1596
X5.3496Y-3.4086
X5.3583Y-3.2283
X5.3635Y-2.467
X5.3769Y-2.7438
X5.4183Y-3.5109
X5.441Y-2.9406
X5.4411Y-3.2194
X5.5064Y-3.2677
X5.5305Y-2.8433
X5.5641Y-4.185
X5.5976Y-2.2154
X5.5982Y-2.8502
X5.6565Y-1.8089
X5.6689Y-2.2673
X5.7489Y-2.7649
X5.7693Y-3.3094
X5.8984Y-1.7911
X5.9108Y-2.71
X5.9617Y-2.826
X5.9673Y-3.138
X6.0001Y-3.4296
X6.0123Y-2.7681
X6.0148Y-1.8354
X6.0303Y-4.1825
X6.0316Y-3.3575
X6.1003Y-2.576
X6.1122Y-3.6905
X6.1745Y-3.3944
X6.2539Y-1.6985
X6.303Y-2.0611
X6.3237Y-2.8205
X6.3759Y-3.9488
X6.6039Y-3.0463
X6.6187Y-1.9978
X6.8338Y-3.9541
X7.0653Y-3.8866
X7.2022Y-3.3766
X7.2199Y-3.7035
X8.3969Y-1.7159
T2
X6.69Y-2.635
X6.69Y-2.935
X6.79Y-2.635
X6.79Y-2.935
X6.89Y-2.635
X6.89Y-2.935
X6.99Y-2.635
X6.99Y-2.935
X7.09Y-2.635
X7.09Y-2.935
X7.19Y-2.635
X7.19Y-2.935
X7.29Y-2.635
X7.29Y-2.935
X7.6731Y-3.075
X7.87Y-3.075
X8.45Y-3.645
X8.45Y-3.945
X3.74Y-2.3381
X3.74Y-2.535
X7.11Y-3.065
X7.51Y-3.065
X7.7Y-3.2781
X7.7Y-3.475
X5.615Y-3.2
X5.615Y-3.8
X5.715Y-3.2
X5.715Y-3.8
X5.815Y-3.2
X5.815Y-3.8
X5.915Y-3.2
X5.915Y-3.8
X6.015Y-3.2
X6.015Y-3.8
X6.115Y-3.2
X6.115Y-3.8
X6.215Y-3.2
X6.215Y-3.8
X6.315Y-3.2
X6.315Y-3.8
X6.415Y-3.2
X6.415Y-3.8
X6.515Y-3.2
X6.515Y-3.8
X6.615Y-3.2
X6.615Y-3.8
X6.715Y-3.2
X6.715Y-3.8
X6.815Y-3.2
X6.815Y-3.8
X6.915Y-3.2
X6.915Y-3.8
X7.015Y-3.2
X7.015Y-3.8
X7.115Y-3.2
X7.115Y-3.8
X7.215Y-3.2
X7.215Y-3.8
X7.315Y-3.2
X7.315Y-3.8
X7.415Y-3.2
X7.415Y-3.8
X7.515Y-3.2
X7.515Y-3.8
X7.99Y-1.995
X8.39Y-1.995
X7.99Y-2.185
X8.1869Y-2.185
X5.475Y-3.41
X5.475Y-3.6069
X8.07Y-2.435
X8.2621Y-2.435
X8.49Y-2.385
X8.49Y-2.785
X5.64Y-2.643
X5.64Y-2.943
X5.74Y-2.643
X5.74Y-2.943
X5.84Y-2.643
X5.84Y-2.943
X5.94Y-2.643
X5.94Y-2.943
X6.04Y-2.643
X6.04Y-2.943
X6.14Y-2.643
X6.14Y-2.943
X6.24Y-2.643
X6.24Y-2.943
X6.34Y-2.643
X6.34Y-2.943
X7.99Y-3.075
X8.39Y-3.075
X7.91Y-3.805
X8.31Y-3.805
X3.93Y-2.495
X4.03Y-2.495
X4.13Y-2.495
X4.23Y-2.495
X4.33Y-2.495
X4.43Y-2.495
X4.53Y-2.495
X6.54Y-2.7
X6.54Y-2.8969
X5.49Y-2.695
X5.49Y-2.8919
X7.49Y-2.685
X7.49Y-2.8819
X3.925Y-1.76
X3.925Y-2.36
X4.025Y-1.76
X4.025Y-2.36
X4.125Y-1.76
X4.125Y-2.36
X4.225Y-1.76
X4.225Y-2.36
X4.325Y-1.76
X4.325Y-2.36
X4.425Y-1.76
X4.425Y-2.36
X4.525Y-1.76
X4.525Y-2.36
X4.625Y-1.76
X4.625Y-2.36
X4.725Y-1.76
X4.725Y-2.36
X4.825Y-1.76
X4.825Y-2.36
X4.925Y-1.76
X4.925Y-2.36
X5.025Y-1.76
X5.025Y-2.36
X5.125Y-1.76
X5.125Y-2.36
X5.225Y-1.76
X5.225Y-2.36
X5.325Y-1.76
X5.325Y-2.36
X5.425Y-1.76
X5.425Y-2.36
X5.525Y-1.76
X5.525Y-2.36
X5.625Y-1.76
X5.625Y-2.36
X5.725Y-1.76
X5.725Y-2.36
X5.825Y-1.76
X5.825Y-2.36
X6.235Y-1.7975
X6.235Y-2.3975
X6.335Y-1.7975
X6.335Y-2.3975
X6.435Y-1.7975
X6.435Y-2.3975
X6.535Y-1.7975
X6.535Y-2.3975
X6.635Y-1.7975
X6.635Y-2.3975
X6.735Y-1.7975
X6.735Y-2.3975
X6.835Y-1.7975
X6.835Y-2.3975
X6.935Y-1.7975
X6.935Y-2.3975
X7.035Y-1.7975
X7.035Y-2.3975
X7.135Y-1.7975
X7.135Y-2.3975
X7.235Y-1.7975
X7.235Y-2.3975
X7.335Y-1.7975
X7.335Y-2.3975
X7.435Y-1.7975
X7.435Y-2.3975
X7.535Y-1.7975
X7.535Y-2.3975
X7.9Y-3.215
X7.9Y-3.515
X8.0Y-3.215
X8.0Y-3.515
X8.1Y-3.215
X8.1Y-3.515
X8.2Y-3.215
X8.2Y-3.515
X8.3Y-3.215
X8.3Y-3.515
X8.4Y-3.215
X8.4Y-3.515
X8.5Y-3.215
X8.5Y-3.515
X7.91Y-3.665
X8.31Y-3.665
X3.42Y-2.955
X3.6169Y-2.955
X6.09Y-1.995
X6.09Y-2.1919
X8.46Y-4.055
X8.46Y-4.455
X3.425Y-1.765
X3.425Y-2.065
X3.725Y-1.765
X3.725Y-2.065
X7.7Y-3.635
X7.7Y-3.8319
X9.11Y-2.9625
X9.11Y-3.3625
X3.76Y-2.685
X3.76Y-2.8819
X8.3431Y-2.185
X8.54Y-2.185
X7.64Y-2.635
X7.64Y-2.935
X7.74Y-2.635
X7.74Y-2.935
X7.84Y-2.635
X7.84Y-2.935
X7.94Y-2.635
X7.94Y-2.935
X8.04Y-2.635
X8.04Y-2.935
X8.14Y-2.635
X8.14Y-2.935
X8.24Y-2.635
X8.24Y-2.935
X8.34Y-2.635
X8.34Y-2.935
X3.925Y-2.634
X3.925Y-2.934
X4.025Y-2.634
X4.025Y-2.934
X4.125Y-2.634
X4.125Y-2.934
X4.225Y-2.634
X4.225Y-2.934
X4.325Y-2.634
X4.325Y-2.934
X4.425Y-2.634
X4.425Y-2.934
X4.525Y-2.634
X4.525Y-2.934
X4.625Y-2.634
X4.625Y-2.934
X4.725Y-2.634
X4.725Y-2.934
X4.825Y-2.634
X4.825Y-2.934
X4.925Y-2.634
X4.925Y-2.934
X5.025Y-2.634
X5.025Y-2.934
X5.125Y-2.634
X5.125Y-2.934
X5.225Y-2.634
X5.225Y-2.934
T3
X8.67Y-3.905
X8.77Y-3.905
X8.98Y-1.995
X9.08Y-1.995
X8.5Y-1.725
X8.6Y-1.725
X8.7731Y-3.595
X8.97Y-3.595
X7.71Y-2.015
X7.71Y-2.115
X7.71Y-2.215
X7.71Y-2.315
X7.81Y-2.015
X7.81Y-2.115
X7.81Y-2.215
X7.81Y-2.315
X7.725Y-1.725
X7.725Y-1.825
X3.78Y-3.2
X3.78Y-3.8
X3.88Y-3.2
X3.88Y-3.8
X3.98Y-3.2
X3.98Y-3.8
X4.08Y-3.2
X4.08Y-3.8
X4.18Y-3.2
X4.18Y-3.8
X4.28Y-3.2
X4.28Y-3.8
X4.38Y-3.2
X4.38Y-3.8
X4.48Y-3.2
X4.48Y-3.8
X4.58Y-3.2
X4.58Y-3.8
X4.68Y-3.2
X4.68Y-3.8
X4.78Y-3.2
X4.78Y-3.8
X4.88Y-3.2
X4.88Y-3.8
X4.98Y-3.2
X4.98Y-3.8
X5.08Y-3.2
X5.08Y-3.8
X8.21Y-1.725
X8.31Y-1.725
X8.78Y-1.725
X8.88Y-1.725
X8.98Y-1.725
X9.08Y-1.725
X7.88Y-1.725
X7.88Y-1.825
X8.04Y-1.725
X8.04Y-1.825
T4
X6.1625Y-4.1325
X6.1625Y-4.2325
X6.2625Y-4.1325
X6.2625Y-4.2325
X6.3625Y-4.1325
X6.3625Y-4.2325
X6.4625Y-4.1325
X6.4625Y-4.2325
X6.5625Y-4.1325
X6.5625Y-4.2325
X6.6625Y-4.1325
X6.6625Y-4.2325
X6.7625Y-4.1325
X6.7625Y-4.2325
X6.8625Y-4.1325
X6.8625Y-4.2325
X6.9625Y-4.1325
X6.9625Y-4.2325
X7.0625Y-4.1325
X7.0625Y-4.2325
X7.1625Y-4.1325
X7.1625Y-4.2325
X7.2625Y-4.1325
X7.2625Y-4.2325
X7.3625Y-4.1325
X7.3625Y-4.2325
X7.4625Y-4.1325
X7.4625Y-4.2325
X7.5625Y-4.1325
X7.5625Y-4.2325
X7.6625Y-4.1325
X7.6625Y-4.2325
X7.7625Y-4.1325
X7.7625Y-4.2325
X7.8625Y-4.1325
X7.8625Y-4.2325
X7.9625Y-4.1325
X7.9625Y-4.2325
X8.0625Y-4.1325
X8.0625Y-4.2325
X3.59Y-4.135
X3.59Y-4.235
X3.69Y-4.135
X3.69Y-4.235
X3.79Y-4.135
X3.79Y-4.235
X3.89Y-4.135
X3.89Y-4.235
X3.99Y-4.135
X3.99Y-4.235
X4.09Y-4.135
X4.09Y-4.235
X4.19Y-4.135
X4.19Y-4.235
X4.29Y-4.135
X4.29Y-4.235
X4.39Y-4.135
X4.39Y-4.235
X4.49Y-4.135
X4.49Y-4.235
X4.59Y-4.135
X4.59Y-4.235
X4.69Y-4.135
X4.69Y-4.235
X4.79Y-4.135
X4.79Y-4.235
X4.89Y-4.135
X4.89Y-4.235
X4.99Y-4.135
X4.99Y-4.235
X5.09Y-4.135
X5.09Y-4.235
X5.19Y-4.135
X5.19Y-4.235
X5.29Y-4.135
X5.29Y-4.235
X5.39Y-4.135
X5.39Y-4.235
X5.49Y-4.135
X5.49Y-4.235
T5
X3.49Y-2.59
X5.83Y-4.095
X9.015Y-2.59
X9.015Y-3.965
T3
G00X8.7506Y-4.1175
M15
G01X8.8294Y-4.1175
M16
G05
G00X8.7506Y-4.3537
M15
G01X8.8294Y-4.3537
M16
G05
G00X8.975Y-4.275
M15
G01X8.975Y-4.1963
M16
G05
T0
M30
