G04 #@! TF.GenerationSoftware,KiCad,Pcbnew,(5.1.5)-3*
G04 #@! TF.CreationDate,2021-05-28T12:42:32+12:00*
G04 #@! TF.ProjectId,6502-Controller,36353032-2d43-46f6-9e74-726f6c6c6572,rev?*
G04 #@! TF.SameCoordinates,Original*
G04 #@! TF.FileFunction,Legend,Top*
G04 #@! TF.FilePolarity,Positive*
%FSLAX46Y46*%
G04 Gerber Fmt 4.6, Leading zero omitted, Abs format (unit mm)*
G04 Created by KiCad (PCBNEW (5.1.5)-3) date 2021-05-28 12:42:32*
%MOMM*%
%LPD*%
G04 APERTURE LIST*
%ADD10C,0.150000*%
%ADD11C,0.120000*%
G04 APERTURE END LIST*
D10*
X200787023Y-59380380D02*
X200215595Y-59380380D01*
X200501309Y-59380380D02*
X200501309Y-58380380D01*
X200406071Y-58523238D01*
X200310833Y-58618476D01*
X200215595Y-58666095D01*
X201167976Y-58475619D02*
X201215595Y-58428000D01*
X201310833Y-58380380D01*
X201548928Y-58380380D01*
X201644166Y-58428000D01*
X201691785Y-58475619D01*
X201739404Y-58570857D01*
X201739404Y-58666095D01*
X201691785Y-58808952D01*
X201120357Y-59380380D01*
X201739404Y-59380380D01*
X200691785Y-55649880D02*
X200501309Y-55649880D01*
X200406071Y-55697500D01*
X200358452Y-55745119D01*
X200263214Y-55887976D01*
X200215595Y-56078452D01*
X200215595Y-56459404D01*
X200263214Y-56554642D01*
X200310833Y-56602261D01*
X200406071Y-56649880D01*
X200596547Y-56649880D01*
X200691785Y-56602261D01*
X200739404Y-56554642D01*
X200787023Y-56459404D01*
X200787023Y-56221309D01*
X200739404Y-56126071D01*
X200691785Y-56078452D01*
X200596547Y-56030833D01*
X200406071Y-56030833D01*
X200310833Y-56078452D01*
X200263214Y-56126071D01*
X200215595Y-56221309D01*
X201406071Y-55649880D02*
X201501309Y-55649880D01*
X201596547Y-55697500D01*
X201644166Y-55745119D01*
X201691785Y-55840357D01*
X201739404Y-56030833D01*
X201739404Y-56268928D01*
X201691785Y-56459404D01*
X201644166Y-56554642D01*
X201596547Y-56602261D01*
X201501309Y-56649880D01*
X201406071Y-56649880D01*
X201310833Y-56602261D01*
X201263214Y-56554642D01*
X201215595Y-56459404D01*
X201167976Y-56268928D01*
X201167976Y-56030833D01*
X201215595Y-55840357D01*
X201263214Y-55745119D01*
X201310833Y-55697500D01*
X201406071Y-55649880D01*
X200167976Y-53173380D02*
X200787023Y-53173380D01*
X200453690Y-53554333D01*
X200596547Y-53554333D01*
X200691785Y-53601952D01*
X200739404Y-53649571D01*
X200787023Y-53744809D01*
X200787023Y-53982904D01*
X200739404Y-54078142D01*
X200691785Y-54125761D01*
X200596547Y-54173380D01*
X200310833Y-54173380D01*
X200215595Y-54125761D01*
X200167976Y-54078142D01*
X201406071Y-53173380D02*
X201501309Y-53173380D01*
X201596547Y-53221000D01*
X201644166Y-53268619D01*
X201691785Y-53363857D01*
X201739404Y-53554333D01*
X201739404Y-53792428D01*
X201691785Y-53982904D01*
X201644166Y-54078142D01*
X201596547Y-54125761D01*
X201501309Y-54173380D01*
X201406071Y-54173380D01*
X201310833Y-54125761D01*
X201263214Y-54078142D01*
X201215595Y-53982904D01*
X201167976Y-53792428D01*
X201167976Y-53554333D01*
X201215595Y-53363857D01*
X201263214Y-53268619D01*
X201310833Y-53221000D01*
X201406071Y-53173380D01*
X200787023Y-51760380D02*
X200215595Y-51760380D01*
X200501309Y-51760380D02*
X200501309Y-50760380D01*
X200406071Y-50903238D01*
X200310833Y-50998476D01*
X200215595Y-51046095D01*
X201691785Y-50760380D02*
X201215595Y-50760380D01*
X201167976Y-51236571D01*
X201215595Y-51188952D01*
X201310833Y-51141333D01*
X201548928Y-51141333D01*
X201644166Y-51188952D01*
X201691785Y-51236571D01*
X201739404Y-51331809D01*
X201739404Y-51569904D01*
X201691785Y-51665142D01*
X201644166Y-51712761D01*
X201548928Y-51760380D01*
X201310833Y-51760380D01*
X201215595Y-51712761D01*
X201167976Y-51665142D01*
X161409023Y-65381142D02*
X161361404Y-65428761D01*
X161218547Y-65476380D01*
X161123309Y-65476380D01*
X160980452Y-65428761D01*
X160885214Y-65333523D01*
X160837595Y-65238285D01*
X160789976Y-65047809D01*
X160789976Y-64904952D01*
X160837595Y-64714476D01*
X160885214Y-64619238D01*
X160980452Y-64524000D01*
X161123309Y-64476380D01*
X161218547Y-64476380D01*
X161361404Y-64524000D01*
X161409023Y-64571619D01*
X158424595Y-65476380D02*
X158424595Y-64476380D01*
X158805547Y-64476380D01*
X158900785Y-64524000D01*
X158948404Y-64571619D01*
X158996023Y-64666857D01*
X158996023Y-64809714D01*
X158948404Y-64904952D01*
X158900785Y-64952571D01*
X158805547Y-65000190D01*
X158424595Y-65000190D01*
X155670285Y-65365261D02*
X155813142Y-65412880D01*
X156051238Y-65412880D01*
X156146476Y-65365261D01*
X156194095Y-65317642D01*
X156241714Y-65222404D01*
X156241714Y-65127166D01*
X156194095Y-65031928D01*
X156146476Y-64984309D01*
X156051238Y-64936690D01*
X155860761Y-64889071D01*
X155765523Y-64841452D01*
X155717904Y-64793833D01*
X155670285Y-64698595D01*
X155670285Y-64603357D01*
X155717904Y-64508119D01*
X155765523Y-64460500D01*
X155860761Y-64412880D01*
X156098857Y-64412880D01*
X156241714Y-64460500D01*
X153542976Y-64412880D02*
X153352500Y-64412880D01*
X153257261Y-64460500D01*
X153209642Y-64508119D01*
X153114404Y-64650976D01*
X153066785Y-64841452D01*
X153066785Y-65222404D01*
X153114404Y-65317642D01*
X153162023Y-65365261D01*
X153257261Y-65412880D01*
X153447738Y-65412880D01*
X153542976Y-65365261D01*
X153590595Y-65317642D01*
X153638214Y-65222404D01*
X153638214Y-64984309D01*
X153590595Y-64889071D01*
X153542976Y-64841452D01*
X153447738Y-64793833D01*
X153257261Y-64793833D01*
X153162023Y-64841452D01*
X153114404Y-64889071D01*
X153066785Y-64984309D01*
X150939476Y-64809714D02*
X150939476Y-65476380D01*
X150701380Y-64428761D02*
X150463285Y-65143047D01*
X151082333Y-65143047D01*
X148113785Y-64571619D02*
X148161404Y-64524000D01*
X148256642Y-64476380D01*
X148494738Y-64476380D01*
X148589976Y-64524000D01*
X148637595Y-64571619D01*
X148685214Y-64666857D01*
X148685214Y-64762095D01*
X148637595Y-64904952D01*
X148066166Y-65476380D01*
X148685214Y-65476380D01*
X145105523Y-65476380D02*
X144772190Y-65000190D01*
X144534095Y-65476380D02*
X144534095Y-64476380D01*
X144915047Y-64476380D01*
X145010285Y-64524000D01*
X145057904Y-64571619D01*
X145105523Y-64666857D01*
X145105523Y-64809714D01*
X145057904Y-64904952D01*
X145010285Y-64952571D01*
X144915047Y-65000190D01*
X144534095Y-65000190D01*
X145486476Y-65190666D02*
X145962666Y-65190666D01*
X145391238Y-65476380D02*
X145724571Y-64476380D01*
X146057904Y-65476380D01*
X146391238Y-65476380D02*
X146391238Y-64476380D01*
X146724571Y-65190666D01*
X147057904Y-64476380D01*
X147057904Y-65476380D01*
X157773785Y-77541380D02*
X157440452Y-77065190D01*
X157202357Y-77541380D02*
X157202357Y-76541380D01*
X157583309Y-76541380D01*
X157678547Y-76589000D01*
X157726166Y-76636619D01*
X157773785Y-76731857D01*
X157773785Y-76874714D01*
X157726166Y-76969952D01*
X157678547Y-77017571D01*
X157583309Y-77065190D01*
X157202357Y-77065190D01*
X158392833Y-76541380D02*
X158583309Y-76541380D01*
X158678547Y-76589000D01*
X158773785Y-76684238D01*
X158821404Y-76874714D01*
X158821404Y-77208047D01*
X158773785Y-77398523D01*
X158678547Y-77493761D01*
X158583309Y-77541380D01*
X158392833Y-77541380D01*
X158297595Y-77493761D01*
X158202357Y-77398523D01*
X158154738Y-77208047D01*
X158154738Y-76874714D01*
X158202357Y-76684238D01*
X158297595Y-76589000D01*
X158392833Y-76541380D01*
X159249976Y-77541380D02*
X159249976Y-76541380D01*
X159583309Y-77255666D01*
X159916642Y-76541380D01*
X159916642Y-77541380D01*
X147463023Y-77255666D02*
X147939214Y-77255666D01*
X147367785Y-77541380D02*
X147701119Y-76541380D01*
X148034452Y-77541380D01*
X148891595Y-77541380D02*
X148320166Y-77541380D01*
X148605880Y-77541380D02*
X148605880Y-76541380D01*
X148510642Y-76684238D01*
X148415404Y-76779476D01*
X148320166Y-76827095D01*
X149796357Y-76541380D02*
X149320166Y-76541380D01*
X149272547Y-77017571D01*
X149320166Y-76969952D01*
X149415404Y-76922333D01*
X149653500Y-76922333D01*
X149748738Y-76969952D01*
X149796357Y-77017571D01*
X149843976Y-77112809D01*
X149843976Y-77350904D01*
X149796357Y-77446142D01*
X149748738Y-77493761D01*
X149653500Y-77541380D01*
X149415404Y-77541380D01*
X149320166Y-77493761D01*
X149272547Y-77446142D01*
X144732523Y-77255666D02*
X145208714Y-77255666D01*
X144637285Y-77541380D02*
X144970619Y-76541380D01*
X145303952Y-77541380D01*
X146161095Y-77541380D02*
X145589666Y-77541380D01*
X145875380Y-77541380D02*
X145875380Y-76541380D01*
X145780142Y-76684238D01*
X145684904Y-76779476D01*
X145589666Y-76827095D01*
X147018238Y-76874714D02*
X147018238Y-77541380D01*
X146780142Y-76493761D02*
X146542047Y-77208047D01*
X147161095Y-77208047D01*
X141875023Y-77255666D02*
X142351214Y-77255666D01*
X141779785Y-77541380D02*
X142113119Y-76541380D01*
X142446452Y-77541380D01*
X143303595Y-77541380D02*
X142732166Y-77541380D01*
X143017880Y-77541380D02*
X143017880Y-76541380D01*
X142922642Y-76684238D01*
X142827404Y-76779476D01*
X142732166Y-76827095D01*
X143636928Y-76541380D02*
X144255976Y-76541380D01*
X143922642Y-76922333D01*
X144065500Y-76922333D01*
X144160738Y-76969952D01*
X144208357Y-77017571D01*
X144255976Y-77112809D01*
X144255976Y-77350904D01*
X144208357Y-77446142D01*
X144160738Y-77493761D01*
X144065500Y-77541380D01*
X143779785Y-77541380D01*
X143684547Y-77493761D01*
X143636928Y-77446142D01*
X123405119Y-101465119D02*
X123452738Y-101417500D01*
X123547976Y-101369880D01*
X123786071Y-101369880D01*
X123881309Y-101417500D01*
X123928928Y-101465119D01*
X123976547Y-101560357D01*
X123976547Y-101655595D01*
X123928928Y-101798452D01*
X123357500Y-102369880D01*
X123976547Y-102369880D01*
X124309880Y-101369880D02*
X124976547Y-101369880D01*
X124547976Y-102369880D01*
X125786071Y-101369880D02*
X125595595Y-101369880D01*
X125500357Y-101417500D01*
X125452738Y-101465119D01*
X125357500Y-101607976D01*
X125309880Y-101798452D01*
X125309880Y-102179404D01*
X125357500Y-102274642D01*
X125405119Y-102322261D01*
X125500357Y-102369880D01*
X125690833Y-102369880D01*
X125786071Y-102322261D01*
X125833690Y-102274642D01*
X125881309Y-102179404D01*
X125881309Y-101941309D01*
X125833690Y-101846071D01*
X125786071Y-101798452D01*
X125690833Y-101750833D01*
X125500357Y-101750833D01*
X125405119Y-101798452D01*
X125357500Y-101846071D01*
X125309880Y-101941309D01*
X126738452Y-101703214D02*
X126738452Y-102369880D01*
X126500357Y-101322261D02*
X126262261Y-102036547D01*
X126881309Y-102036547D01*
X128167023Y-102369880D02*
X128071785Y-102322261D01*
X128024166Y-102274642D01*
X127976547Y-102179404D01*
X127976547Y-101893690D01*
X128024166Y-101798452D01*
X128071785Y-101750833D01*
X128167023Y-101703214D01*
X128309880Y-101703214D01*
X128405119Y-101750833D01*
X128452738Y-101798452D01*
X128500357Y-101893690D01*
X128500357Y-102179404D01*
X128452738Y-102274642D01*
X128405119Y-102322261D01*
X128309880Y-102369880D01*
X128167023Y-102369880D01*
X128928928Y-102369880D02*
X128928928Y-101703214D01*
X128928928Y-101893690D02*
X128976547Y-101798452D01*
X129024166Y-101750833D01*
X129119404Y-101703214D01*
X129214642Y-101703214D01*
X130262261Y-102084166D02*
X130738452Y-102084166D01*
X130167023Y-102369880D02*
X130500357Y-101369880D01*
X130833690Y-102369880D01*
X131024166Y-101369880D02*
X131595595Y-101369880D01*
X131309880Y-102369880D02*
X131309880Y-101369880D01*
X131881309Y-101465119D02*
X131928928Y-101417500D01*
X132024166Y-101369880D01*
X132262261Y-101369880D01*
X132357500Y-101417500D01*
X132405119Y-101465119D01*
X132452738Y-101560357D01*
X132452738Y-101655595D01*
X132405119Y-101798452D01*
X131833690Y-102369880D01*
X132452738Y-102369880D01*
X133024166Y-101798452D02*
X132928928Y-101750833D01*
X132881309Y-101703214D01*
X132833690Y-101607976D01*
X132833690Y-101560357D01*
X132881309Y-101465119D01*
X132928928Y-101417500D01*
X133024166Y-101369880D01*
X133214642Y-101369880D01*
X133309880Y-101417500D01*
X133357500Y-101465119D01*
X133405119Y-101560357D01*
X133405119Y-101607976D01*
X133357500Y-101703214D01*
X133309880Y-101750833D01*
X133214642Y-101798452D01*
X133024166Y-101798452D01*
X132928928Y-101846071D01*
X132881309Y-101893690D01*
X132833690Y-101988928D01*
X132833690Y-102179404D01*
X132881309Y-102274642D01*
X132928928Y-102322261D01*
X133024166Y-102369880D01*
X133214642Y-102369880D01*
X133309880Y-102322261D01*
X133357500Y-102274642D01*
X133405119Y-102179404D01*
X133405119Y-101988928D01*
X133357500Y-101893690D01*
X133309880Y-101846071D01*
X133214642Y-101798452D01*
X134405119Y-102274642D02*
X134357500Y-102322261D01*
X134214642Y-102369880D01*
X134119404Y-102369880D01*
X133976547Y-102322261D01*
X133881309Y-102227023D01*
X133833690Y-102131785D01*
X133786071Y-101941309D01*
X133786071Y-101798452D01*
X133833690Y-101607976D01*
X133881309Y-101512738D01*
X133976547Y-101417500D01*
X134119404Y-101369880D01*
X134214642Y-101369880D01*
X134357500Y-101417500D01*
X134405119Y-101465119D01*
X135262261Y-101369880D02*
X135071785Y-101369880D01*
X134976547Y-101417500D01*
X134928928Y-101465119D01*
X134833690Y-101607976D01*
X134786071Y-101798452D01*
X134786071Y-102179404D01*
X134833690Y-102274642D01*
X134881309Y-102322261D01*
X134976547Y-102369880D01*
X135167023Y-102369880D01*
X135262261Y-102322261D01*
X135309880Y-102274642D01*
X135357500Y-102179404D01*
X135357500Y-101941309D01*
X135309880Y-101846071D01*
X135262261Y-101798452D01*
X135167023Y-101750833D01*
X134976547Y-101750833D01*
X134881309Y-101798452D01*
X134833690Y-101846071D01*
X134786071Y-101941309D01*
X136214642Y-101703214D02*
X136214642Y-102369880D01*
X135976547Y-101322261D02*
X135738452Y-102036547D01*
X136357500Y-102036547D01*
X220948785Y-56270380D02*
X220948785Y-55270380D01*
X221996404Y-56270380D02*
X221663071Y-55794190D01*
X221424976Y-56270380D02*
X221424976Y-55270380D01*
X221805928Y-55270380D01*
X221901166Y-55318000D01*
X221948785Y-55365619D01*
X221996404Y-55460857D01*
X221996404Y-55603714D01*
X221948785Y-55698952D01*
X221901166Y-55746571D01*
X221805928Y-55794190D01*
X221424976Y-55794190D01*
X223091642Y-56365619D02*
X222996404Y-56318000D01*
X222901166Y-56222761D01*
X222758309Y-56079904D01*
X222663071Y-56032285D01*
X222567833Y-56032285D01*
X222615452Y-56270380D02*
X222520214Y-56222761D01*
X222424976Y-56127523D01*
X222377357Y-55937047D01*
X222377357Y-55603714D01*
X222424976Y-55413238D01*
X222520214Y-55318000D01*
X222615452Y-55270380D01*
X222805928Y-55270380D01*
X222901166Y-55318000D01*
X222996404Y-55413238D01*
X223044023Y-55603714D01*
X223044023Y-55937047D01*
X222996404Y-56127523D01*
X222901166Y-56222761D01*
X222805928Y-56270380D01*
X222615452Y-56270380D01*
X224615452Y-56222761D02*
X224520214Y-56270380D01*
X224329738Y-56270380D01*
X224234500Y-56222761D01*
X224186880Y-56127523D01*
X224186880Y-55746571D01*
X224234500Y-55651333D01*
X224329738Y-55603714D01*
X224520214Y-55603714D01*
X224615452Y-55651333D01*
X224663071Y-55746571D01*
X224663071Y-55841809D01*
X224186880Y-55937047D01*
X225091642Y-55603714D02*
X225091642Y-56270380D01*
X225091642Y-55698952D02*
X225139261Y-55651333D01*
X225234500Y-55603714D01*
X225377357Y-55603714D01*
X225472595Y-55651333D01*
X225520214Y-55746571D01*
X225520214Y-56270380D01*
X226424976Y-56270380D02*
X226424976Y-55746571D01*
X226377357Y-55651333D01*
X226282119Y-55603714D01*
X226091642Y-55603714D01*
X225996404Y-55651333D01*
X226424976Y-56222761D02*
X226329738Y-56270380D01*
X226091642Y-56270380D01*
X225996404Y-56222761D01*
X225948785Y-56127523D01*
X225948785Y-56032285D01*
X225996404Y-55937047D01*
X226091642Y-55889428D01*
X226329738Y-55889428D01*
X226424976Y-55841809D01*
X226901166Y-56270380D02*
X226901166Y-55270380D01*
X226901166Y-55651333D02*
X226996404Y-55603714D01*
X227186880Y-55603714D01*
X227282119Y-55651333D01*
X227329738Y-55698952D01*
X227377357Y-55794190D01*
X227377357Y-56079904D01*
X227329738Y-56175142D01*
X227282119Y-56222761D01*
X227186880Y-56270380D01*
X226996404Y-56270380D01*
X226901166Y-56222761D01*
X227948785Y-56270380D02*
X227853547Y-56222761D01*
X227805928Y-56127523D01*
X227805928Y-55270380D01*
X228710690Y-56222761D02*
X228615452Y-56270380D01*
X228424976Y-56270380D01*
X228329738Y-56222761D01*
X228282119Y-56127523D01*
X228282119Y-55746571D01*
X228329738Y-55651333D01*
X228424976Y-55603714D01*
X228615452Y-55603714D01*
X228710690Y-55651333D01*
X228758309Y-55746571D01*
X228758309Y-55841809D01*
X228282119Y-55937047D01*
X229139261Y-56222761D02*
X229234500Y-56270380D01*
X229424976Y-56270380D01*
X229520214Y-56222761D01*
X229567833Y-56127523D01*
X229567833Y-56079904D01*
X229520214Y-55984666D01*
X229424976Y-55937047D01*
X229282119Y-55937047D01*
X229186880Y-55889428D01*
X229139261Y-55794190D01*
X229139261Y-55746571D01*
X229186880Y-55651333D01*
X229282119Y-55603714D01*
X229424976Y-55603714D01*
X229520214Y-55651333D01*
X220758309Y-56920380D02*
X220758309Y-57634666D01*
X220710690Y-57777523D01*
X220615452Y-57872761D01*
X220472595Y-57920380D01*
X220377357Y-57920380D01*
X221663071Y-57253714D02*
X221663071Y-57920380D01*
X221424976Y-56872761D02*
X221186880Y-57587047D01*
X221805928Y-57587047D01*
X222948785Y-57396571D02*
X223282119Y-57396571D01*
X223424976Y-57920380D02*
X222948785Y-57920380D01*
X222948785Y-56920380D01*
X223424976Y-56920380D01*
X223758309Y-57920380D02*
X224282119Y-57253714D01*
X223758309Y-57253714D02*
X224282119Y-57920380D01*
X224663071Y-57253714D02*
X224663071Y-58253714D01*
X224663071Y-57301333D02*
X224758309Y-57253714D01*
X224948785Y-57253714D01*
X225044023Y-57301333D01*
X225091642Y-57348952D01*
X225139261Y-57444190D01*
X225139261Y-57729904D01*
X225091642Y-57825142D01*
X225044023Y-57872761D01*
X224948785Y-57920380D01*
X224758309Y-57920380D01*
X224663071Y-57872761D01*
X225996404Y-57920380D02*
X225996404Y-57396571D01*
X225948785Y-57301333D01*
X225853547Y-57253714D01*
X225663071Y-57253714D01*
X225567833Y-57301333D01*
X225996404Y-57872761D02*
X225901166Y-57920380D01*
X225663071Y-57920380D01*
X225567833Y-57872761D01*
X225520214Y-57777523D01*
X225520214Y-57682285D01*
X225567833Y-57587047D01*
X225663071Y-57539428D01*
X225901166Y-57539428D01*
X225996404Y-57491809D01*
X226472595Y-57253714D02*
X226472595Y-57920380D01*
X226472595Y-57348952D02*
X226520214Y-57301333D01*
X226615452Y-57253714D01*
X226758309Y-57253714D01*
X226853547Y-57301333D01*
X226901166Y-57396571D01*
X226901166Y-57920380D01*
X227329738Y-57872761D02*
X227424976Y-57920380D01*
X227615452Y-57920380D01*
X227710690Y-57872761D01*
X227758309Y-57777523D01*
X227758309Y-57729904D01*
X227710690Y-57634666D01*
X227615452Y-57587047D01*
X227472595Y-57587047D01*
X227377357Y-57539428D01*
X227329738Y-57444190D01*
X227329738Y-57396571D01*
X227377357Y-57301333D01*
X227472595Y-57253714D01*
X227615452Y-57253714D01*
X227710690Y-57301333D01*
X228186880Y-57920380D02*
X228186880Y-57253714D01*
X228186880Y-56920380D02*
X228139261Y-56968000D01*
X228186880Y-57015619D01*
X228234500Y-56968000D01*
X228186880Y-56920380D01*
X228186880Y-57015619D01*
X228805928Y-57920380D02*
X228710690Y-57872761D01*
X228663071Y-57825142D01*
X228615452Y-57729904D01*
X228615452Y-57444190D01*
X228663071Y-57348952D01*
X228710690Y-57301333D01*
X228805928Y-57253714D01*
X228948785Y-57253714D01*
X229044023Y-57301333D01*
X229091642Y-57348952D01*
X229139261Y-57444190D01*
X229139261Y-57729904D01*
X229091642Y-57825142D01*
X229044023Y-57872761D01*
X228948785Y-57920380D01*
X228805928Y-57920380D01*
X229567833Y-57253714D02*
X229567833Y-57920380D01*
X229567833Y-57348952D02*
X229615452Y-57301333D01*
X229710690Y-57253714D01*
X229853547Y-57253714D01*
X229948785Y-57301333D01*
X229996404Y-57396571D01*
X229996404Y-57920380D01*
X221139261Y-58570380D02*
X221139261Y-59284666D01*
X221091642Y-59427523D01*
X220996404Y-59522761D01*
X220853547Y-59570380D01*
X220758309Y-59570380D01*
X222091642Y-58570380D02*
X221615452Y-58570380D01*
X221567833Y-59046571D01*
X221615452Y-58998952D01*
X221710690Y-58951333D01*
X221948785Y-58951333D01*
X222044023Y-58998952D01*
X222091642Y-59046571D01*
X222139261Y-59141809D01*
X222139261Y-59379904D01*
X222091642Y-59475142D01*
X222044023Y-59522761D01*
X221948785Y-59570380D01*
X221710690Y-59570380D01*
X221615452Y-59522761D01*
X221567833Y-59475142D01*
X223758309Y-58570380D02*
X223567833Y-58570380D01*
X223472595Y-58618000D01*
X223424976Y-58665619D01*
X223329738Y-58808476D01*
X223282119Y-58998952D01*
X223282119Y-59379904D01*
X223329738Y-59475142D01*
X223377357Y-59522761D01*
X223472595Y-59570380D01*
X223663071Y-59570380D01*
X223758309Y-59522761D01*
X223805928Y-59475142D01*
X223853547Y-59379904D01*
X223853547Y-59141809D01*
X223805928Y-59046571D01*
X223758309Y-58998952D01*
X223663071Y-58951333D01*
X223472595Y-58951333D01*
X223377357Y-58998952D01*
X223329738Y-59046571D01*
X223282119Y-59141809D01*
X224758309Y-58570380D02*
X224282119Y-58570380D01*
X224234500Y-59046571D01*
X224282119Y-58998952D01*
X224377357Y-58951333D01*
X224615452Y-58951333D01*
X224710690Y-58998952D01*
X224758309Y-59046571D01*
X224805928Y-59141809D01*
X224805928Y-59379904D01*
X224758309Y-59475142D01*
X224710690Y-59522761D01*
X224615452Y-59570380D01*
X224377357Y-59570380D01*
X224282119Y-59522761D01*
X224234500Y-59475142D01*
X225186880Y-58665619D02*
X225234500Y-58618000D01*
X225329738Y-58570380D01*
X225567833Y-58570380D01*
X225663071Y-58618000D01*
X225710690Y-58665619D01*
X225758309Y-58760857D01*
X225758309Y-58856095D01*
X225710690Y-58998952D01*
X225139261Y-59570380D01*
X225758309Y-59570380D01*
X226139261Y-58665619D02*
X226186880Y-58618000D01*
X226282119Y-58570380D01*
X226520214Y-58570380D01*
X226615452Y-58618000D01*
X226663071Y-58665619D01*
X226710690Y-58760857D01*
X226710690Y-58856095D01*
X226663071Y-58998952D01*
X226091642Y-59570380D01*
X226710690Y-59570380D01*
X227758309Y-58570380D02*
X228091642Y-59570380D01*
X228424976Y-58570380D01*
X228758309Y-59570380D02*
X228758309Y-58570380D01*
X229186880Y-59284666D02*
X229663071Y-59284666D01*
X229091642Y-59570380D02*
X229424976Y-58570380D01*
X229758309Y-59570380D01*
X220067833Y-60220380D02*
X220067833Y-60934666D01*
X220020214Y-61077523D01*
X219924976Y-61172761D01*
X219782119Y-61220380D01*
X219686880Y-61220380D01*
X220972595Y-60220380D02*
X220782119Y-60220380D01*
X220686880Y-60268000D01*
X220639261Y-60315619D01*
X220544023Y-60458476D01*
X220496404Y-60648952D01*
X220496404Y-61029904D01*
X220544023Y-61125142D01*
X220591642Y-61172761D01*
X220686880Y-61220380D01*
X220877357Y-61220380D01*
X220972595Y-61172761D01*
X221020214Y-61125142D01*
X221067833Y-61029904D01*
X221067833Y-60791809D01*
X221020214Y-60696571D01*
X220972595Y-60648952D01*
X220877357Y-60601333D01*
X220686880Y-60601333D01*
X220591642Y-60648952D01*
X220544023Y-60696571D01*
X220496404Y-60791809D01*
X222401166Y-60648952D02*
X222305928Y-60601333D01*
X222258309Y-60553714D01*
X222210690Y-60458476D01*
X222210690Y-60410857D01*
X222258309Y-60315619D01*
X222305928Y-60268000D01*
X222401166Y-60220380D01*
X222591642Y-60220380D01*
X222686880Y-60268000D01*
X222734500Y-60315619D01*
X222782119Y-60410857D01*
X222782119Y-60458476D01*
X222734500Y-60553714D01*
X222686880Y-60601333D01*
X222591642Y-60648952D01*
X222401166Y-60648952D01*
X222305928Y-60696571D01*
X222258309Y-60744190D01*
X222210690Y-60839428D01*
X222210690Y-61029904D01*
X222258309Y-61125142D01*
X222305928Y-61172761D01*
X222401166Y-61220380D01*
X222591642Y-61220380D01*
X222686880Y-61172761D01*
X222734500Y-61125142D01*
X222782119Y-61029904D01*
X222782119Y-60839428D01*
X222734500Y-60744190D01*
X222686880Y-60696571D01*
X222591642Y-60648952D01*
X223163071Y-60315619D02*
X223210690Y-60268000D01*
X223305928Y-60220380D01*
X223544023Y-60220380D01*
X223639261Y-60268000D01*
X223686880Y-60315619D01*
X223734500Y-60410857D01*
X223734500Y-60506095D01*
X223686880Y-60648952D01*
X223115452Y-61220380D01*
X223734500Y-61220380D01*
X224639261Y-60220380D02*
X224163071Y-60220380D01*
X224115452Y-60696571D01*
X224163071Y-60648952D01*
X224258309Y-60601333D01*
X224496404Y-60601333D01*
X224591642Y-60648952D01*
X224639261Y-60696571D01*
X224686880Y-60791809D01*
X224686880Y-61029904D01*
X224639261Y-61125142D01*
X224591642Y-61172761D01*
X224496404Y-61220380D01*
X224258309Y-61220380D01*
X224163071Y-61172761D01*
X224115452Y-61125142D01*
X225639261Y-61220380D02*
X225067833Y-61220380D01*
X225353547Y-61220380D02*
X225353547Y-60220380D01*
X225258309Y-60363238D01*
X225163071Y-60458476D01*
X225067833Y-60506095D01*
X226782119Y-61172761D02*
X226924976Y-61220380D01*
X227163071Y-61220380D01*
X227258309Y-61172761D01*
X227305928Y-61125142D01*
X227353547Y-61029904D01*
X227353547Y-60934666D01*
X227305928Y-60839428D01*
X227258309Y-60791809D01*
X227163071Y-60744190D01*
X226972595Y-60696571D01*
X226877357Y-60648952D01*
X226829738Y-60601333D01*
X226782119Y-60506095D01*
X226782119Y-60410857D01*
X226829738Y-60315619D01*
X226877357Y-60268000D01*
X226972595Y-60220380D01*
X227210690Y-60220380D01*
X227353547Y-60268000D01*
X228163071Y-61172761D02*
X228067833Y-61220380D01*
X227877357Y-61220380D01*
X227782119Y-61172761D01*
X227734500Y-61077523D01*
X227734500Y-60696571D01*
X227782119Y-60601333D01*
X227877357Y-60553714D01*
X228067833Y-60553714D01*
X228163071Y-60601333D01*
X228210690Y-60696571D01*
X228210690Y-60791809D01*
X227734500Y-60887047D01*
X228639261Y-61220380D02*
X228639261Y-60553714D01*
X228639261Y-60744190D02*
X228686880Y-60648952D01*
X228734500Y-60601333D01*
X228829738Y-60553714D01*
X228924976Y-60553714D01*
X229258309Y-61220380D02*
X229258309Y-60553714D01*
X229258309Y-60220380D02*
X229210690Y-60268000D01*
X229258309Y-60315619D01*
X229305928Y-60268000D01*
X229258309Y-60220380D01*
X229258309Y-60315619D01*
X230163071Y-61220380D02*
X230163071Y-60696571D01*
X230115452Y-60601333D01*
X230020214Y-60553714D01*
X229829738Y-60553714D01*
X229734500Y-60601333D01*
X230163071Y-61172761D02*
X230067833Y-61220380D01*
X229829738Y-61220380D01*
X229734500Y-61172761D01*
X229686880Y-61077523D01*
X229686880Y-60982285D01*
X229734500Y-60887047D01*
X229829738Y-60839428D01*
X230067833Y-60839428D01*
X230163071Y-60791809D01*
X230782119Y-61220380D02*
X230686880Y-61172761D01*
X230639261Y-61077523D01*
X230639261Y-60220380D01*
X222440523Y-46696380D02*
X221964333Y-46696380D01*
X221916714Y-47172571D01*
X221964333Y-47124952D01*
X222059571Y-47077333D01*
X222297666Y-47077333D01*
X222392904Y-47124952D01*
X222440523Y-47172571D01*
X222488142Y-47267809D01*
X222488142Y-47505904D01*
X222440523Y-47601142D01*
X222392904Y-47648761D01*
X222297666Y-47696380D01*
X222059571Y-47696380D01*
X221964333Y-47648761D01*
X221916714Y-47601142D01*
X222773857Y-46696380D02*
X223107190Y-47696380D01*
X223440523Y-46696380D01*
X229870095Y-46744000D02*
X229774857Y-46696380D01*
X229632000Y-46696380D01*
X229489142Y-46744000D01*
X229393904Y-46839238D01*
X229346285Y-46934476D01*
X229298666Y-47124952D01*
X229298666Y-47267809D01*
X229346285Y-47458285D01*
X229393904Y-47553523D01*
X229489142Y-47648761D01*
X229632000Y-47696380D01*
X229727238Y-47696380D01*
X229870095Y-47648761D01*
X229917714Y-47601142D01*
X229917714Y-47267809D01*
X229727238Y-47267809D01*
X230346285Y-47696380D02*
X230346285Y-46696380D01*
X230917714Y-47696380D01*
X230917714Y-46696380D01*
X231393904Y-47696380D02*
X231393904Y-46696380D01*
X231632000Y-46696380D01*
X231774857Y-46744000D01*
X231870095Y-46839238D01*
X231917714Y-46934476D01*
X231965333Y-47124952D01*
X231965333Y-47267809D01*
X231917714Y-47458285D01*
X231870095Y-47553523D01*
X231774857Y-47648761D01*
X231632000Y-47696380D01*
X231393904Y-47696380D01*
X227544333Y-47696380D02*
X227211000Y-47220190D01*
X226972904Y-47696380D02*
X226972904Y-46696380D01*
X227353857Y-46696380D01*
X227449095Y-46744000D01*
X227496714Y-46791619D01*
X227544333Y-46886857D01*
X227544333Y-47029714D01*
X227496714Y-47124952D01*
X227449095Y-47172571D01*
X227353857Y-47220190D01*
X226972904Y-47220190D01*
X227877666Y-46696380D02*
X228544333Y-47696380D01*
X228544333Y-46696380D02*
X227877666Y-47696380D01*
X224409095Y-46696380D02*
X224980523Y-46696380D01*
X224694809Y-47696380D02*
X224694809Y-46696380D01*
X225218619Y-46696380D02*
X225885285Y-47696380D01*
X225885285Y-46696380D02*
X225218619Y-47696380D01*
X150146476Y-99988666D02*
X150622666Y-99988666D01*
X150051238Y-100274380D02*
X150384571Y-99274380D01*
X150717904Y-100274380D01*
X151479809Y-100274380D02*
X151479809Y-99274380D01*
X151479809Y-100226761D02*
X151384571Y-100274380D01*
X151194095Y-100274380D01*
X151098857Y-100226761D01*
X151051238Y-100179142D01*
X151003619Y-100083904D01*
X151003619Y-99798190D01*
X151051238Y-99702952D01*
X151098857Y-99655333D01*
X151194095Y-99607714D01*
X151384571Y-99607714D01*
X151479809Y-99655333D01*
X152384571Y-100274380D02*
X152384571Y-99274380D01*
X152384571Y-100226761D02*
X152289333Y-100274380D01*
X152098857Y-100274380D01*
X152003619Y-100226761D01*
X151956000Y-100179142D01*
X151908380Y-100083904D01*
X151908380Y-99798190D01*
X151956000Y-99702952D01*
X152003619Y-99655333D01*
X152098857Y-99607714D01*
X152289333Y-99607714D01*
X152384571Y-99655333D01*
X152860761Y-100274380D02*
X152860761Y-99607714D01*
X152860761Y-99798190D02*
X152908380Y-99702952D01*
X152956000Y-99655333D01*
X153051238Y-99607714D01*
X153146476Y-99607714D01*
X153860761Y-100226761D02*
X153765523Y-100274380D01*
X153575047Y-100274380D01*
X153479809Y-100226761D01*
X153432190Y-100131523D01*
X153432190Y-99750571D01*
X153479809Y-99655333D01*
X153575047Y-99607714D01*
X153765523Y-99607714D01*
X153860761Y-99655333D01*
X153908380Y-99750571D01*
X153908380Y-99845809D01*
X153432190Y-99941047D01*
X154289333Y-100226761D02*
X154384571Y-100274380D01*
X154575047Y-100274380D01*
X154670285Y-100226761D01*
X154717904Y-100131523D01*
X154717904Y-100083904D01*
X154670285Y-99988666D01*
X154575047Y-99941047D01*
X154432190Y-99941047D01*
X154336952Y-99893428D01*
X154289333Y-99798190D01*
X154289333Y-99750571D01*
X154336952Y-99655333D01*
X154432190Y-99607714D01*
X154575047Y-99607714D01*
X154670285Y-99655333D01*
X155098857Y-100226761D02*
X155194095Y-100274380D01*
X155384571Y-100274380D01*
X155479809Y-100226761D01*
X155527428Y-100131523D01*
X155527428Y-100083904D01*
X155479809Y-99988666D01*
X155384571Y-99941047D01*
X155241714Y-99941047D01*
X155146476Y-99893428D01*
X155098857Y-99798190D01*
X155098857Y-99750571D01*
X155146476Y-99655333D01*
X155241714Y-99607714D01*
X155384571Y-99607714D01*
X155479809Y-99655333D01*
X156908380Y-99274380D02*
X157003619Y-99274380D01*
X157098857Y-99322000D01*
X157146476Y-99369619D01*
X157194095Y-99464857D01*
X157241714Y-99655333D01*
X157241714Y-99893428D01*
X157194095Y-100083904D01*
X157146476Y-100179142D01*
X157098857Y-100226761D01*
X157003619Y-100274380D01*
X156908380Y-100274380D01*
X156813142Y-100226761D01*
X156765523Y-100179142D01*
X156717904Y-100083904D01*
X156670285Y-99893428D01*
X156670285Y-99655333D01*
X156717904Y-99464857D01*
X156765523Y-99369619D01*
X156813142Y-99322000D01*
X156908380Y-99274380D01*
X157575047Y-100274380D02*
X158098857Y-99607714D01*
X157575047Y-99607714D02*
X158098857Y-100274380D01*
X158432190Y-99988666D02*
X158908380Y-99988666D01*
X158336952Y-100274380D02*
X158670285Y-99274380D01*
X159003619Y-100274380D01*
X159527428Y-99274380D02*
X159622666Y-99274380D01*
X159717904Y-99322000D01*
X159765523Y-99369619D01*
X159813142Y-99464857D01*
X159860761Y-99655333D01*
X159860761Y-99893428D01*
X159813142Y-100083904D01*
X159765523Y-100179142D01*
X159717904Y-100226761D01*
X159622666Y-100274380D01*
X159527428Y-100274380D01*
X159432190Y-100226761D01*
X159384571Y-100179142D01*
X159336952Y-100083904D01*
X159289333Y-99893428D01*
X159289333Y-99655333D01*
X159336952Y-99464857D01*
X159384571Y-99369619D01*
X159432190Y-99322000D01*
X159527428Y-99274380D01*
X160479809Y-99274380D02*
X160575047Y-99274380D01*
X160670285Y-99322000D01*
X160717904Y-99369619D01*
X160765523Y-99464857D01*
X160813142Y-99655333D01*
X160813142Y-99893428D01*
X160765523Y-100083904D01*
X160717904Y-100179142D01*
X160670285Y-100226761D01*
X160575047Y-100274380D01*
X160479809Y-100274380D01*
X160384571Y-100226761D01*
X160336952Y-100179142D01*
X160289333Y-100083904D01*
X160241714Y-99893428D01*
X160241714Y-99655333D01*
X160289333Y-99464857D01*
X160336952Y-99369619D01*
X160384571Y-99322000D01*
X160479809Y-99274380D01*
X161432190Y-99274380D02*
X161527428Y-99274380D01*
X161622666Y-99322000D01*
X161670285Y-99369619D01*
X161717904Y-99464857D01*
X161765523Y-99655333D01*
X161765523Y-99893428D01*
X161717904Y-100083904D01*
X161670285Y-100179142D01*
X161622666Y-100226761D01*
X161527428Y-100274380D01*
X161432190Y-100274380D01*
X161336952Y-100226761D01*
X161289333Y-100179142D01*
X161241714Y-100083904D01*
X161194095Y-99893428D01*
X161194095Y-99655333D01*
X161241714Y-99464857D01*
X161289333Y-99369619D01*
X161336952Y-99322000D01*
X161432190Y-99274380D01*
X156829857Y-63793666D02*
X157306047Y-63793666D01*
X156734619Y-64079380D02*
X157067952Y-63079380D01*
X157401285Y-64079380D01*
X158163190Y-64079380D02*
X158163190Y-63079380D01*
X158163190Y-64031761D02*
X158067952Y-64079380D01*
X157877476Y-64079380D01*
X157782238Y-64031761D01*
X157734619Y-63984142D01*
X157687000Y-63888904D01*
X157687000Y-63603190D01*
X157734619Y-63507952D01*
X157782238Y-63460333D01*
X157877476Y-63412714D01*
X158067952Y-63412714D01*
X158163190Y-63460333D01*
X159067952Y-64079380D02*
X159067952Y-63079380D01*
X159067952Y-64031761D02*
X158972714Y-64079380D01*
X158782238Y-64079380D01*
X158687000Y-64031761D01*
X158639380Y-63984142D01*
X158591761Y-63888904D01*
X158591761Y-63603190D01*
X158639380Y-63507952D01*
X158687000Y-63460333D01*
X158782238Y-63412714D01*
X158972714Y-63412714D01*
X159067952Y-63460333D01*
X159544142Y-64079380D02*
X159544142Y-63412714D01*
X159544142Y-63603190D02*
X159591761Y-63507952D01*
X159639380Y-63460333D01*
X159734619Y-63412714D01*
X159829857Y-63412714D01*
X160544142Y-64031761D02*
X160448904Y-64079380D01*
X160258428Y-64079380D01*
X160163190Y-64031761D01*
X160115571Y-63936523D01*
X160115571Y-63555571D01*
X160163190Y-63460333D01*
X160258428Y-63412714D01*
X160448904Y-63412714D01*
X160544142Y-63460333D01*
X160591761Y-63555571D01*
X160591761Y-63650809D01*
X160115571Y-63746047D01*
X160972714Y-64031761D02*
X161067952Y-64079380D01*
X161258428Y-64079380D01*
X161353666Y-64031761D01*
X161401285Y-63936523D01*
X161401285Y-63888904D01*
X161353666Y-63793666D01*
X161258428Y-63746047D01*
X161115571Y-63746047D01*
X161020333Y-63698428D01*
X160972714Y-63603190D01*
X160972714Y-63555571D01*
X161020333Y-63460333D01*
X161115571Y-63412714D01*
X161258428Y-63412714D01*
X161353666Y-63460333D01*
X161782238Y-64031761D02*
X161877476Y-64079380D01*
X162067952Y-64079380D01*
X162163190Y-64031761D01*
X162210809Y-63936523D01*
X162210809Y-63888904D01*
X162163190Y-63793666D01*
X162067952Y-63746047D01*
X161925095Y-63746047D01*
X161829857Y-63698428D01*
X161782238Y-63603190D01*
X161782238Y-63555571D01*
X161829857Y-63460333D01*
X161925095Y-63412714D01*
X162067952Y-63412714D01*
X162163190Y-63460333D01*
X163591761Y-63079380D02*
X163687000Y-63079380D01*
X163782238Y-63127000D01*
X163829857Y-63174619D01*
X163877476Y-63269857D01*
X163925095Y-63460333D01*
X163925095Y-63698428D01*
X163877476Y-63888904D01*
X163829857Y-63984142D01*
X163782238Y-64031761D01*
X163687000Y-64079380D01*
X163591761Y-64079380D01*
X163496523Y-64031761D01*
X163448904Y-63984142D01*
X163401285Y-63888904D01*
X163353666Y-63698428D01*
X163353666Y-63460333D01*
X163401285Y-63269857D01*
X163448904Y-63174619D01*
X163496523Y-63127000D01*
X163591761Y-63079380D01*
X164258428Y-64079380D02*
X164782238Y-63412714D01*
X164258428Y-63412714D02*
X164782238Y-64079380D01*
X165306047Y-63507952D02*
X165210809Y-63460333D01*
X165163190Y-63412714D01*
X165115571Y-63317476D01*
X165115571Y-63269857D01*
X165163190Y-63174619D01*
X165210809Y-63127000D01*
X165306047Y-63079380D01*
X165496523Y-63079380D01*
X165591761Y-63127000D01*
X165639380Y-63174619D01*
X165687000Y-63269857D01*
X165687000Y-63317476D01*
X165639380Y-63412714D01*
X165591761Y-63460333D01*
X165496523Y-63507952D01*
X165306047Y-63507952D01*
X165210809Y-63555571D01*
X165163190Y-63603190D01*
X165115571Y-63698428D01*
X165115571Y-63888904D01*
X165163190Y-63984142D01*
X165210809Y-64031761D01*
X165306047Y-64079380D01*
X165496523Y-64079380D01*
X165591761Y-64031761D01*
X165639380Y-63984142D01*
X165687000Y-63888904D01*
X165687000Y-63698428D01*
X165639380Y-63603190D01*
X165591761Y-63555571D01*
X165496523Y-63507952D01*
X166306047Y-63079380D02*
X166401285Y-63079380D01*
X166496523Y-63127000D01*
X166544142Y-63174619D01*
X166591761Y-63269857D01*
X166639380Y-63460333D01*
X166639380Y-63698428D01*
X166591761Y-63888904D01*
X166544142Y-63984142D01*
X166496523Y-64031761D01*
X166401285Y-64079380D01*
X166306047Y-64079380D01*
X166210809Y-64031761D01*
X166163190Y-63984142D01*
X166115571Y-63888904D01*
X166067952Y-63698428D01*
X166067952Y-63460333D01*
X166115571Y-63269857D01*
X166163190Y-63174619D01*
X166210809Y-63127000D01*
X166306047Y-63079380D01*
X167258428Y-63079380D02*
X167353666Y-63079380D01*
X167448904Y-63127000D01*
X167496523Y-63174619D01*
X167544142Y-63269857D01*
X167591761Y-63460333D01*
X167591761Y-63698428D01*
X167544142Y-63888904D01*
X167496523Y-63984142D01*
X167448904Y-64031761D01*
X167353666Y-64079380D01*
X167258428Y-64079380D01*
X167163190Y-64031761D01*
X167115571Y-63984142D01*
X167067952Y-63888904D01*
X167020333Y-63698428D01*
X167020333Y-63460333D01*
X167067952Y-63269857D01*
X167115571Y-63174619D01*
X167163190Y-63127000D01*
X167258428Y-63079380D01*
X168210809Y-63079380D02*
X168306047Y-63079380D01*
X168401285Y-63127000D01*
X168448904Y-63174619D01*
X168496523Y-63269857D01*
X168544142Y-63460333D01*
X168544142Y-63698428D01*
X168496523Y-63888904D01*
X168448904Y-63984142D01*
X168401285Y-64031761D01*
X168306047Y-64079380D01*
X168210809Y-64079380D01*
X168115571Y-64031761D01*
X168067952Y-63984142D01*
X168020333Y-63888904D01*
X167972714Y-63698428D01*
X167972714Y-63460333D01*
X168020333Y-63269857D01*
X168067952Y-63174619D01*
X168115571Y-63127000D01*
X168210809Y-63079380D01*
X84582142Y-57856380D02*
X84010714Y-57856380D01*
X84296428Y-57856380D02*
X84296428Y-56856380D01*
X84201190Y-56999238D01*
X84105952Y-57094476D01*
X84010714Y-57142095D01*
X85010714Y-57856380D02*
X85010714Y-56856380D01*
X85344047Y-57570666D01*
X85677380Y-56856380D01*
X85677380Y-57856380D01*
X86153571Y-57856380D02*
X86153571Y-56856380D01*
X86582142Y-57856380D02*
X86582142Y-57332571D01*
X86534523Y-57237333D01*
X86439285Y-57189714D01*
X86296428Y-57189714D01*
X86201190Y-57237333D01*
X86153571Y-57284952D01*
X86963095Y-57189714D02*
X87486904Y-57189714D01*
X86963095Y-57856380D01*
X87486904Y-57856380D01*
D11*
X151178000Y-109096000D02*
X210138000Y-109096000D01*
X151178000Y-109096000D02*
X151178000Y-118446000D01*
X178408000Y-109096000D02*
X178408000Y-118446000D01*
X182908000Y-109096000D02*
X182908000Y-118446000D01*
X210138000Y-109096000D02*
X210138000Y-118446000D01*
X210138000Y-118446000D02*
X151178000Y-118446000D01*
X206058000Y-104966000D02*
X206058000Y-103696000D01*
X206058000Y-103696000D02*
X204788000Y-103696000D01*
X231394000Y-76287500D02*
X231394000Y-77057500D01*
X231394000Y-84367500D02*
X231394000Y-83597500D01*
X230024000Y-77057500D02*
X230024000Y-83597500D01*
X232764000Y-77057500D02*
X230024000Y-77057500D01*
X232764000Y-83597500D02*
X232764000Y-77057500D01*
X230024000Y-83597500D02*
X232764000Y-83597500D01*
X194525000Y-97099000D02*
X194510000Y-97099000D01*
X196650000Y-97099000D02*
X196635000Y-97099000D01*
X194525000Y-92559000D02*
X194510000Y-92559000D01*
X196650000Y-92559000D02*
X196635000Y-92559000D01*
X194510000Y-92559000D02*
X194510000Y-97099000D01*
X196650000Y-92559000D02*
X196650000Y-97099000D01*
X199270000Y-80221000D02*
X199270000Y-90721000D01*
X217290000Y-80221000D02*
X199270000Y-80221000D01*
X217290000Y-90721000D02*
X217290000Y-80221000D01*
X199270000Y-90721000D02*
X217290000Y-90721000D01*
X199330000Y-83221000D02*
X199330000Y-84471000D01*
X217230000Y-83221000D02*
X199330000Y-83221000D01*
X217230000Y-87721000D02*
X217230000Y-83221000D01*
X199330000Y-87721000D02*
X217230000Y-87721000D01*
X199330000Y-86471000D02*
X199330000Y-87721000D01*
X199330000Y-84471000D02*
G75*
G02X199330000Y-86471000I0J-1000000D01*
G01*
X168596000Y-68489000D02*
X168596000Y-69739000D01*
X186496000Y-68489000D02*
X168596000Y-68489000D01*
X186496000Y-72989000D02*
X186496000Y-68489000D01*
X168596000Y-72989000D02*
X186496000Y-72989000D01*
X168596000Y-71739000D02*
X168596000Y-72989000D01*
X168596000Y-69739000D02*
G75*
G02X168596000Y-71739000I0J-1000000D01*
G01*
X101092000Y-61973000D02*
X101092000Y-64773000D01*
X116502000Y-61973000D02*
X98382000Y-61973000D01*
X116502000Y-64773000D02*
X116502000Y-61973000D01*
X98382000Y-64773000D02*
X116502000Y-64773000D01*
X98382000Y-61973000D02*
X98382000Y-64773000D01*
X201954000Y-93091000D02*
X202724000Y-93091000D01*
X210034000Y-93091000D02*
X209264000Y-93091000D01*
X202724000Y-94461000D02*
X209264000Y-94461000D01*
X202724000Y-91721000D02*
X202724000Y-94461000D01*
X209264000Y-91721000D02*
X202724000Y-91721000D01*
X209264000Y-94461000D02*
X209264000Y-91721000D01*
X201954000Y-96647000D02*
X202724000Y-96647000D01*
X210034000Y-96647000D02*
X209264000Y-96647000D01*
X202724000Y-98017000D02*
X209264000Y-98017000D01*
X202724000Y-95277000D02*
X202724000Y-98017000D01*
X209264000Y-95277000D02*
X202724000Y-95277000D01*
X209264000Y-98017000D02*
X209264000Y-95277000D01*
X203986000Y-78105000D02*
X204756000Y-78105000D01*
X212066000Y-78105000D02*
X211296000Y-78105000D01*
X204756000Y-79475000D02*
X211296000Y-79475000D01*
X204756000Y-76735000D02*
X204756000Y-79475000D01*
X211296000Y-76735000D02*
X204756000Y-76735000D01*
X211296000Y-79475000D02*
X211296000Y-76735000D01*
X203986000Y-50673000D02*
X204756000Y-50673000D01*
X212066000Y-50673000D02*
X211296000Y-50673000D01*
X204756000Y-52043000D02*
X211296000Y-52043000D01*
X204756000Y-49303000D02*
X204756000Y-52043000D01*
X211296000Y-49303000D02*
X204756000Y-49303000D01*
X211296000Y-52043000D02*
X211296000Y-49303000D01*
X214570000Y-45145000D02*
X214570000Y-43815000D01*
X215900000Y-45145000D02*
X214570000Y-45145000D01*
X217170000Y-45145000D02*
X217170000Y-42485000D01*
X217170000Y-42485000D02*
X219770000Y-42485000D01*
X217170000Y-45145000D02*
X219770000Y-45145000D01*
X219770000Y-45145000D02*
X219770000Y-42485000D01*
X231962000Y-49343000D02*
X231962000Y-50673000D01*
X230632000Y-49343000D02*
X231962000Y-49343000D01*
X229362000Y-49343000D02*
X229362000Y-52003000D01*
X229362000Y-52003000D02*
X226762000Y-52003000D01*
X229362000Y-49343000D02*
X226762000Y-49343000D01*
X226762000Y-49343000D02*
X226762000Y-52003000D01*
X215750000Y-94873000D02*
X213510000Y-94873000D01*
X215750000Y-95113000D02*
X213510000Y-95113000D01*
X215750000Y-94993000D02*
X213510000Y-94993000D01*
X214630000Y-99163000D02*
X214630000Y-98513000D01*
X214630000Y-93623000D02*
X214630000Y-94273000D01*
X215750000Y-98513000D02*
X215750000Y-94273000D01*
X213510000Y-98513000D02*
X215750000Y-98513000D01*
X213510000Y-94273000D02*
X213510000Y-98513000D01*
X215750000Y-94273000D02*
X213510000Y-94273000D01*
X195128000Y-77050000D02*
X195128000Y-77035000D01*
X195128000Y-79175000D02*
X195128000Y-79160000D01*
X199668000Y-77050000D02*
X199668000Y-77035000D01*
X199668000Y-79175000D02*
X199668000Y-79160000D01*
X199668000Y-77035000D02*
X195128000Y-77035000D01*
X199668000Y-79175000D02*
X195128000Y-79175000D01*
X194210000Y-82145000D02*
X196950000Y-82145000D01*
X194210000Y-89385000D02*
X196950000Y-89385000D01*
X196950000Y-89385000D02*
X196950000Y-82145000D01*
X194210000Y-89385000D02*
X194210000Y-82145000D01*
X207204000Y-45145000D02*
X207204000Y-43815000D01*
X208534000Y-45145000D02*
X207204000Y-45145000D01*
X209804000Y-45145000D02*
X209804000Y-42485000D01*
X209804000Y-42485000D02*
X212404000Y-42485000D01*
X209804000Y-45145000D02*
X212404000Y-45145000D01*
X212404000Y-45145000D02*
X212404000Y-42485000D01*
X218888000Y-100517000D02*
X218888000Y-99187000D01*
X220218000Y-100517000D02*
X218888000Y-100517000D01*
X221488000Y-100517000D02*
X221488000Y-97857000D01*
X221488000Y-97857000D02*
X224088000Y-97857000D01*
X221488000Y-100517000D02*
X224088000Y-100517000D01*
X224088000Y-100517000D02*
X224088000Y-97857000D01*
X97282000Y-101470000D02*
X94742000Y-101470000D01*
X85352000Y-98170000D02*
X87612000Y-98170000D01*
X85352000Y-100450000D02*
X87212000Y-100450000D01*
X85352000Y-77350000D02*
X85352000Y-100450000D01*
X135952000Y-77350000D02*
X85352000Y-77350000D01*
X135952000Y-100450000D02*
X135952000Y-77350000D01*
X92112000Y-100450000D02*
X135952000Y-100450000D01*
X90562000Y-99720000D02*
G75*
G03X90562000Y-99720000I-900000J0D01*
G01*
X92212000Y-99720000D02*
G75*
G03X92212000Y-99720000I-2550000J0D01*
G01*
X85836000Y-109159000D02*
X144796000Y-109159000D01*
X85836000Y-109159000D02*
X85836000Y-118509000D01*
X113066000Y-109159000D02*
X113066000Y-118509000D01*
X117566000Y-109159000D02*
X117566000Y-118509000D01*
X144796000Y-109159000D02*
X144796000Y-118509000D01*
X144796000Y-118509000D02*
X85836000Y-118509000D01*
X140716000Y-105029000D02*
X140716000Y-103759000D01*
X140716000Y-103759000D02*
X139446000Y-103759000D01*
X214884000Y-112117000D02*
X214884000Y-111347000D01*
X214884000Y-104037000D02*
X214884000Y-104807000D01*
X216254000Y-111347000D02*
X216254000Y-104807000D01*
X213514000Y-111347000D02*
X216254000Y-111347000D01*
X213514000Y-104807000D02*
X213514000Y-111347000D01*
X216254000Y-104807000D02*
X213514000Y-104807000D01*
X89755000Y-55591000D02*
G75*
G02X91755000Y-55591000I1000000J0D01*
G01*
X87985000Y-55591000D02*
X89755000Y-55591000D01*
X87985000Y-41991000D02*
X87985000Y-55591000D01*
X93525000Y-41991000D02*
X87985000Y-41991000D01*
X93525000Y-55591000D02*
X93525000Y-41991000D01*
X91755000Y-55591000D02*
X93525000Y-55591000D01*
X218666000Y-103685000D02*
X221266000Y-103685000D01*
X218666000Y-118385000D02*
X218666000Y-103685000D01*
X227866000Y-103685000D02*
X227866000Y-105585000D01*
X225166000Y-103685000D02*
X227866000Y-103685000D01*
X227866000Y-118385000D02*
X218666000Y-118385000D01*
X227866000Y-109585000D02*
X227866000Y-118385000D01*
X218466000Y-104535000D02*
X218466000Y-103485000D01*
X219516000Y-103485000D02*
X218466000Y-103485000D01*
X194504000Y-49851000D02*
X195834000Y-49851000D01*
X194504000Y-51181000D02*
X194504000Y-49851000D01*
X197104000Y-49851000D02*
X199704000Y-49851000D01*
X197104000Y-52451000D02*
X197104000Y-49851000D01*
X194504000Y-52451000D02*
X197104000Y-52451000D01*
X199704000Y-49851000D02*
X199704000Y-60131000D01*
X194504000Y-52451000D02*
X194504000Y-60131000D01*
X194504000Y-60131000D02*
X199704000Y-60131000D01*
X210543000Y-64374000D02*
G75*
G03X210543000Y-59324000I0J2525000D01*
G01*
X204293000Y-64374000D02*
G75*
G02X204293000Y-59324000I0J2525000D01*
G01*
X204293000Y-64374000D02*
X210543000Y-64374000D01*
X204293000Y-59324000D02*
X210543000Y-59324000D01*
X192726000Y-68489000D02*
X192726000Y-69739000D01*
X213166000Y-68489000D02*
X192726000Y-68489000D01*
X213166000Y-72989000D02*
X213166000Y-68489000D01*
X192726000Y-72989000D02*
X213166000Y-72989000D01*
X192726000Y-71739000D02*
X192726000Y-72989000D01*
X192726000Y-69739000D02*
G75*
G02X192726000Y-71739000I0J-1000000D01*
G01*
X157039000Y-47217000D02*
X157039000Y-52277000D01*
X192719000Y-47217000D02*
X157039000Y-47217000D01*
X192719000Y-59337000D02*
X192719000Y-47217000D01*
X157039000Y-59337000D02*
X192719000Y-59337000D01*
X157039000Y-54277000D02*
X157039000Y-59337000D01*
X157039000Y-52277000D02*
G75*
G02X157039000Y-54277000I0J-1000000D01*
G01*
X141866000Y-65692000D02*
X141866000Y-76192000D01*
X162426000Y-65692000D02*
X141866000Y-65692000D01*
X162426000Y-76192000D02*
X162426000Y-65692000D01*
X141866000Y-76192000D02*
X162426000Y-76192000D01*
X141926000Y-68692000D02*
X141926000Y-69942000D01*
X162366000Y-68692000D02*
X141926000Y-68692000D01*
X162366000Y-73192000D02*
X162366000Y-68692000D01*
X141926000Y-73192000D02*
X162366000Y-73192000D01*
X141926000Y-71942000D02*
X141926000Y-73192000D01*
X141926000Y-69942000D02*
G75*
G02X141926000Y-71942000I0J-1000000D01*
G01*
X141231000Y-79840000D02*
X141231000Y-97960000D01*
X192271000Y-79840000D02*
X141231000Y-79840000D01*
X192271000Y-97960000D02*
X192271000Y-79840000D01*
X141231000Y-97960000D02*
X192271000Y-97960000D01*
X141291000Y-82840000D02*
X141291000Y-87900000D01*
X192211000Y-82840000D02*
X141291000Y-82840000D01*
X192211000Y-94960000D02*
X192211000Y-82840000D01*
X141291000Y-94960000D02*
X192211000Y-94960000D01*
X141291000Y-89900000D02*
X141291000Y-94960000D01*
X141291000Y-87900000D02*
G75*
G02X141291000Y-89900000I0J-1000000D01*
G01*
X98305000Y-65464000D02*
X98305000Y-75964000D01*
X134105000Y-65464000D02*
X98305000Y-65464000D01*
X134105000Y-75964000D02*
X134105000Y-65464000D01*
X98305000Y-75964000D02*
X134105000Y-75964000D01*
X98365000Y-68464000D02*
X98365000Y-69714000D01*
X134045000Y-68464000D02*
X98365000Y-68464000D01*
X134045000Y-72964000D02*
X134045000Y-68464000D01*
X98365000Y-72964000D02*
X134045000Y-72964000D01*
X98365000Y-71714000D02*
X98365000Y-72964000D01*
X98365000Y-69714000D02*
G75*
G02X98365000Y-71714000I0J-1000000D01*
G01*
X98305000Y-43374000D02*
X98305000Y-61274000D01*
X149345000Y-43374000D02*
X98305000Y-43374000D01*
X149345000Y-61274000D02*
X149345000Y-43374000D01*
X98305000Y-61274000D02*
X149345000Y-61274000D01*
X98365000Y-45864000D02*
X98365000Y-51324000D01*
X149285000Y-45864000D02*
X98365000Y-45864000D01*
X149285000Y-58784000D02*
X149285000Y-45864000D01*
X98365000Y-58784000D02*
X149285000Y-58784000D01*
X98365000Y-53324000D02*
X98365000Y-58784000D01*
X98365000Y-51324000D02*
G75*
G02X98365000Y-53324000I0J-1000000D01*
G01*
X215646000Y-61619000D02*
X215646000Y-62389000D01*
X215646000Y-69699000D02*
X215646000Y-68929000D01*
X214276000Y-62389000D02*
X214276000Y-68929000D01*
X217016000Y-62389000D02*
X214276000Y-62389000D01*
X217016000Y-68929000D02*
X217016000Y-62389000D01*
X214276000Y-68929000D02*
X217016000Y-68929000D01*
X189714000Y-77851000D02*
X188944000Y-77851000D01*
X181634000Y-77851000D02*
X182404000Y-77851000D01*
X188944000Y-76481000D02*
X182404000Y-76481000D01*
X188944000Y-79221000D02*
X188944000Y-76481000D01*
X182404000Y-79221000D02*
X188944000Y-79221000D01*
X182404000Y-76481000D02*
X182404000Y-79221000D01*
X221682000Y-45145000D02*
X221682000Y-43815000D01*
X223012000Y-45145000D02*
X221682000Y-45145000D01*
X224282000Y-45145000D02*
X224282000Y-42485000D01*
X224282000Y-42485000D02*
X231962000Y-42485000D01*
X224282000Y-45145000D02*
X231962000Y-45145000D01*
X231962000Y-45145000D02*
X231962000Y-42485000D01*
X194885000Y-42485000D02*
X196215000Y-42485000D01*
X194885000Y-43815000D02*
X194885000Y-42485000D01*
X194885000Y-45085000D02*
X197545000Y-45085000D01*
X197545000Y-45085000D02*
X197545000Y-47685000D01*
X194885000Y-45085000D02*
X194885000Y-47685000D01*
X194885000Y-47685000D02*
X197545000Y-47685000D01*
X198822000Y-42485000D02*
X200152000Y-42485000D01*
X198822000Y-43815000D02*
X198822000Y-42485000D01*
X198822000Y-45085000D02*
X201482000Y-45085000D01*
X201482000Y-45085000D02*
X201482000Y-47685000D01*
X198822000Y-45085000D02*
X198822000Y-47685000D01*
X198822000Y-47685000D02*
X201482000Y-47685000D01*
X202886000Y-42485000D02*
X204216000Y-42485000D01*
X202886000Y-43815000D02*
X202886000Y-42485000D01*
X202886000Y-45085000D02*
X205546000Y-45085000D01*
X205546000Y-45085000D02*
X205546000Y-47685000D01*
X202886000Y-45085000D02*
X202886000Y-47685000D01*
X202886000Y-47685000D02*
X205546000Y-47685000D01*
X210796000Y-56869000D02*
X210796000Y-54129000D01*
X218036000Y-56869000D02*
X218036000Y-54129000D01*
X218036000Y-54129000D02*
X210796000Y-54129000D01*
X218036000Y-56869000D02*
X210796000Y-56869000D01*
X209066000Y-54129000D02*
X209066000Y-56869000D01*
X201826000Y-54129000D02*
X201826000Y-56869000D01*
X201826000Y-56869000D02*
X209066000Y-56869000D01*
X201826000Y-54129000D02*
X209066000Y-54129000D01*
X230317646Y-94688000D02*
X230317646Y-93688000D01*
X230817646Y-94188000D02*
X229817646Y-94188000D01*
X220257000Y-91912000D02*
X220257000Y-90714000D01*
X220297000Y-92175000D02*
X220297000Y-90451000D01*
X220337000Y-92375000D02*
X220337000Y-90251000D01*
X220377000Y-92543000D02*
X220377000Y-90083000D01*
X220417000Y-92691000D02*
X220417000Y-89935000D01*
X220457000Y-92823000D02*
X220457000Y-89803000D01*
X220497000Y-92943000D02*
X220497000Y-89683000D01*
X220537000Y-93055000D02*
X220537000Y-89571000D01*
X220577000Y-93159000D02*
X220577000Y-89467000D01*
X220617000Y-93257000D02*
X220617000Y-89369000D01*
X220657000Y-93350000D02*
X220657000Y-89276000D01*
X220697000Y-93438000D02*
X220697000Y-89188000D01*
X220737000Y-93522000D02*
X220737000Y-89104000D01*
X220777000Y-93602000D02*
X220777000Y-89024000D01*
X220817000Y-93678000D02*
X220817000Y-88948000D01*
X220857000Y-93752000D02*
X220857000Y-88874000D01*
X220897000Y-93823000D02*
X220897000Y-88803000D01*
X220937000Y-93892000D02*
X220937000Y-88734000D01*
X220977000Y-93958000D02*
X220977000Y-88668000D01*
X221017000Y-94022000D02*
X221017000Y-88604000D01*
X221057000Y-94083000D02*
X221057000Y-88543000D01*
X221097000Y-94143000D02*
X221097000Y-88483000D01*
X221137000Y-94202000D02*
X221137000Y-88424000D01*
X221177000Y-94258000D02*
X221177000Y-88368000D01*
X221217000Y-94313000D02*
X221217000Y-88313000D01*
X221257000Y-94367000D02*
X221257000Y-88259000D01*
X221297000Y-94419000D02*
X221297000Y-88207000D01*
X221337000Y-94469000D02*
X221337000Y-88157000D01*
X221377000Y-94519000D02*
X221377000Y-88107000D01*
X221417000Y-94567000D02*
X221417000Y-88059000D01*
X221457000Y-94614000D02*
X221457000Y-88012000D01*
X221497000Y-94660000D02*
X221497000Y-87966000D01*
X221537000Y-94705000D02*
X221537000Y-87921000D01*
X221577000Y-94749000D02*
X221577000Y-87877000D01*
X221617000Y-90072000D02*
X221617000Y-87835000D01*
X221617000Y-94791000D02*
X221617000Y-92554000D01*
X221657000Y-90072000D02*
X221657000Y-87793000D01*
X221657000Y-94833000D02*
X221657000Y-92554000D01*
X221697000Y-90072000D02*
X221697000Y-87752000D01*
X221697000Y-94874000D02*
X221697000Y-92554000D01*
X221737000Y-90072000D02*
X221737000Y-87712000D01*
X221737000Y-94914000D02*
X221737000Y-92554000D01*
X221777000Y-90072000D02*
X221777000Y-87673000D01*
X221777000Y-94953000D02*
X221777000Y-92554000D01*
X221817000Y-90072000D02*
X221817000Y-87634000D01*
X221817000Y-94992000D02*
X221817000Y-92554000D01*
X221857000Y-90072000D02*
X221857000Y-87597000D01*
X221857000Y-95029000D02*
X221857000Y-92554000D01*
X221897000Y-90072000D02*
X221897000Y-87560000D01*
X221897000Y-95066000D02*
X221897000Y-92554000D01*
X221937000Y-90072000D02*
X221937000Y-87524000D01*
X221937000Y-95102000D02*
X221937000Y-92554000D01*
X221977000Y-90072000D02*
X221977000Y-87489000D01*
X221977000Y-95137000D02*
X221977000Y-92554000D01*
X222017000Y-90072000D02*
X222017000Y-87455000D01*
X222017000Y-95171000D02*
X222017000Y-92554000D01*
X222057000Y-90072000D02*
X222057000Y-87421000D01*
X222057000Y-95205000D02*
X222057000Y-92554000D01*
X222097000Y-90072000D02*
X222097000Y-87388000D01*
X222097000Y-95238000D02*
X222097000Y-92554000D01*
X222137000Y-90072000D02*
X222137000Y-87356000D01*
X222137000Y-95270000D02*
X222137000Y-92554000D01*
X222177000Y-90072000D02*
X222177000Y-87324000D01*
X222177000Y-95302000D02*
X222177000Y-92554000D01*
X222217000Y-90072000D02*
X222217000Y-87293000D01*
X222217000Y-95333000D02*
X222217000Y-92554000D01*
X222257000Y-90072000D02*
X222257000Y-87263000D01*
X222257000Y-95363000D02*
X222257000Y-92554000D01*
X222297000Y-90072000D02*
X222297000Y-87233000D01*
X222297000Y-95393000D02*
X222297000Y-92554000D01*
X222337000Y-90072000D02*
X222337000Y-87203000D01*
X222337000Y-95423000D02*
X222337000Y-92554000D01*
X222377000Y-90072000D02*
X222377000Y-87175000D01*
X222377000Y-95451000D02*
X222377000Y-92554000D01*
X222417000Y-90072000D02*
X222417000Y-87147000D01*
X222417000Y-95479000D02*
X222417000Y-92554000D01*
X222457000Y-90072000D02*
X222457000Y-87119000D01*
X222457000Y-95507000D02*
X222457000Y-92554000D01*
X222497000Y-90072000D02*
X222497000Y-87092000D01*
X222497000Y-95534000D02*
X222497000Y-92554000D01*
X222537000Y-90072000D02*
X222537000Y-87066000D01*
X222537000Y-95560000D02*
X222537000Y-92554000D01*
X222577000Y-90072000D02*
X222577000Y-87040000D01*
X222577000Y-95586000D02*
X222577000Y-92554000D01*
X222617000Y-90072000D02*
X222617000Y-87015000D01*
X222617000Y-95611000D02*
X222617000Y-92554000D01*
X222657000Y-90072000D02*
X222657000Y-86990000D01*
X222657000Y-95636000D02*
X222657000Y-92554000D01*
X222697000Y-90072000D02*
X222697000Y-86966000D01*
X222697000Y-95660000D02*
X222697000Y-92554000D01*
X222737000Y-90072000D02*
X222737000Y-86942000D01*
X222737000Y-95684000D02*
X222737000Y-92554000D01*
X222777000Y-90072000D02*
X222777000Y-86918000D01*
X222777000Y-95708000D02*
X222777000Y-92554000D01*
X222817000Y-90072000D02*
X222817000Y-86896000D01*
X222817000Y-95730000D02*
X222817000Y-92554000D01*
X222857000Y-90072000D02*
X222857000Y-86873000D01*
X222857000Y-95753000D02*
X222857000Y-92554000D01*
X222897000Y-90072000D02*
X222897000Y-86851000D01*
X222897000Y-95775000D02*
X222897000Y-92554000D01*
X222937000Y-90072000D02*
X222937000Y-86830000D01*
X222937000Y-95796000D02*
X222937000Y-92554000D01*
X222977000Y-90072000D02*
X222977000Y-86809000D01*
X222977000Y-95817000D02*
X222977000Y-92554000D01*
X223017000Y-90072000D02*
X223017000Y-86788000D01*
X223017000Y-95838000D02*
X223017000Y-92554000D01*
X223057000Y-90072000D02*
X223057000Y-86768000D01*
X223057000Y-95858000D02*
X223057000Y-92554000D01*
X223097000Y-90072000D02*
X223097000Y-86749000D01*
X223097000Y-95877000D02*
X223097000Y-92554000D01*
X223137000Y-90072000D02*
X223137000Y-86729000D01*
X223137000Y-95897000D02*
X223137000Y-92554000D01*
X223177000Y-90072000D02*
X223177000Y-86710000D01*
X223177000Y-95916000D02*
X223177000Y-92554000D01*
X223217000Y-90072000D02*
X223217000Y-86692000D01*
X223217000Y-95934000D02*
X223217000Y-92554000D01*
X223257000Y-90072000D02*
X223257000Y-86674000D01*
X223257000Y-95952000D02*
X223257000Y-92554000D01*
X223297000Y-90072000D02*
X223297000Y-86656000D01*
X223297000Y-95970000D02*
X223297000Y-92554000D01*
X223337000Y-90072000D02*
X223337000Y-86639000D01*
X223337000Y-95987000D02*
X223337000Y-92554000D01*
X223377000Y-90072000D02*
X223377000Y-86623000D01*
X223377000Y-96003000D02*
X223377000Y-92554000D01*
X223417000Y-90072000D02*
X223417000Y-86606000D01*
X223417000Y-96020000D02*
X223417000Y-92554000D01*
X223457000Y-90072000D02*
X223457000Y-86590000D01*
X223457000Y-96036000D02*
X223457000Y-92554000D01*
X223497000Y-90072000D02*
X223497000Y-86575000D01*
X223497000Y-96051000D02*
X223497000Y-92554000D01*
X223537000Y-90072000D02*
X223537000Y-86559000D01*
X223537000Y-96067000D02*
X223537000Y-92554000D01*
X223577000Y-90072000D02*
X223577000Y-86545000D01*
X223577000Y-96081000D02*
X223577000Y-92554000D01*
X223617000Y-90072000D02*
X223617000Y-86530000D01*
X223617000Y-96096000D02*
X223617000Y-92554000D01*
X223657000Y-90072000D02*
X223657000Y-86516000D01*
X223657000Y-96110000D02*
X223657000Y-92554000D01*
X223697000Y-90072000D02*
X223697000Y-86502000D01*
X223697000Y-96124000D02*
X223697000Y-92554000D01*
X223737000Y-90072000D02*
X223737000Y-86489000D01*
X223737000Y-96137000D02*
X223737000Y-92554000D01*
X223777000Y-90072000D02*
X223777000Y-86476000D01*
X223777000Y-96150000D02*
X223777000Y-92554000D01*
X223817000Y-90072000D02*
X223817000Y-86463000D01*
X223817000Y-96163000D02*
X223817000Y-92554000D01*
X223857000Y-90072000D02*
X223857000Y-86451000D01*
X223857000Y-96175000D02*
X223857000Y-92554000D01*
X223897000Y-90072000D02*
X223897000Y-86439000D01*
X223897000Y-96187000D02*
X223897000Y-92554000D01*
X223937000Y-90072000D02*
X223937000Y-86428000D01*
X223937000Y-96198000D02*
X223937000Y-92554000D01*
X223977000Y-90072000D02*
X223977000Y-86416000D01*
X223977000Y-96210000D02*
X223977000Y-92554000D01*
X224017000Y-90072000D02*
X224017000Y-86406000D01*
X224017000Y-96220000D02*
X224017000Y-92554000D01*
X224057000Y-90072000D02*
X224057000Y-86395000D01*
X224057000Y-96231000D02*
X224057000Y-92554000D01*
X224097000Y-96241000D02*
X224097000Y-86385000D01*
X224137000Y-96251000D02*
X224137000Y-86375000D01*
X224177000Y-96260000D02*
X224177000Y-86366000D01*
X224217000Y-96269000D02*
X224217000Y-86357000D01*
X224257000Y-96278000D02*
X224257000Y-86348000D01*
X224297000Y-96287000D02*
X224297000Y-86339000D01*
X224337000Y-96295000D02*
X224337000Y-86331000D01*
X224377000Y-96303000D02*
X224377000Y-86323000D01*
X224417000Y-96310000D02*
X224417000Y-86316000D01*
X224457000Y-96317000D02*
X224457000Y-86309000D01*
X224497000Y-96324000D02*
X224497000Y-86302000D01*
X224537000Y-96331000D02*
X224537000Y-86295000D01*
X224577000Y-96337000D02*
X224577000Y-86289000D01*
X224617000Y-96343000D02*
X224617000Y-86283000D01*
X224658000Y-96348000D02*
X224658000Y-86278000D01*
X224698000Y-96353000D02*
X224698000Y-86273000D01*
X224738000Y-96358000D02*
X224738000Y-86268000D01*
X224778000Y-96363000D02*
X224778000Y-86263000D01*
X224818000Y-96367000D02*
X224818000Y-86259000D01*
X224858000Y-96371000D02*
X224858000Y-86255000D01*
X224898000Y-96375000D02*
X224898000Y-86251000D01*
X224938000Y-96378000D02*
X224938000Y-86248000D01*
X224978000Y-96381000D02*
X224978000Y-86245000D01*
X225018000Y-96383000D02*
X225018000Y-86243000D01*
X225058000Y-96386000D02*
X225058000Y-86240000D01*
X225098000Y-96388000D02*
X225098000Y-86238000D01*
X225138000Y-96390000D02*
X225138000Y-86236000D01*
X225178000Y-96391000D02*
X225178000Y-86235000D01*
X225218000Y-96392000D02*
X225218000Y-86234000D01*
X225258000Y-96393000D02*
X225258000Y-86233000D01*
X225298000Y-96393000D02*
X225298000Y-86233000D01*
X225338000Y-96393000D02*
X225338000Y-86233000D01*
X230458000Y-91313000D02*
G75*
G03X230458000Y-91313000I-5120000J0D01*
G01*
X188876000Y-67079000D02*
X191616000Y-67079000D01*
X188876000Y-74319000D02*
X191616000Y-74319000D01*
X191616000Y-74319000D02*
X191616000Y-67079000D01*
X188876000Y-74319000D02*
X188876000Y-67079000D01*
X156056000Y-56793000D02*
X153316000Y-56793000D01*
X156056000Y-49553000D02*
X153316000Y-49553000D01*
X153316000Y-49553000D02*
X153316000Y-56793000D01*
X156056000Y-49553000D02*
X156056000Y-56793000D01*
X92988000Y-73687000D02*
X92988000Y-76427000D01*
X85748000Y-73687000D02*
X85748000Y-76427000D01*
X85748000Y-76427000D02*
X92988000Y-76427000D01*
X85748000Y-73687000D02*
X92988000Y-73687000D01*
X140816000Y-74573000D02*
X138076000Y-74573000D01*
X140816000Y-67333000D02*
X138076000Y-67333000D01*
X138076000Y-67333000D02*
X138076000Y-74573000D01*
X140816000Y-67333000D02*
X140816000Y-74573000D01*
X140435000Y-92734000D02*
X137695000Y-92734000D01*
X140435000Y-85494000D02*
X137695000Y-85494000D01*
X137695000Y-85494000D02*
X137695000Y-92734000D01*
X140435000Y-85494000D02*
X140435000Y-92734000D01*
X96874000Y-74319000D02*
X94134000Y-74319000D01*
X96874000Y-67079000D02*
X94134000Y-67079000D01*
X94134000Y-67079000D02*
X94134000Y-74319000D01*
X96874000Y-67079000D02*
X96874000Y-74319000D01*
X93626000Y-58269000D02*
X96366000Y-58269000D01*
X93626000Y-65509000D02*
X96366000Y-65509000D01*
X96366000Y-65509000D02*
X96366000Y-58269000D01*
X93626000Y-65509000D02*
X93626000Y-58269000D01*
X167486000Y-74700000D02*
X164746000Y-74700000D01*
X167486000Y-67460000D02*
X164746000Y-67460000D01*
X164746000Y-67460000D02*
X164746000Y-74700000D01*
X167486000Y-67460000D02*
X167486000Y-74700000D01*
D10*
X210590380Y-111404333D02*
X211304666Y-111404333D01*
X211447523Y-111451952D01*
X211542761Y-111547190D01*
X211590380Y-111690047D01*
X211590380Y-111785285D01*
X211590380Y-110404333D02*
X211590380Y-110975761D01*
X211590380Y-110690047D02*
X210590380Y-110690047D01*
X210733238Y-110785285D01*
X210828476Y-110880523D01*
X210876095Y-110975761D01*
X151512142Y-101878380D02*
X151512142Y-102687904D01*
X151559761Y-102783142D01*
X151607380Y-102830761D01*
X151702619Y-102878380D01*
X151893095Y-102878380D01*
X151988333Y-102830761D01*
X152035952Y-102783142D01*
X152083571Y-102687904D01*
X152083571Y-101878380D01*
X152512142Y-102830761D02*
X152607380Y-102878380D01*
X152797857Y-102878380D01*
X152893095Y-102830761D01*
X152940714Y-102735523D01*
X152940714Y-102687904D01*
X152893095Y-102592666D01*
X152797857Y-102545047D01*
X152655000Y-102545047D01*
X152559761Y-102497428D01*
X152512142Y-102402190D01*
X152512142Y-102354571D01*
X152559761Y-102259333D01*
X152655000Y-102211714D01*
X152797857Y-102211714D01*
X152893095Y-102259333D01*
X153750238Y-102830761D02*
X153655000Y-102878380D01*
X153464523Y-102878380D01*
X153369285Y-102830761D01*
X153321666Y-102735523D01*
X153321666Y-102354571D01*
X153369285Y-102259333D01*
X153464523Y-102211714D01*
X153655000Y-102211714D01*
X153750238Y-102259333D01*
X153797857Y-102354571D01*
X153797857Y-102449809D01*
X153321666Y-102545047D01*
X154226428Y-102878380D02*
X154226428Y-102211714D01*
X154226428Y-102402190D02*
X154274047Y-102306952D01*
X154321666Y-102259333D01*
X154416904Y-102211714D01*
X154512142Y-102211714D01*
X155607380Y-102878380D02*
X155607380Y-101878380D01*
X155988333Y-101878380D01*
X156083571Y-101926000D01*
X156131190Y-101973619D01*
X156178809Y-102068857D01*
X156178809Y-102211714D01*
X156131190Y-102306952D01*
X156083571Y-102354571D01*
X155988333Y-102402190D01*
X155607380Y-102402190D01*
X156750238Y-102878380D02*
X156655000Y-102830761D01*
X156607380Y-102783142D01*
X156559761Y-102687904D01*
X156559761Y-102402190D01*
X156607380Y-102306952D01*
X156655000Y-102259333D01*
X156750238Y-102211714D01*
X156893095Y-102211714D01*
X156988333Y-102259333D01*
X157035952Y-102306952D01*
X157083571Y-102402190D01*
X157083571Y-102687904D01*
X157035952Y-102783142D01*
X156988333Y-102830761D01*
X156893095Y-102878380D01*
X156750238Y-102878380D01*
X157512142Y-102878380D02*
X157512142Y-102211714D01*
X157512142Y-102402190D02*
X157559761Y-102306952D01*
X157607380Y-102259333D01*
X157702619Y-102211714D01*
X157797857Y-102211714D01*
X157988333Y-102211714D02*
X158369285Y-102211714D01*
X158131190Y-101878380D02*
X158131190Y-102735523D01*
X158178809Y-102830761D01*
X158274047Y-102878380D01*
X158369285Y-102878380D01*
X159655000Y-101878380D02*
X159845476Y-101878380D01*
X159940714Y-101926000D01*
X160035952Y-102021238D01*
X160083571Y-102211714D01*
X160083571Y-102545047D01*
X160035952Y-102735523D01*
X159940714Y-102830761D01*
X159845476Y-102878380D01*
X159655000Y-102878380D01*
X159559761Y-102830761D01*
X159464523Y-102735523D01*
X159416904Y-102545047D01*
X159416904Y-102211714D01*
X159464523Y-102021238D01*
X159559761Y-101926000D01*
X159655000Y-101878380D01*
X160512142Y-102211714D02*
X160512142Y-102878380D01*
X160512142Y-102306952D02*
X160559761Y-102259333D01*
X160655000Y-102211714D01*
X160797857Y-102211714D01*
X160893095Y-102259333D01*
X160940714Y-102354571D01*
X160940714Y-102878380D01*
X161797857Y-102830761D02*
X161702619Y-102878380D01*
X161512142Y-102878380D01*
X161416904Y-102830761D01*
X161369285Y-102735523D01*
X161369285Y-102354571D01*
X161416904Y-102259333D01*
X161512142Y-102211714D01*
X161702619Y-102211714D01*
X161797857Y-102259333D01*
X161845476Y-102354571D01*
X161845476Y-102449809D01*
X161369285Y-102545047D01*
X229476380Y-80970357D02*
X229000190Y-81303690D01*
X229476380Y-81541785D02*
X228476380Y-81541785D01*
X228476380Y-81160833D01*
X228524000Y-81065595D01*
X228571619Y-81017976D01*
X228666857Y-80970357D01*
X228809714Y-80970357D01*
X228904952Y-81017976D01*
X228952571Y-81065595D01*
X229000190Y-81160833D01*
X229000190Y-81541785D01*
X228476380Y-80637023D02*
X228476380Y-80017976D01*
X228857333Y-80351309D01*
X228857333Y-80208452D01*
X228904952Y-80113214D01*
X228952571Y-80065595D01*
X229047809Y-80017976D01*
X229285904Y-80017976D01*
X229381142Y-80065595D01*
X229428761Y-80113214D01*
X229476380Y-80208452D01*
X229476380Y-80494166D01*
X229428761Y-80589404D01*
X229381142Y-80637023D01*
X228476380Y-79684642D02*
X228476380Y-79065595D01*
X228857333Y-79398928D01*
X228857333Y-79256071D01*
X228904952Y-79160833D01*
X228952571Y-79113214D01*
X229047809Y-79065595D01*
X229285904Y-79065595D01*
X229381142Y-79113214D01*
X229428761Y-79160833D01*
X229476380Y-79256071D01*
X229476380Y-79541785D01*
X229428761Y-79637023D01*
X229381142Y-79684642D01*
X195937142Y-95575357D02*
X195984761Y-95622976D01*
X196032380Y-95765833D01*
X196032380Y-95861071D01*
X195984761Y-96003928D01*
X195889523Y-96099166D01*
X195794285Y-96146785D01*
X195603809Y-96194404D01*
X195460952Y-96194404D01*
X195270476Y-96146785D01*
X195175238Y-96099166D01*
X195080000Y-96003928D01*
X195032380Y-95861071D01*
X195032380Y-95765833D01*
X195080000Y-95622976D01*
X195127619Y-95575357D01*
X195127619Y-95194404D02*
X195080000Y-95146785D01*
X195032380Y-95051547D01*
X195032380Y-94813452D01*
X195080000Y-94718214D01*
X195127619Y-94670595D01*
X195222857Y-94622976D01*
X195318095Y-94622976D01*
X195460952Y-94670595D01*
X196032380Y-95242023D01*
X196032380Y-94622976D01*
X195127619Y-94242023D02*
X195080000Y-94194404D01*
X195032380Y-94099166D01*
X195032380Y-93861071D01*
X195080000Y-93765833D01*
X195127619Y-93718214D01*
X195222857Y-93670595D01*
X195318095Y-93670595D01*
X195460952Y-93718214D01*
X196032380Y-94289642D01*
X196032380Y-93670595D01*
X198127880Y-97829666D02*
X198127880Y-98401095D01*
X198127880Y-98115380D02*
X197127880Y-98115380D01*
X197270738Y-98210619D01*
X197365976Y-98305857D01*
X197413595Y-98401095D01*
X197461214Y-96972523D02*
X198127880Y-96972523D01*
X197461214Y-97401095D02*
X197985023Y-97401095D01*
X198080261Y-97353476D01*
X198127880Y-97258238D01*
X198127880Y-97115380D01*
X198080261Y-97020142D01*
X198032642Y-96972523D01*
X197782380Y-86709095D02*
X198591904Y-86709095D01*
X198687142Y-86661476D01*
X198734761Y-86613857D01*
X198782380Y-86518619D01*
X198782380Y-86328142D01*
X198734761Y-86232904D01*
X198687142Y-86185285D01*
X198591904Y-86137666D01*
X197782380Y-86137666D01*
X198782380Y-85137666D02*
X198782380Y-85709095D01*
X198782380Y-85423380D02*
X197782380Y-85423380D01*
X197925238Y-85518619D01*
X198020476Y-85613857D01*
X198068095Y-85709095D01*
X197782380Y-84518619D02*
X197782380Y-84423380D01*
X197830000Y-84328142D01*
X197877619Y-84280523D01*
X197972857Y-84232904D01*
X198163333Y-84185285D01*
X198401428Y-84185285D01*
X198591904Y-84232904D01*
X198687142Y-84280523D01*
X198734761Y-84328142D01*
X198782380Y-84423380D01*
X198782380Y-84518619D01*
X198734761Y-84613857D01*
X198687142Y-84661476D01*
X198591904Y-84709095D01*
X198401428Y-84756714D01*
X198163333Y-84756714D01*
X197972857Y-84709095D01*
X197877619Y-84661476D01*
X197830000Y-84613857D01*
X197782380Y-84518619D01*
X209621785Y-85177380D02*
X210288452Y-85177380D01*
X209859880Y-86177380D01*
X211097976Y-85510714D02*
X211097976Y-86177380D01*
X210859880Y-85129761D02*
X210621785Y-85844047D01*
X211240833Y-85844047D01*
X211621785Y-86177380D02*
X211621785Y-85177380D01*
X211621785Y-85653571D02*
X212193214Y-85653571D01*
X212193214Y-86177380D02*
X212193214Y-85177380D01*
X213240833Y-86082142D02*
X213193214Y-86129761D01*
X213050357Y-86177380D01*
X212955119Y-86177380D01*
X212812261Y-86129761D01*
X212717023Y-86034523D01*
X212669404Y-85939285D01*
X212621785Y-85748809D01*
X212621785Y-85605952D01*
X212669404Y-85415476D01*
X212717023Y-85320238D01*
X212812261Y-85225000D01*
X212955119Y-85177380D01*
X213050357Y-85177380D01*
X213193214Y-85225000D01*
X213240833Y-85272619D01*
X214193214Y-86177380D02*
X213621785Y-86177380D01*
X213907500Y-86177380D02*
X213907500Y-85177380D01*
X213812261Y-85320238D01*
X213717023Y-85415476D01*
X213621785Y-85463095D01*
X215050357Y-85510714D02*
X215050357Y-86177380D01*
X214812261Y-85129761D02*
X214574166Y-85844047D01*
X215193214Y-85844047D01*
X169164095Y-63841380D02*
X169164095Y-64650904D01*
X169211714Y-64746142D01*
X169259333Y-64793761D01*
X169354571Y-64841380D01*
X169545047Y-64841380D01*
X169640285Y-64793761D01*
X169687904Y-64746142D01*
X169735523Y-64650904D01*
X169735523Y-63841380D01*
X170735523Y-64841380D02*
X170164095Y-64841380D01*
X170449809Y-64841380D02*
X170449809Y-63841380D01*
X170354571Y-63984238D01*
X170259333Y-64079476D01*
X170164095Y-64127095D01*
X168489642Y-76350880D02*
X169156309Y-76350880D01*
X168727738Y-77350880D01*
X169965833Y-76684214D02*
X169965833Y-77350880D01*
X169727738Y-76303261D02*
X169489642Y-77017547D01*
X170108690Y-77017547D01*
X170965833Y-77350880D02*
X170489642Y-77350880D01*
X170489642Y-76350880D01*
X171251547Y-77303261D02*
X171394404Y-77350880D01*
X171632500Y-77350880D01*
X171727738Y-77303261D01*
X171775357Y-77255642D01*
X171822976Y-77160404D01*
X171822976Y-77065166D01*
X171775357Y-76969928D01*
X171727738Y-76922309D01*
X171632500Y-76874690D01*
X171442023Y-76827071D01*
X171346785Y-76779452D01*
X171299166Y-76731833D01*
X171251547Y-76636595D01*
X171251547Y-76541357D01*
X171299166Y-76446119D01*
X171346785Y-76398500D01*
X171442023Y-76350880D01*
X171680119Y-76350880D01*
X171822976Y-76398500D01*
X172442023Y-76350880D02*
X172537261Y-76350880D01*
X172632500Y-76398500D01*
X172680119Y-76446119D01*
X172727738Y-76541357D01*
X172775357Y-76731833D01*
X172775357Y-76969928D01*
X172727738Y-77160404D01*
X172680119Y-77255642D01*
X172632500Y-77303261D01*
X172537261Y-77350880D01*
X172442023Y-77350880D01*
X172346785Y-77303261D01*
X172299166Y-77255642D01*
X172251547Y-77160404D01*
X172203928Y-76969928D01*
X172203928Y-76731833D01*
X172251547Y-76541357D01*
X172299166Y-76446119D01*
X172346785Y-76398500D01*
X172442023Y-76350880D01*
X173632500Y-76684214D02*
X173632500Y-77350880D01*
X173394404Y-76303261D02*
X173156309Y-77017547D01*
X173775357Y-77017547D01*
X108021523Y-61425380D02*
X107688190Y-60949190D01*
X107450095Y-61425380D02*
X107450095Y-60425380D01*
X107831047Y-60425380D01*
X107926285Y-60473000D01*
X107973904Y-60520619D01*
X108021523Y-60615857D01*
X108021523Y-60758714D01*
X107973904Y-60853952D01*
X107926285Y-60901571D01*
X107831047Y-60949190D01*
X107450095Y-60949190D01*
X108450095Y-61425380D02*
X108450095Y-60425380D01*
X109021523Y-61425380D01*
X109021523Y-60425380D01*
X110021523Y-61425380D02*
X109450095Y-61425380D01*
X109735809Y-61425380D02*
X109735809Y-60425380D01*
X109640571Y-60568238D01*
X109545333Y-60663476D01*
X109450095Y-60711095D01*
X200556833Y-99385380D02*
X200223500Y-98909190D01*
X199985404Y-99385380D02*
X199985404Y-98385380D01*
X200366357Y-98385380D01*
X200461595Y-98433000D01*
X200509214Y-98480619D01*
X200556833Y-98575857D01*
X200556833Y-98718714D01*
X200509214Y-98813952D01*
X200461595Y-98861571D01*
X200366357Y-98909190D01*
X199985404Y-98909190D01*
X201461595Y-98385380D02*
X200985404Y-98385380D01*
X200937785Y-98861571D01*
X200985404Y-98813952D01*
X201080642Y-98766333D01*
X201318738Y-98766333D01*
X201413976Y-98813952D01*
X201461595Y-98861571D01*
X201509214Y-98956809D01*
X201509214Y-99194904D01*
X201461595Y-99290142D01*
X201413976Y-99337761D01*
X201318738Y-99385380D01*
X201080642Y-99385380D01*
X200985404Y-99337761D01*
X200937785Y-99290142D01*
X202795214Y-99321880D02*
X202223785Y-99321880D01*
X202509500Y-99321880D02*
X202509500Y-98321880D01*
X202414261Y-98464738D01*
X202319023Y-98559976D01*
X202223785Y-98607595D01*
X203223785Y-99321880D02*
X203223785Y-98321880D01*
X203795214Y-99321880D02*
X203366642Y-98750452D01*
X203795214Y-98321880D02*
X203223785Y-98893309D01*
X205827333Y-93543380D02*
X205494000Y-93067190D01*
X205255904Y-93543380D02*
X205255904Y-92543380D01*
X205636857Y-92543380D01*
X205732095Y-92591000D01*
X205779714Y-92638619D01*
X205827333Y-92733857D01*
X205827333Y-92876714D01*
X205779714Y-92971952D01*
X205732095Y-93019571D01*
X205636857Y-93067190D01*
X205255904Y-93067190D01*
X206732095Y-92543380D02*
X206255904Y-92543380D01*
X206208285Y-93019571D01*
X206255904Y-92971952D01*
X206351142Y-92924333D01*
X206589238Y-92924333D01*
X206684476Y-92971952D01*
X206732095Y-93019571D01*
X206779714Y-93114809D01*
X206779714Y-93352904D01*
X206732095Y-93448142D01*
X206684476Y-93495761D01*
X206589238Y-93543380D01*
X206351142Y-93543380D01*
X206255904Y-93495761D01*
X206208285Y-93448142D01*
X200556833Y-100655380D02*
X200223500Y-100179190D01*
X199985404Y-100655380D02*
X199985404Y-99655380D01*
X200366357Y-99655380D01*
X200461595Y-99703000D01*
X200509214Y-99750619D01*
X200556833Y-99845857D01*
X200556833Y-99988714D01*
X200509214Y-100083952D01*
X200461595Y-100131571D01*
X200366357Y-100179190D01*
X199985404Y-100179190D01*
X201413976Y-99988714D02*
X201413976Y-100655380D01*
X201175880Y-99607761D02*
X200937785Y-100322047D01*
X201556833Y-100322047D01*
X202382571Y-100083952D02*
X202287333Y-100036333D01*
X202239714Y-99988714D01*
X202192095Y-99893476D01*
X202192095Y-99845857D01*
X202239714Y-99750619D01*
X202287333Y-99703000D01*
X202382571Y-99655380D01*
X202573047Y-99655380D01*
X202668285Y-99703000D01*
X202715904Y-99750619D01*
X202763523Y-99845857D01*
X202763523Y-99893476D01*
X202715904Y-99988714D01*
X202668285Y-100036333D01*
X202573047Y-100083952D01*
X202382571Y-100083952D01*
X202287333Y-100131571D01*
X202239714Y-100179190D01*
X202192095Y-100274428D01*
X202192095Y-100464904D01*
X202239714Y-100560142D01*
X202287333Y-100607761D01*
X202382571Y-100655380D01*
X202573047Y-100655380D01*
X202668285Y-100607761D01*
X202715904Y-100560142D01*
X202763523Y-100464904D01*
X202763523Y-100274428D01*
X202715904Y-100179190D01*
X202668285Y-100131571D01*
X202573047Y-100083952D01*
X203144476Y-99750619D02*
X203192095Y-99703000D01*
X203287333Y-99655380D01*
X203525428Y-99655380D01*
X203620666Y-99703000D01*
X203668285Y-99750619D01*
X203715904Y-99845857D01*
X203715904Y-99941095D01*
X203668285Y-100083952D01*
X203096857Y-100655380D01*
X203715904Y-100655380D01*
X204144476Y-100655380D02*
X204144476Y-99655380D01*
X204715904Y-100655380D02*
X204287333Y-100083952D01*
X204715904Y-99655380D02*
X204144476Y-100226809D01*
X205827333Y-97099380D02*
X205494000Y-96623190D01*
X205255904Y-97099380D02*
X205255904Y-96099380D01*
X205636857Y-96099380D01*
X205732095Y-96147000D01*
X205779714Y-96194619D01*
X205827333Y-96289857D01*
X205827333Y-96432714D01*
X205779714Y-96527952D01*
X205732095Y-96575571D01*
X205636857Y-96623190D01*
X205255904Y-96623190D01*
X206684476Y-96432714D02*
X206684476Y-97099380D01*
X206446380Y-96051761D02*
X206208285Y-96766047D01*
X206827333Y-96766047D01*
X207859333Y-80927380D02*
X207526000Y-80451190D01*
X207287904Y-80927380D02*
X207287904Y-79927380D01*
X207668857Y-79927380D01*
X207764095Y-79975000D01*
X207811714Y-80022619D01*
X207859333Y-80117857D01*
X207859333Y-80260714D01*
X207811714Y-80355952D01*
X207764095Y-80403571D01*
X207668857Y-80451190D01*
X207287904Y-80451190D01*
X208192666Y-79927380D02*
X208811714Y-79927380D01*
X208478380Y-80308333D01*
X208621238Y-80308333D01*
X208716476Y-80355952D01*
X208764095Y-80403571D01*
X208811714Y-80498809D01*
X208811714Y-80736904D01*
X208764095Y-80832142D01*
X208716476Y-80879761D01*
X208621238Y-80927380D01*
X208335523Y-80927380D01*
X208240285Y-80879761D01*
X208192666Y-80832142D01*
X207732333Y-51188880D02*
X207399000Y-50712690D01*
X207160904Y-51188880D02*
X207160904Y-50188880D01*
X207541857Y-50188880D01*
X207637095Y-50236500D01*
X207684714Y-50284119D01*
X207732333Y-50379357D01*
X207732333Y-50522214D01*
X207684714Y-50617452D01*
X207637095Y-50665071D01*
X207541857Y-50712690D01*
X207160904Y-50712690D01*
X208113285Y-50284119D02*
X208160904Y-50236500D01*
X208256142Y-50188880D01*
X208494238Y-50188880D01*
X208589476Y-50236500D01*
X208637095Y-50284119D01*
X208684714Y-50379357D01*
X208684714Y-50474595D01*
X208637095Y-50617452D01*
X208065666Y-51188880D01*
X208684714Y-51188880D01*
X202636523Y-53538380D02*
X202065095Y-53538380D01*
X202350809Y-53538380D02*
X202350809Y-52538380D01*
X202255571Y-52681238D01*
X202160333Y-52776476D01*
X202065095Y-52824095D01*
X203255571Y-52538380D02*
X203350809Y-52538380D01*
X203446047Y-52586000D01*
X203493666Y-52633619D01*
X203541285Y-52728857D01*
X203588904Y-52919333D01*
X203588904Y-53157428D01*
X203541285Y-53347904D01*
X203493666Y-53443142D01*
X203446047Y-53490761D01*
X203350809Y-53538380D01*
X203255571Y-53538380D01*
X203160333Y-53490761D01*
X203112714Y-53443142D01*
X203065095Y-53347904D01*
X203017476Y-53157428D01*
X203017476Y-52919333D01*
X203065095Y-52728857D01*
X203112714Y-52633619D01*
X203160333Y-52586000D01*
X203255571Y-52538380D01*
X204017476Y-53538380D02*
X204017476Y-52538380D01*
X204588904Y-53538380D02*
X204160333Y-52966952D01*
X204588904Y-52538380D02*
X204017476Y-53109809D01*
X214391976Y-41044880D02*
X214391976Y-41759166D01*
X214344357Y-41902023D01*
X214249119Y-41997261D01*
X214106261Y-42044880D01*
X214011023Y-42044880D01*
X214772928Y-41044880D02*
X215439595Y-41044880D01*
X215011023Y-42044880D01*
X216344357Y-42044880D02*
X215772928Y-42044880D01*
X216058642Y-42044880D02*
X216058642Y-41044880D01*
X215963404Y-41187738D01*
X215868166Y-41282976D01*
X215772928Y-41330595D01*
X214741428Y-47124880D02*
X214408095Y-46648690D01*
X214170000Y-47124880D02*
X214170000Y-46124880D01*
X214550952Y-46124880D01*
X214646190Y-46172500D01*
X214693809Y-46220119D01*
X214741428Y-46315357D01*
X214741428Y-46458214D01*
X214693809Y-46553452D01*
X214646190Y-46601071D01*
X214550952Y-46648690D01*
X214170000Y-46648690D01*
X215027142Y-46124880D02*
X215598571Y-46124880D01*
X215312857Y-47124880D02*
X215312857Y-46124880D01*
X215884285Y-47077261D02*
X216027142Y-47124880D01*
X216265238Y-47124880D01*
X216360476Y-47077261D01*
X216408095Y-47029642D01*
X216455714Y-46934404D01*
X216455714Y-46839166D01*
X216408095Y-46743928D01*
X216360476Y-46696309D01*
X216265238Y-46648690D01*
X216074761Y-46601071D01*
X215979523Y-46553452D01*
X215931904Y-46505833D01*
X215884285Y-46410595D01*
X215884285Y-46315357D01*
X215931904Y-46220119D01*
X215979523Y-46172500D01*
X216074761Y-46124880D01*
X216312857Y-46124880D01*
X216455714Y-46172500D01*
X217598571Y-46077261D02*
X216741428Y-47362976D01*
X218503333Y-47029642D02*
X218455714Y-47077261D01*
X218312857Y-47124880D01*
X218217619Y-47124880D01*
X218074761Y-47077261D01*
X217979523Y-46982023D01*
X217931904Y-46886785D01*
X217884285Y-46696309D01*
X217884285Y-46553452D01*
X217931904Y-46362976D01*
X217979523Y-46267738D01*
X218074761Y-46172500D01*
X218217619Y-46124880D01*
X218312857Y-46124880D01*
X218455714Y-46172500D01*
X218503333Y-46220119D01*
X218789047Y-46124880D02*
X219360476Y-46124880D01*
X219074761Y-47124880D02*
X219074761Y-46124880D01*
X219646190Y-47077261D02*
X219789047Y-47124880D01*
X220027142Y-47124880D01*
X220122380Y-47077261D01*
X220170000Y-47029642D01*
X220217619Y-46934404D01*
X220217619Y-46839166D01*
X220170000Y-46743928D01*
X220122380Y-46696309D01*
X220027142Y-46648690D01*
X219836666Y-46601071D01*
X219741428Y-46553452D01*
X219693809Y-46505833D01*
X219646190Y-46410595D01*
X219646190Y-46315357D01*
X219693809Y-46220119D01*
X219741428Y-46172500D01*
X219836666Y-46124880D01*
X220074761Y-46124880D01*
X220217619Y-46172500D01*
X230711476Y-52665380D02*
X230711476Y-53379666D01*
X230663857Y-53522523D01*
X230568619Y-53617761D01*
X230425761Y-53665380D01*
X230330523Y-53665380D01*
X231140047Y-52760619D02*
X231187666Y-52713000D01*
X231282904Y-52665380D01*
X231521000Y-52665380D01*
X231616238Y-52713000D01*
X231663857Y-52760619D01*
X231711476Y-52855857D01*
X231711476Y-52951095D01*
X231663857Y-53093952D01*
X231092428Y-53665380D01*
X231711476Y-53665380D01*
X232092428Y-52760619D02*
X232140047Y-52713000D01*
X232235285Y-52665380D01*
X232473380Y-52665380D01*
X232568619Y-52713000D01*
X232616238Y-52760619D01*
X232663857Y-52855857D01*
X232663857Y-52951095D01*
X232616238Y-53093952D01*
X232044809Y-53665380D01*
X232663857Y-53665380D01*
X226814142Y-53728880D02*
X226337952Y-53728880D01*
X226337952Y-52728880D01*
X227147476Y-53205071D02*
X227480809Y-53205071D01*
X227623666Y-53728880D02*
X227147476Y-53728880D01*
X227147476Y-52728880D01*
X227623666Y-52728880D01*
X228052238Y-53728880D02*
X228052238Y-52728880D01*
X228290333Y-52728880D01*
X228433190Y-52776500D01*
X228528428Y-52871738D01*
X228576047Y-52966976D01*
X228623666Y-53157452D01*
X228623666Y-53300309D01*
X228576047Y-53490785D01*
X228528428Y-53586023D01*
X228433190Y-53681261D01*
X228290333Y-53728880D01*
X228052238Y-53728880D01*
X215209380Y-97448595D02*
X214209380Y-97448595D01*
X214209380Y-97210500D01*
X214257000Y-97067642D01*
X214352238Y-96972404D01*
X214447476Y-96924785D01*
X214637952Y-96877166D01*
X214780809Y-96877166D01*
X214971285Y-96924785D01*
X215066523Y-96972404D01*
X215161761Y-97067642D01*
X215209380Y-97210500D01*
X215209380Y-97448595D01*
X214304619Y-96496214D02*
X214257000Y-96448595D01*
X214209380Y-96353357D01*
X214209380Y-96115261D01*
X214257000Y-96020023D01*
X214304619Y-95972404D01*
X214399857Y-95924785D01*
X214495095Y-95924785D01*
X214637952Y-95972404D01*
X215209380Y-96543833D01*
X215209380Y-95924785D01*
X209153333Y-100528380D02*
X208581904Y-100528380D01*
X208867619Y-100528380D02*
X208867619Y-99528380D01*
X208772380Y-99671238D01*
X208677142Y-99766476D01*
X208581904Y-99814095D01*
X209581904Y-100528380D02*
X209581904Y-99528380D01*
X210153333Y-100528380D01*
X210153333Y-99528380D01*
X210677142Y-100528380D02*
X210867619Y-100528380D01*
X210962857Y-100480761D01*
X211010476Y-100433142D01*
X211105714Y-100290285D01*
X211153333Y-100099809D01*
X211153333Y-99718857D01*
X211105714Y-99623619D01*
X211058095Y-99576000D01*
X210962857Y-99528380D01*
X210772380Y-99528380D01*
X210677142Y-99576000D01*
X210629523Y-99623619D01*
X210581904Y-99718857D01*
X210581904Y-99956952D01*
X210629523Y-100052190D01*
X210677142Y-100099809D01*
X210772380Y-100147428D01*
X210962857Y-100147428D01*
X211058095Y-100099809D01*
X211105714Y-100052190D01*
X211153333Y-99956952D01*
X212105714Y-100528380D02*
X211534285Y-100528380D01*
X211820000Y-100528380D02*
X211820000Y-99528380D01*
X211724761Y-99671238D01*
X211629523Y-99766476D01*
X211534285Y-99814095D01*
X212962857Y-99861714D02*
X212962857Y-100528380D01*
X212724761Y-99480761D02*
X212486666Y-100195047D01*
X213105714Y-100195047D01*
X216882380Y-92844904D02*
X215882380Y-92844904D01*
X216882380Y-92273476D02*
X216310952Y-92702047D01*
X215882380Y-92273476D02*
X216453809Y-92844904D01*
D11*
X206737023Y-100564904D02*
X206737023Y-99764904D01*
X206927500Y-99764904D01*
X207041785Y-99803000D01*
X207117976Y-99879190D01*
X207156071Y-99955380D01*
X207194166Y-100107761D01*
X207194166Y-100222047D01*
X207156071Y-100374428D01*
X207117976Y-100450619D01*
X207041785Y-100526809D01*
X206927500Y-100564904D01*
X206737023Y-100564904D01*
X207498928Y-99841095D02*
X207537023Y-99803000D01*
X207613214Y-99764904D01*
X207803690Y-99764904D01*
X207879880Y-99803000D01*
X207917976Y-99841095D01*
X207956071Y-99917285D01*
X207956071Y-99993476D01*
X207917976Y-100107761D01*
X207460833Y-100564904D01*
X207956071Y-100564904D01*
D10*
X196778642Y-78525642D02*
X196731023Y-78573261D01*
X196588166Y-78620880D01*
X196492928Y-78620880D01*
X196350071Y-78573261D01*
X196254833Y-78478023D01*
X196207214Y-78382785D01*
X196159595Y-78192309D01*
X196159595Y-78049452D01*
X196207214Y-77858976D01*
X196254833Y-77763738D01*
X196350071Y-77668500D01*
X196492928Y-77620880D01*
X196588166Y-77620880D01*
X196731023Y-77668500D01*
X196778642Y-77716119D01*
X197159595Y-77716119D02*
X197207214Y-77668500D01*
X197302452Y-77620880D01*
X197540547Y-77620880D01*
X197635785Y-77668500D01*
X197683404Y-77716119D01*
X197731023Y-77811357D01*
X197731023Y-77906595D01*
X197683404Y-78049452D01*
X197111976Y-78620880D01*
X197731023Y-78620880D01*
X198683404Y-78620880D02*
X198111976Y-78620880D01*
X198397690Y-78620880D02*
X198397690Y-77620880D01*
X198302452Y-77763738D01*
X198207214Y-77858976D01*
X198111976Y-77906595D01*
X194651333Y-80589380D02*
X194079904Y-80589380D01*
X194365619Y-80589380D02*
X194365619Y-79589380D01*
X194270380Y-79732238D01*
X194175142Y-79827476D01*
X194079904Y-79875095D01*
X195508476Y-79922714D02*
X195508476Y-80589380D01*
X195079904Y-79922714D02*
X195079904Y-80446523D01*
X195127523Y-80541761D01*
X195222761Y-80589380D01*
X195365619Y-80589380D01*
X195460857Y-80541761D01*
X195508476Y-80494142D01*
X195937142Y-86494857D02*
X195984761Y-86542476D01*
X196032380Y-86685333D01*
X196032380Y-86780571D01*
X195984761Y-86923428D01*
X195889523Y-87018666D01*
X195794285Y-87066285D01*
X195603809Y-87113904D01*
X195460952Y-87113904D01*
X195270476Y-87066285D01*
X195175238Y-87018666D01*
X195080000Y-86923428D01*
X195032380Y-86780571D01*
X195032380Y-86685333D01*
X195080000Y-86542476D01*
X195127619Y-86494857D01*
X196032380Y-85542476D02*
X196032380Y-86113904D01*
X196032380Y-85828190D02*
X195032380Y-85828190D01*
X195175238Y-85923428D01*
X195270476Y-86018666D01*
X195318095Y-86113904D01*
X195032380Y-84923428D02*
X195032380Y-84828190D01*
X195080000Y-84732952D01*
X195127619Y-84685333D01*
X195222857Y-84637714D01*
X195413333Y-84590095D01*
X195651428Y-84590095D01*
X195841904Y-84637714D01*
X195937142Y-84685333D01*
X195984761Y-84732952D01*
X196032380Y-84828190D01*
X196032380Y-84923428D01*
X195984761Y-85018666D01*
X195937142Y-85066285D01*
X195841904Y-85113904D01*
X195651428Y-85161523D01*
X195413333Y-85161523D01*
X195222857Y-85113904D01*
X195127619Y-85066285D01*
X195080000Y-85018666D01*
X195032380Y-84923428D01*
X198508880Y-90146047D02*
X198508880Y-90717476D01*
X198508880Y-90431761D02*
X197508880Y-90431761D01*
X197651738Y-90527000D01*
X197746976Y-90622238D01*
X197794595Y-90717476D01*
X197508880Y-89527000D02*
X197508880Y-89431761D01*
X197556500Y-89336523D01*
X197604119Y-89288904D01*
X197699357Y-89241285D01*
X197889833Y-89193666D01*
X198127928Y-89193666D01*
X198318404Y-89241285D01*
X198413642Y-89288904D01*
X198461261Y-89336523D01*
X198508880Y-89431761D01*
X198508880Y-89527000D01*
X198461261Y-89622238D01*
X198413642Y-89669857D01*
X198318404Y-89717476D01*
X198127928Y-89765095D01*
X197889833Y-89765095D01*
X197699357Y-89717476D01*
X197604119Y-89669857D01*
X197556500Y-89622238D01*
X197508880Y-89527000D01*
X197508880Y-88574619D02*
X197508880Y-88479380D01*
X197556500Y-88384142D01*
X197604119Y-88336523D01*
X197699357Y-88288904D01*
X197889833Y-88241285D01*
X198127928Y-88241285D01*
X198318404Y-88288904D01*
X198413642Y-88336523D01*
X198461261Y-88384142D01*
X198508880Y-88479380D01*
X198508880Y-88574619D01*
X198461261Y-88669857D01*
X198413642Y-88717476D01*
X198318404Y-88765095D01*
X198127928Y-88812714D01*
X197889833Y-88812714D01*
X197699357Y-88765095D01*
X197604119Y-88717476D01*
X197556500Y-88669857D01*
X197508880Y-88574619D01*
X197842214Y-87812714D02*
X198508880Y-87812714D01*
X197937452Y-87812714D02*
X197889833Y-87765095D01*
X197842214Y-87669857D01*
X197842214Y-87527000D01*
X197889833Y-87431761D01*
X197985071Y-87384142D01*
X198508880Y-87384142D01*
X207152976Y-41044880D02*
X207152976Y-41759166D01*
X207105357Y-41902023D01*
X207010119Y-41997261D01*
X206867261Y-42044880D01*
X206772023Y-42044880D01*
X207581547Y-41140119D02*
X207629166Y-41092500D01*
X207724404Y-41044880D01*
X207962500Y-41044880D01*
X208057738Y-41092500D01*
X208105357Y-41140119D01*
X208152976Y-41235357D01*
X208152976Y-41330595D01*
X208105357Y-41473452D01*
X207533928Y-42044880D01*
X208152976Y-42044880D01*
X209105357Y-42044880D02*
X208533928Y-42044880D01*
X208819642Y-42044880D02*
X208819642Y-41044880D01*
X208724404Y-41187738D01*
X208629166Y-41282976D01*
X208533928Y-41330595D01*
X207549904Y-47061380D02*
X207216571Y-46585190D01*
X206978476Y-47061380D02*
X206978476Y-46061380D01*
X207359428Y-46061380D01*
X207454666Y-46109000D01*
X207502285Y-46156619D01*
X207549904Y-46251857D01*
X207549904Y-46394714D01*
X207502285Y-46489952D01*
X207454666Y-46537571D01*
X207359428Y-46585190D01*
X206978476Y-46585190D01*
X208359428Y-47013761D02*
X208264190Y-47061380D01*
X208073714Y-47061380D01*
X207978476Y-47013761D01*
X207930857Y-46918523D01*
X207930857Y-46537571D01*
X207978476Y-46442333D01*
X208073714Y-46394714D01*
X208264190Y-46394714D01*
X208359428Y-46442333D01*
X208407047Y-46537571D01*
X208407047Y-46632809D01*
X207930857Y-46728047D01*
X208788000Y-47013761D02*
X208883238Y-47061380D01*
X209073714Y-47061380D01*
X209168952Y-47013761D01*
X209216571Y-46918523D01*
X209216571Y-46870904D01*
X209168952Y-46775666D01*
X209073714Y-46728047D01*
X208930857Y-46728047D01*
X208835619Y-46680428D01*
X208788000Y-46585190D01*
X208788000Y-46537571D01*
X208835619Y-46442333D01*
X208930857Y-46394714D01*
X209073714Y-46394714D01*
X209168952Y-46442333D01*
X210026095Y-47013761D02*
X209930857Y-47061380D01*
X209740380Y-47061380D01*
X209645142Y-47013761D01*
X209597523Y-46918523D01*
X209597523Y-46537571D01*
X209645142Y-46442333D01*
X209740380Y-46394714D01*
X209930857Y-46394714D01*
X210026095Y-46442333D01*
X210073714Y-46537571D01*
X210073714Y-46632809D01*
X209597523Y-46728047D01*
X210359428Y-46394714D02*
X210740380Y-46394714D01*
X210502285Y-46061380D02*
X210502285Y-46918523D01*
X210549904Y-47013761D01*
X210645142Y-47061380D01*
X210740380Y-47061380D01*
X216939880Y-100060023D02*
X217654166Y-100060023D01*
X217797023Y-100107642D01*
X217892261Y-100202880D01*
X217939880Y-100345738D01*
X217939880Y-100440976D01*
X217035119Y-99631452D02*
X216987500Y-99583833D01*
X216939880Y-99488595D01*
X216939880Y-99250500D01*
X216987500Y-99155261D01*
X217035119Y-99107642D01*
X217130357Y-99060023D01*
X217225595Y-99060023D01*
X217368452Y-99107642D01*
X217939880Y-99679071D01*
X217939880Y-99060023D01*
X216939880Y-98440976D02*
X216939880Y-98345738D01*
X216987500Y-98250500D01*
X217035119Y-98202880D01*
X217130357Y-98155261D01*
X217320833Y-98107642D01*
X217558928Y-98107642D01*
X217749404Y-98155261D01*
X217844642Y-98202880D01*
X217892261Y-98250500D01*
X217939880Y-98345738D01*
X217939880Y-98440976D01*
X217892261Y-98536214D01*
X217844642Y-98583833D01*
X217749404Y-98631452D01*
X217558928Y-98679071D01*
X217320833Y-98679071D01*
X217130357Y-98631452D01*
X217035119Y-98583833D01*
X216987500Y-98536214D01*
X216939880Y-98440976D01*
X225115714Y-98385261D02*
X225258571Y-98432880D01*
X225496666Y-98432880D01*
X225591904Y-98385261D01*
X225639523Y-98337642D01*
X225687142Y-98242404D01*
X225687142Y-98147166D01*
X225639523Y-98051928D01*
X225591904Y-98004309D01*
X225496666Y-97956690D01*
X225306190Y-97909071D01*
X225210952Y-97861452D01*
X225163333Y-97813833D01*
X225115714Y-97718595D01*
X225115714Y-97623357D01*
X225163333Y-97528119D01*
X225210952Y-97480500D01*
X225306190Y-97432880D01*
X225544285Y-97432880D01*
X225687142Y-97480500D01*
X226020476Y-97766214D02*
X226210952Y-98432880D01*
X226401428Y-97956690D01*
X226591904Y-98432880D01*
X226782380Y-97766214D01*
X227163333Y-98432880D02*
X227163333Y-97766214D01*
X227163333Y-97432880D02*
X227115714Y-97480500D01*
X227163333Y-97528119D01*
X227210952Y-97480500D01*
X227163333Y-97432880D01*
X227163333Y-97528119D01*
X227496666Y-97766214D02*
X227877619Y-97766214D01*
X227639523Y-97432880D02*
X227639523Y-98290023D01*
X227687142Y-98385261D01*
X227782380Y-98432880D01*
X227877619Y-98432880D01*
X228639523Y-98385261D02*
X228544285Y-98432880D01*
X228353809Y-98432880D01*
X228258571Y-98385261D01*
X228210952Y-98337642D01*
X228163333Y-98242404D01*
X228163333Y-97956690D01*
X228210952Y-97861452D01*
X228258571Y-97813833D01*
X228353809Y-97766214D01*
X228544285Y-97766214D01*
X228639523Y-97813833D01*
X229068095Y-98432880D02*
X229068095Y-97432880D01*
X229496666Y-98432880D02*
X229496666Y-97909071D01*
X229449047Y-97813833D01*
X229353809Y-97766214D01*
X229210952Y-97766214D01*
X229115714Y-97813833D01*
X229068095Y-97861452D01*
X120523095Y-101369880D02*
X120523095Y-102179404D01*
X120570714Y-102274642D01*
X120618333Y-102322261D01*
X120713571Y-102369880D01*
X120904047Y-102369880D01*
X120999285Y-102322261D01*
X121046904Y-102274642D01*
X121094523Y-102179404D01*
X121094523Y-101369880D01*
X121475476Y-101369880D02*
X122094523Y-101369880D01*
X121761190Y-101750833D01*
X121904047Y-101750833D01*
X121999285Y-101798452D01*
X122046904Y-101846071D01*
X122094523Y-101941309D01*
X122094523Y-102179404D01*
X122046904Y-102274642D01*
X121999285Y-102322261D01*
X121904047Y-102369880D01*
X121618333Y-102369880D01*
X121523095Y-102322261D01*
X121475476Y-102274642D01*
X112331714Y-88511119D02*
X112379333Y-88463500D01*
X112474571Y-88415880D01*
X112712666Y-88415880D01*
X112807904Y-88463500D01*
X112855523Y-88511119D01*
X112903142Y-88606357D01*
X112903142Y-88701595D01*
X112855523Y-88844452D01*
X112284095Y-89415880D01*
X112903142Y-89415880D01*
X113236476Y-88415880D02*
X113903142Y-88415880D01*
X113474571Y-89415880D01*
X114712666Y-88415880D02*
X114522190Y-88415880D01*
X114426952Y-88463500D01*
X114379333Y-88511119D01*
X114284095Y-88653976D01*
X114236476Y-88844452D01*
X114236476Y-89225404D01*
X114284095Y-89320642D01*
X114331714Y-89368261D01*
X114426952Y-89415880D01*
X114617428Y-89415880D01*
X114712666Y-89368261D01*
X114760285Y-89320642D01*
X114807904Y-89225404D01*
X114807904Y-88987309D01*
X114760285Y-88892071D01*
X114712666Y-88844452D01*
X114617428Y-88796833D01*
X114426952Y-88796833D01*
X114331714Y-88844452D01*
X114284095Y-88892071D01*
X114236476Y-88987309D01*
X115665047Y-88749214D02*
X115665047Y-89415880D01*
X115426952Y-88368261D02*
X115188857Y-89082547D01*
X115807904Y-89082547D01*
X145248380Y-111467333D02*
X145962666Y-111467333D01*
X146105523Y-111514952D01*
X146200761Y-111610190D01*
X146248380Y-111753047D01*
X146248380Y-111848285D01*
X145248380Y-111086380D02*
X145248380Y-110467333D01*
X145629333Y-110800666D01*
X145629333Y-110657809D01*
X145676952Y-110562571D01*
X145724571Y-110514952D01*
X145819809Y-110467333D01*
X146057904Y-110467333D01*
X146153142Y-110514952D01*
X146200761Y-110562571D01*
X146248380Y-110657809D01*
X146248380Y-110943523D01*
X146200761Y-111038761D01*
X146153142Y-111086380D01*
X85955904Y-102925571D02*
X86289238Y-102925571D01*
X86432095Y-103449380D02*
X85955904Y-103449380D01*
X85955904Y-102449380D01*
X86432095Y-102449380D01*
X86765428Y-103449380D02*
X87289238Y-102782714D01*
X86765428Y-102782714D02*
X87289238Y-103449380D01*
X87670190Y-102782714D02*
X87670190Y-103782714D01*
X87670190Y-102830333D02*
X87765428Y-102782714D01*
X87955904Y-102782714D01*
X88051142Y-102830333D01*
X88098761Y-102877952D01*
X88146380Y-102973190D01*
X88146380Y-103258904D01*
X88098761Y-103354142D01*
X88051142Y-103401761D01*
X87955904Y-103449380D01*
X87765428Y-103449380D01*
X87670190Y-103401761D01*
X89003523Y-103449380D02*
X89003523Y-102925571D01*
X88955904Y-102830333D01*
X88860666Y-102782714D01*
X88670190Y-102782714D01*
X88574952Y-102830333D01*
X89003523Y-103401761D02*
X88908285Y-103449380D01*
X88670190Y-103449380D01*
X88574952Y-103401761D01*
X88527333Y-103306523D01*
X88527333Y-103211285D01*
X88574952Y-103116047D01*
X88670190Y-103068428D01*
X88908285Y-103068428D01*
X89003523Y-103020809D01*
X89479714Y-102782714D02*
X89479714Y-103449380D01*
X89479714Y-102877952D02*
X89527333Y-102830333D01*
X89622571Y-102782714D01*
X89765428Y-102782714D01*
X89860666Y-102830333D01*
X89908285Y-102925571D01*
X89908285Y-103449380D01*
X90336857Y-103401761D02*
X90432095Y-103449380D01*
X90622571Y-103449380D01*
X90717809Y-103401761D01*
X90765428Y-103306523D01*
X90765428Y-103258904D01*
X90717809Y-103163666D01*
X90622571Y-103116047D01*
X90479714Y-103116047D01*
X90384476Y-103068428D01*
X90336857Y-102973190D01*
X90336857Y-102925571D01*
X90384476Y-102830333D01*
X90479714Y-102782714D01*
X90622571Y-102782714D01*
X90717809Y-102830333D01*
X91051142Y-102782714D02*
X91432095Y-102782714D01*
X91194000Y-102449380D02*
X91194000Y-103306523D01*
X91241619Y-103401761D01*
X91336857Y-103449380D01*
X91432095Y-103449380D01*
X91765428Y-103449380D02*
X91765428Y-102782714D01*
X91765428Y-102449380D02*
X91717809Y-102497000D01*
X91765428Y-102544619D01*
X91813047Y-102497000D01*
X91765428Y-102449380D01*
X91765428Y-102544619D01*
X92384476Y-103449380D02*
X92289238Y-103401761D01*
X92241619Y-103354142D01*
X92194000Y-103258904D01*
X92194000Y-102973190D01*
X92241619Y-102877952D01*
X92289238Y-102830333D01*
X92384476Y-102782714D01*
X92527333Y-102782714D01*
X92622571Y-102830333D01*
X92670190Y-102877952D01*
X92717809Y-102973190D01*
X92717809Y-103258904D01*
X92670190Y-103354142D01*
X92622571Y-103401761D01*
X92527333Y-103449380D01*
X92384476Y-103449380D01*
X93146380Y-102782714D02*
X93146380Y-103449380D01*
X93146380Y-102877952D02*
X93194000Y-102830333D01*
X93289238Y-102782714D01*
X93432095Y-102782714D01*
X93527333Y-102830333D01*
X93574952Y-102925571D01*
X93574952Y-103449380D01*
X94813047Y-103449380D02*
X94813047Y-102449380D01*
X95194000Y-102449380D01*
X95289238Y-102497000D01*
X95336857Y-102544619D01*
X95384476Y-102639857D01*
X95384476Y-102782714D01*
X95336857Y-102877952D01*
X95289238Y-102925571D01*
X95194000Y-102973190D01*
X94813047Y-102973190D01*
X95955904Y-103449380D02*
X95860666Y-103401761D01*
X95813047Y-103354142D01*
X95765428Y-103258904D01*
X95765428Y-102973190D01*
X95813047Y-102877952D01*
X95860666Y-102830333D01*
X95955904Y-102782714D01*
X96098761Y-102782714D01*
X96194000Y-102830333D01*
X96241619Y-102877952D01*
X96289238Y-102973190D01*
X96289238Y-103258904D01*
X96241619Y-103354142D01*
X96194000Y-103401761D01*
X96098761Y-103449380D01*
X95955904Y-103449380D01*
X96717809Y-103449380D02*
X96717809Y-102782714D01*
X96717809Y-102973190D02*
X96765428Y-102877952D01*
X96813047Y-102830333D01*
X96908285Y-102782714D01*
X97003523Y-102782714D01*
X97194000Y-102782714D02*
X97574952Y-102782714D01*
X97336857Y-102449380D02*
X97336857Y-103306523D01*
X97384476Y-103401761D01*
X97479714Y-103449380D01*
X97574952Y-103449380D01*
X214863571Y-108910333D02*
X214863571Y-109243666D01*
X215387380Y-109243666D02*
X214387380Y-109243666D01*
X214387380Y-108767476D01*
X214863571Y-108053190D02*
X214911190Y-107910333D01*
X214958809Y-107862714D01*
X215054047Y-107815095D01*
X215196904Y-107815095D01*
X215292142Y-107862714D01*
X215339761Y-107910333D01*
X215387380Y-108005571D01*
X215387380Y-108386523D01*
X214387380Y-108386523D01*
X214387380Y-108053190D01*
X214435000Y-107957952D01*
X214482619Y-107910333D01*
X214577857Y-107862714D01*
X214673095Y-107862714D01*
X214768333Y-107910333D01*
X214815952Y-107957952D01*
X214863571Y-108053190D01*
X214863571Y-108386523D01*
X215387380Y-106862714D02*
X215387380Y-107434142D01*
X215387380Y-107148428D02*
X214387380Y-107148428D01*
X214530238Y-107243666D01*
X214625476Y-107338904D01*
X214673095Y-107434142D01*
X212442571Y-112148428D02*
X212442571Y-112481761D01*
X212966380Y-112481761D02*
X211966380Y-112481761D01*
X211966380Y-112005571D01*
X212918761Y-111243666D02*
X212966380Y-111338904D01*
X212966380Y-111529380D01*
X212918761Y-111624619D01*
X212823523Y-111672238D01*
X212442571Y-111672238D01*
X212347333Y-111624619D01*
X212299714Y-111529380D01*
X212299714Y-111338904D01*
X212347333Y-111243666D01*
X212442571Y-111196047D01*
X212537809Y-111196047D01*
X212633047Y-111672238D01*
X212966380Y-110767476D02*
X212299714Y-110767476D01*
X212490190Y-110767476D02*
X212394952Y-110719857D01*
X212347333Y-110672238D01*
X212299714Y-110577000D01*
X212299714Y-110481761D01*
X212966380Y-110148428D02*
X212299714Y-110148428D01*
X212490190Y-110148428D02*
X212394952Y-110100809D01*
X212347333Y-110053190D01*
X212299714Y-109957952D01*
X212299714Y-109862714D01*
X212966380Y-109529380D02*
X212299714Y-109529380D01*
X211966380Y-109529380D02*
X212014000Y-109577000D01*
X212061619Y-109529380D01*
X212014000Y-109481761D01*
X211966380Y-109529380D01*
X212061619Y-109529380D01*
X212299714Y-109196047D02*
X212299714Y-108815095D01*
X211966380Y-109053190D02*
X212823523Y-109053190D01*
X212918761Y-109005571D01*
X212966380Y-108910333D01*
X212966380Y-108815095D01*
X212918761Y-108100809D02*
X212966380Y-108196047D01*
X212966380Y-108386523D01*
X212918761Y-108481761D01*
X212823523Y-108529380D01*
X212442571Y-108529380D01*
X212347333Y-108481761D01*
X212299714Y-108386523D01*
X212299714Y-108196047D01*
X212347333Y-108100809D01*
X212442571Y-108053190D01*
X212537809Y-108053190D01*
X212633047Y-108529380D01*
X213061619Y-107862714D02*
X213061619Y-107100809D01*
X212442571Y-106529380D02*
X212490190Y-106386523D01*
X212537809Y-106338904D01*
X212633047Y-106291285D01*
X212775904Y-106291285D01*
X212871142Y-106338904D01*
X212918761Y-106386523D01*
X212966380Y-106481761D01*
X212966380Y-106862714D01*
X211966380Y-106862714D01*
X211966380Y-106529380D01*
X212014000Y-106434142D01*
X212061619Y-106386523D01*
X212156857Y-106338904D01*
X212252095Y-106338904D01*
X212347333Y-106386523D01*
X212394952Y-106434142D01*
X212442571Y-106529380D01*
X212442571Y-106862714D01*
X212918761Y-105481761D02*
X212966380Y-105577000D01*
X212966380Y-105767476D01*
X212918761Y-105862714D01*
X212823523Y-105910333D01*
X212442571Y-105910333D01*
X212347333Y-105862714D01*
X212299714Y-105767476D01*
X212299714Y-105577000D01*
X212347333Y-105481761D01*
X212442571Y-105434142D01*
X212537809Y-105434142D01*
X212633047Y-105910333D01*
X212966380Y-104577000D02*
X212442571Y-104577000D01*
X212347333Y-104624619D01*
X212299714Y-104719857D01*
X212299714Y-104910333D01*
X212347333Y-105005571D01*
X212918761Y-104577000D02*
X212966380Y-104672238D01*
X212966380Y-104910333D01*
X212918761Y-105005571D01*
X212823523Y-105053190D01*
X212728285Y-105053190D01*
X212633047Y-105005571D01*
X212585428Y-104910333D01*
X212585428Y-104672238D01*
X212537809Y-104577000D01*
X212966380Y-103672238D02*
X211966380Y-103672238D01*
X212918761Y-103672238D02*
X212966380Y-103767476D01*
X212966380Y-103957952D01*
X212918761Y-104053190D01*
X212871142Y-104100809D01*
X212775904Y-104148428D01*
X212490190Y-104148428D01*
X212394952Y-104100809D01*
X212347333Y-104053190D01*
X212299714Y-103957952D01*
X212299714Y-103767476D01*
X212347333Y-103672238D01*
X90003380Y-49037714D02*
X91003380Y-48371047D01*
X90003380Y-48371047D02*
X91003380Y-49037714D01*
X91003380Y-47466285D02*
X91003380Y-48037714D01*
X91003380Y-47752000D02*
X90003380Y-47752000D01*
X90146238Y-47847238D01*
X90241476Y-47942476D01*
X90289095Y-48037714D01*
X90003380Y-46847238D02*
X90003380Y-46752000D01*
X90051000Y-46656761D01*
X90098619Y-46609142D01*
X90193857Y-46561523D01*
X90384333Y-46513904D01*
X90622428Y-46513904D01*
X90812904Y-46561523D01*
X90908142Y-46609142D01*
X90955761Y-46656761D01*
X91003380Y-46752000D01*
X91003380Y-46847238D01*
X90955761Y-46942476D01*
X90908142Y-46990095D01*
X90812904Y-47037714D01*
X90622428Y-47085333D01*
X90384333Y-47085333D01*
X90193857Y-47037714D01*
X90098619Y-46990095D01*
X90051000Y-46942476D01*
X90003380Y-46847238D01*
X228615976Y-103719380D02*
X228615976Y-104433666D01*
X228568357Y-104576523D01*
X228473119Y-104671761D01*
X228330261Y-104719380D01*
X228235023Y-104719380D01*
X229615976Y-104719380D02*
X229044547Y-104719380D01*
X229330261Y-104719380D02*
X229330261Y-103719380D01*
X229235023Y-103862238D01*
X229139785Y-103957476D01*
X229044547Y-104005095D01*
X230235023Y-103719380D02*
X230330261Y-103719380D01*
X230425500Y-103767000D01*
X230473119Y-103814619D01*
X230520738Y-103909857D01*
X230568357Y-104100333D01*
X230568357Y-104338428D01*
X230520738Y-104528904D01*
X230473119Y-104624142D01*
X230425500Y-104671761D01*
X230330261Y-104719380D01*
X230235023Y-104719380D01*
X230139785Y-104671761D01*
X230092166Y-104624142D01*
X230044547Y-104528904D01*
X229996928Y-104338428D01*
X229996928Y-104100333D01*
X230044547Y-103909857D01*
X230092166Y-103814619D01*
X230139785Y-103767000D01*
X230235023Y-103719380D01*
X231902023Y-103846380D02*
X231425833Y-103846380D01*
X231378214Y-104322571D01*
X231425833Y-104274952D01*
X231521071Y-104227333D01*
X231759166Y-104227333D01*
X231854404Y-104274952D01*
X231902023Y-104322571D01*
X231949642Y-104417809D01*
X231949642Y-104655904D01*
X231902023Y-104751142D01*
X231854404Y-104798761D01*
X231759166Y-104846380D01*
X231521071Y-104846380D01*
X231425833Y-104798761D01*
X231378214Y-104751142D01*
X232235357Y-103846380D02*
X232568690Y-104846380D01*
X232902023Y-103846380D01*
X194357666Y-60920380D02*
X194357666Y-61634666D01*
X194310047Y-61777523D01*
X194214809Y-61872761D01*
X194071952Y-61920380D01*
X193976714Y-61920380D01*
X194976714Y-61348952D02*
X194881476Y-61301333D01*
X194833857Y-61253714D01*
X194786238Y-61158476D01*
X194786238Y-61110857D01*
X194833857Y-61015619D01*
X194881476Y-60968000D01*
X194976714Y-60920380D01*
X195167190Y-60920380D01*
X195262428Y-60968000D01*
X195310047Y-61015619D01*
X195357666Y-61110857D01*
X195357666Y-61158476D01*
X195310047Y-61253714D01*
X195262428Y-61301333D01*
X195167190Y-61348952D01*
X194976714Y-61348952D01*
X194881476Y-61396571D01*
X194833857Y-61444190D01*
X194786238Y-61539428D01*
X194786238Y-61729904D01*
X194833857Y-61825142D01*
X194881476Y-61872761D01*
X194976714Y-61920380D01*
X195167190Y-61920380D01*
X195262428Y-61872761D01*
X195310047Y-61825142D01*
X195357666Y-61729904D01*
X195357666Y-61539428D01*
X195310047Y-61444190D01*
X195262428Y-61396571D01*
X195167190Y-61348952D01*
X197278785Y-61206071D02*
X197421642Y-61253690D01*
X197469261Y-61301309D01*
X197516880Y-61396547D01*
X197516880Y-61539404D01*
X197469261Y-61634642D01*
X197421642Y-61682261D01*
X197326404Y-61729880D01*
X196945452Y-61729880D01*
X196945452Y-60729880D01*
X197278785Y-60729880D01*
X197374023Y-60777500D01*
X197421642Y-60825119D01*
X197469261Y-60920357D01*
X197469261Y-61015595D01*
X197421642Y-61110833D01*
X197374023Y-61158452D01*
X197278785Y-61206071D01*
X196945452Y-61206071D01*
X198374023Y-61729880D02*
X198374023Y-61206071D01*
X198326404Y-61110833D01*
X198231166Y-61063214D01*
X198040690Y-61063214D01*
X197945452Y-61110833D01*
X198374023Y-61682261D02*
X198278785Y-61729880D01*
X198040690Y-61729880D01*
X197945452Y-61682261D01*
X197897833Y-61587023D01*
X197897833Y-61491785D01*
X197945452Y-61396547D01*
X198040690Y-61348928D01*
X198278785Y-61348928D01*
X198374023Y-61301309D01*
X199278785Y-61063214D02*
X199278785Y-61729880D01*
X198850214Y-61063214D02*
X198850214Y-61587023D01*
X198897833Y-61682261D01*
X198993071Y-61729880D01*
X199135928Y-61729880D01*
X199231166Y-61682261D01*
X199278785Y-61634642D01*
X200183547Y-61729880D02*
X200183547Y-60729880D01*
X200183547Y-61682261D02*
X200088309Y-61729880D01*
X199897833Y-61729880D01*
X199802595Y-61682261D01*
X199754976Y-61634642D01*
X199707357Y-61539404D01*
X199707357Y-61253690D01*
X199754976Y-61158452D01*
X199802595Y-61110833D01*
X199897833Y-61063214D01*
X200088309Y-61063214D01*
X200183547Y-61110833D01*
X206941809Y-61825190D02*
X206941809Y-62301380D01*
X206608476Y-61301380D02*
X206941809Y-61825190D01*
X207275142Y-61301380D01*
X207560857Y-61396619D02*
X207608476Y-61349000D01*
X207703714Y-61301380D01*
X207941809Y-61301380D01*
X208037047Y-61349000D01*
X208084666Y-61396619D01*
X208132285Y-61491857D01*
X208132285Y-61587095D01*
X208084666Y-61729952D01*
X207513238Y-62301380D01*
X208132285Y-62301380D01*
X195278857Y-64254119D02*
X195326476Y-64206500D01*
X195421714Y-64158880D01*
X195659809Y-64158880D01*
X195755047Y-64206500D01*
X195802666Y-64254119D01*
X195850285Y-64349357D01*
X195850285Y-64444595D01*
X195802666Y-64587452D01*
X195231238Y-65158880D01*
X195850285Y-65158880D01*
X196278857Y-65063642D02*
X196326476Y-65111261D01*
X196278857Y-65158880D01*
X196231238Y-65111261D01*
X196278857Y-65063642D01*
X196278857Y-65158880D01*
X197183619Y-64492214D02*
X197183619Y-65158880D01*
X196945523Y-64111261D02*
X196707428Y-64825547D01*
X197326476Y-64825547D01*
X198183619Y-64158880D02*
X197707428Y-64158880D01*
X197659809Y-64635071D01*
X197707428Y-64587452D01*
X197802666Y-64539833D01*
X198040761Y-64539833D01*
X198136000Y-64587452D01*
X198183619Y-64635071D01*
X198231238Y-64730309D01*
X198231238Y-64968404D01*
X198183619Y-65063642D01*
X198136000Y-65111261D01*
X198040761Y-65158880D01*
X197802666Y-65158880D01*
X197707428Y-65111261D01*
X197659809Y-65063642D01*
X198564571Y-64158880D02*
X199231238Y-64158880D01*
X198802666Y-65158880D01*
X200040761Y-64158880D02*
X199850285Y-64158880D01*
X199755047Y-64206500D01*
X199707428Y-64254119D01*
X199612190Y-64396976D01*
X199564571Y-64587452D01*
X199564571Y-64968404D01*
X199612190Y-65063642D01*
X199659809Y-65111261D01*
X199755047Y-65158880D01*
X199945523Y-65158880D01*
X200040761Y-65111261D01*
X200088380Y-65063642D01*
X200136000Y-64968404D01*
X200136000Y-64730309D01*
X200088380Y-64635071D01*
X200040761Y-64587452D01*
X199945523Y-64539833D01*
X199755047Y-64539833D01*
X199659809Y-64587452D01*
X199612190Y-64635071D01*
X199564571Y-64730309D01*
X200564571Y-65158880D02*
X200564571Y-64158880D01*
X200897904Y-64873166D01*
X201231238Y-64158880D01*
X201231238Y-65158880D01*
X201707428Y-65158880D02*
X201707428Y-64158880D01*
X202136000Y-65158880D02*
X202136000Y-64635071D01*
X202088380Y-64539833D01*
X201993142Y-64492214D01*
X201850285Y-64492214D01*
X201755047Y-64539833D01*
X201707428Y-64587452D01*
X202516952Y-64492214D02*
X203040761Y-64492214D01*
X202516952Y-65158880D01*
X203040761Y-65158880D01*
X192151095Y-64158880D02*
X192151095Y-64968404D01*
X192198714Y-65063642D01*
X192246333Y-65111261D01*
X192341571Y-65158880D01*
X192532047Y-65158880D01*
X192627285Y-65111261D01*
X192674904Y-65063642D01*
X192722523Y-64968404D01*
X192722523Y-64158880D01*
X193246333Y-65158880D02*
X193436809Y-65158880D01*
X193532047Y-65111261D01*
X193579666Y-65063642D01*
X193674904Y-64920785D01*
X193722523Y-64730309D01*
X193722523Y-64349357D01*
X193674904Y-64254119D01*
X193627285Y-64206500D01*
X193532047Y-64158880D01*
X193341571Y-64158880D01*
X193246333Y-64206500D01*
X193198714Y-64254119D01*
X193151095Y-64349357D01*
X193151095Y-64587452D01*
X193198714Y-64682690D01*
X193246333Y-64730309D01*
X193341571Y-64777928D01*
X193532047Y-64777928D01*
X193627285Y-64730309D01*
X193674904Y-64682690D01*
X193722523Y-64587452D01*
X194445404Y-70318380D02*
X195112071Y-70318380D01*
X194683500Y-71318380D01*
X195921595Y-70651714D02*
X195921595Y-71318380D01*
X195683500Y-70270761D02*
X195445404Y-70985047D01*
X196064452Y-70985047D01*
X196445404Y-71318380D02*
X196445404Y-70318380D01*
X196445404Y-70794571D02*
X197016833Y-70794571D01*
X197016833Y-71318380D02*
X197016833Y-70318380D01*
X198064452Y-71223142D02*
X198016833Y-71270761D01*
X197873976Y-71318380D01*
X197778738Y-71318380D01*
X197635880Y-71270761D01*
X197540642Y-71175523D01*
X197493023Y-71080285D01*
X197445404Y-70889809D01*
X197445404Y-70746952D01*
X197493023Y-70556476D01*
X197540642Y-70461238D01*
X197635880Y-70366000D01*
X197778738Y-70318380D01*
X197873976Y-70318380D01*
X198016833Y-70366000D01*
X198064452Y-70413619D01*
X198921595Y-70651714D02*
X198921595Y-71318380D01*
X198683500Y-70270761D02*
X198445404Y-70985047D01*
X199064452Y-70985047D01*
X199635880Y-70318380D02*
X199731119Y-70318380D01*
X199826357Y-70366000D01*
X199873976Y-70413619D01*
X199921595Y-70508857D01*
X199969214Y-70699333D01*
X199969214Y-70937428D01*
X199921595Y-71127904D01*
X199873976Y-71223142D01*
X199826357Y-71270761D01*
X199731119Y-71318380D01*
X199635880Y-71318380D01*
X199540642Y-71270761D01*
X199493023Y-71223142D01*
X199445404Y-71127904D01*
X199397785Y-70937428D01*
X199397785Y-70699333D01*
X199445404Y-70508857D01*
X199493023Y-70413619D01*
X199540642Y-70366000D01*
X199635880Y-70318380D01*
X200826357Y-70318380D02*
X200635880Y-70318380D01*
X200540642Y-70366000D01*
X200493023Y-70413619D01*
X200397785Y-70556476D01*
X200350166Y-70746952D01*
X200350166Y-71127904D01*
X200397785Y-71223142D01*
X200445404Y-71270761D01*
X200540642Y-71318380D01*
X200731119Y-71318380D01*
X200826357Y-71270761D01*
X200873976Y-71223142D01*
X200921595Y-71127904D01*
X200921595Y-70889809D01*
X200873976Y-70794571D01*
X200826357Y-70746952D01*
X200731119Y-70699333D01*
X200540642Y-70699333D01*
X200445404Y-70746952D01*
X200397785Y-70794571D01*
X200350166Y-70889809D01*
X201540642Y-70318380D02*
X201635880Y-70318380D01*
X201731119Y-70366000D01*
X201778738Y-70413619D01*
X201826357Y-70508857D01*
X201873976Y-70699333D01*
X201873976Y-70937428D01*
X201826357Y-71127904D01*
X201778738Y-71223142D01*
X201731119Y-71270761D01*
X201635880Y-71318380D01*
X201540642Y-71318380D01*
X201445404Y-71270761D01*
X201397785Y-71223142D01*
X201350166Y-71127904D01*
X201302547Y-70937428D01*
X201302547Y-70699333D01*
X201350166Y-70508857D01*
X201397785Y-70413619D01*
X201445404Y-70366000D01*
X201540642Y-70318380D01*
X157607095Y-42505880D02*
X157607095Y-43315404D01*
X157654714Y-43410642D01*
X157702333Y-43458261D01*
X157797571Y-43505880D01*
X157988047Y-43505880D01*
X158083285Y-43458261D01*
X158130904Y-43410642D01*
X158178523Y-43315404D01*
X158178523Y-42505880D01*
X158797571Y-42934452D02*
X158702333Y-42886833D01*
X158654714Y-42839214D01*
X158607095Y-42743976D01*
X158607095Y-42696357D01*
X158654714Y-42601119D01*
X158702333Y-42553500D01*
X158797571Y-42505880D01*
X158988047Y-42505880D01*
X159083285Y-42553500D01*
X159130904Y-42601119D01*
X159178523Y-42696357D01*
X159178523Y-42743976D01*
X159130904Y-42839214D01*
X159083285Y-42886833D01*
X158988047Y-42934452D01*
X158797571Y-42934452D01*
X158702333Y-42982071D01*
X158654714Y-43029690D01*
X158607095Y-43124928D01*
X158607095Y-43315404D01*
X158654714Y-43410642D01*
X158702333Y-43458261D01*
X158797571Y-43505880D01*
X158988047Y-43505880D01*
X159083285Y-43458261D01*
X159130904Y-43410642D01*
X159178523Y-43315404D01*
X159178523Y-43124928D01*
X159130904Y-43029690D01*
X159083285Y-42982071D01*
X158988047Y-42934452D01*
X188166619Y-63254452D02*
X188071380Y-63206833D01*
X188023761Y-63159214D01*
X187976142Y-63063976D01*
X187976142Y-63016357D01*
X188023761Y-62921119D01*
X188071380Y-62873500D01*
X188166619Y-62825880D01*
X188357095Y-62825880D01*
X188452333Y-62873500D01*
X188499952Y-62921119D01*
X188547571Y-63016357D01*
X188547571Y-63063976D01*
X188499952Y-63159214D01*
X188452333Y-63206833D01*
X188357095Y-63254452D01*
X188166619Y-63254452D01*
X188071380Y-63302071D01*
X188023761Y-63349690D01*
X187976142Y-63444928D01*
X187976142Y-63635404D01*
X188023761Y-63730642D01*
X188071380Y-63778261D01*
X188166619Y-63825880D01*
X188357095Y-63825880D01*
X188452333Y-63778261D01*
X188499952Y-63730642D01*
X188547571Y-63635404D01*
X188547571Y-63444928D01*
X188499952Y-63349690D01*
X188452333Y-63302071D01*
X188357095Y-63254452D01*
X188928523Y-62921119D02*
X188976142Y-62873500D01*
X189071380Y-62825880D01*
X189309476Y-62825880D01*
X189404714Y-62873500D01*
X189452333Y-62921119D01*
X189499952Y-63016357D01*
X189499952Y-63111595D01*
X189452333Y-63254452D01*
X188880904Y-63825880D01*
X189499952Y-63825880D01*
X190404714Y-62825880D02*
X189928523Y-62825880D01*
X189880904Y-63302071D01*
X189928523Y-63254452D01*
X190023761Y-63206833D01*
X190261857Y-63206833D01*
X190357095Y-63254452D01*
X190404714Y-63302071D01*
X190452333Y-63397309D01*
X190452333Y-63635404D01*
X190404714Y-63730642D01*
X190357095Y-63778261D01*
X190261857Y-63825880D01*
X190023761Y-63825880D01*
X189928523Y-63778261D01*
X189880904Y-63730642D01*
X191404714Y-63825880D02*
X190833285Y-63825880D01*
X191119000Y-63825880D02*
X191119000Y-62825880D01*
X191023761Y-62968738D01*
X190928523Y-63063976D01*
X190833285Y-63111595D01*
X191785666Y-63540166D02*
X192261857Y-63540166D01*
X191690428Y-63825880D02*
X192023761Y-62825880D01*
X192357095Y-63825880D01*
X141859095Y-63841180D02*
X141859095Y-64650704D01*
X141906714Y-64745942D01*
X141954333Y-64793561D01*
X142049571Y-64841180D01*
X142240047Y-64841180D01*
X142335285Y-64793561D01*
X142382904Y-64745942D01*
X142430523Y-64650704D01*
X142430523Y-63841180D01*
X143335285Y-63841180D02*
X143144809Y-63841180D01*
X143049571Y-63888800D01*
X143001952Y-63936419D01*
X142906714Y-64079276D01*
X142859095Y-64269752D01*
X142859095Y-64650704D01*
X142906714Y-64745942D01*
X142954333Y-64793561D01*
X143049571Y-64841180D01*
X143240047Y-64841180D01*
X143335285Y-64793561D01*
X143382904Y-64745942D01*
X143430523Y-64650704D01*
X143430523Y-64412609D01*
X143382904Y-64317371D01*
X143335285Y-64269752D01*
X143240047Y-64222133D01*
X143049571Y-64222133D01*
X142954333Y-64269752D01*
X142906714Y-64317371D01*
X142859095Y-64412609D01*
X135056952Y-75207880D02*
X135723619Y-75207880D01*
X135295047Y-76207880D01*
X136533142Y-75541214D02*
X136533142Y-76207880D01*
X136295047Y-75160261D02*
X136056952Y-75874547D01*
X136676000Y-75874547D01*
X137533142Y-76207880D02*
X137056952Y-76207880D01*
X137056952Y-75207880D01*
X137818857Y-76160261D02*
X137961714Y-76207880D01*
X138199809Y-76207880D01*
X138295047Y-76160261D01*
X138342666Y-76112642D01*
X138390285Y-76017404D01*
X138390285Y-75922166D01*
X138342666Y-75826928D01*
X138295047Y-75779309D01*
X138199809Y-75731690D01*
X138009333Y-75684071D01*
X137914095Y-75636452D01*
X137866476Y-75588833D01*
X137818857Y-75493595D01*
X137818857Y-75398357D01*
X137866476Y-75303119D01*
X137914095Y-75255500D01*
X138009333Y-75207880D01*
X138247428Y-75207880D01*
X138390285Y-75255500D01*
X139342666Y-76207880D02*
X138771238Y-76207880D01*
X139056952Y-76207880D02*
X139056952Y-75207880D01*
X138961714Y-75350738D01*
X138866476Y-75445976D01*
X138771238Y-75493595D01*
X139676000Y-75207880D02*
X140295047Y-75207880D01*
X139961714Y-75588833D01*
X140104571Y-75588833D01*
X140199809Y-75636452D01*
X140247428Y-75684071D01*
X140295047Y-75779309D01*
X140295047Y-76017404D01*
X140247428Y-76112642D01*
X140199809Y-76160261D01*
X140104571Y-76207880D01*
X139818857Y-76207880D01*
X139723619Y-76160261D01*
X139676000Y-76112642D01*
X140866476Y-75636452D02*
X140771238Y-75588833D01*
X140723619Y-75541214D01*
X140676000Y-75445976D01*
X140676000Y-75398357D01*
X140723619Y-75303119D01*
X140771238Y-75255500D01*
X140866476Y-75207880D01*
X141056952Y-75207880D01*
X141152190Y-75255500D01*
X141199809Y-75303119D01*
X141247428Y-75398357D01*
X141247428Y-75445976D01*
X141199809Y-75541214D01*
X141152190Y-75588833D01*
X141056952Y-75636452D01*
X140866476Y-75636452D01*
X140771238Y-75684071D01*
X140723619Y-75731690D01*
X140676000Y-75826928D01*
X140676000Y-76017404D01*
X140723619Y-76112642D01*
X140771238Y-76160261D01*
X140866476Y-76207880D01*
X141056952Y-76207880D01*
X141152190Y-76160261D01*
X141199809Y-76112642D01*
X141247428Y-76017404D01*
X141247428Y-75826928D01*
X141199809Y-75731690D01*
X141152190Y-75684071D01*
X141056952Y-75636452D01*
X141224095Y-78192380D02*
X141224095Y-79001904D01*
X141271714Y-79097142D01*
X141319333Y-79144761D01*
X141414571Y-79192380D01*
X141605047Y-79192380D01*
X141700285Y-79144761D01*
X141747904Y-79097142D01*
X141795523Y-79001904D01*
X141795523Y-78192380D01*
X142747904Y-78192380D02*
X142271714Y-78192380D01*
X142224095Y-78668571D01*
X142271714Y-78620952D01*
X142366952Y-78573333D01*
X142605047Y-78573333D01*
X142700285Y-78620952D01*
X142747904Y-78668571D01*
X142795523Y-78763809D01*
X142795523Y-79001904D01*
X142747904Y-79097142D01*
X142700285Y-79144761D01*
X142605047Y-79192380D01*
X142366952Y-79192380D01*
X142271714Y-79144761D01*
X142224095Y-79097142D01*
X189642904Y-98512380D02*
X189452428Y-98512380D01*
X189357190Y-98560000D01*
X189309571Y-98607619D01*
X189214333Y-98750476D01*
X189166714Y-98940952D01*
X189166714Y-99321904D01*
X189214333Y-99417142D01*
X189261952Y-99464761D01*
X189357190Y-99512380D01*
X189547666Y-99512380D01*
X189642904Y-99464761D01*
X189690523Y-99417142D01*
X189738142Y-99321904D01*
X189738142Y-99083809D01*
X189690523Y-98988571D01*
X189642904Y-98940952D01*
X189547666Y-98893333D01*
X189357190Y-98893333D01*
X189261952Y-98940952D01*
X189214333Y-98988571D01*
X189166714Y-99083809D01*
X190642904Y-98512380D02*
X190166714Y-98512380D01*
X190119095Y-98988571D01*
X190166714Y-98940952D01*
X190261952Y-98893333D01*
X190500047Y-98893333D01*
X190595285Y-98940952D01*
X190642904Y-98988571D01*
X190690523Y-99083809D01*
X190690523Y-99321904D01*
X190642904Y-99417142D01*
X190595285Y-99464761D01*
X190500047Y-99512380D01*
X190261952Y-99512380D01*
X190166714Y-99464761D01*
X190119095Y-99417142D01*
X191071476Y-98607619D02*
X191119095Y-98560000D01*
X191214333Y-98512380D01*
X191452428Y-98512380D01*
X191547666Y-98560000D01*
X191595285Y-98607619D01*
X191642904Y-98702857D01*
X191642904Y-98798095D01*
X191595285Y-98940952D01*
X191023857Y-99512380D01*
X191642904Y-99512380D01*
X192023857Y-98607619D02*
X192071476Y-98560000D01*
X192166714Y-98512380D01*
X192404809Y-98512380D01*
X192500047Y-98560000D01*
X192547666Y-98607619D01*
X192595285Y-98702857D01*
X192595285Y-98798095D01*
X192547666Y-98940952D01*
X191976238Y-99512380D01*
X192595285Y-99512380D01*
X96266095Y-65428880D02*
X96266095Y-66238404D01*
X96313714Y-66333642D01*
X96361333Y-66381261D01*
X96456571Y-66428880D01*
X96647047Y-66428880D01*
X96742285Y-66381261D01*
X96789904Y-66333642D01*
X96837523Y-66238404D01*
X96837523Y-65428880D01*
X97742285Y-65762214D02*
X97742285Y-66428880D01*
X97504190Y-65381261D02*
X97266095Y-66095547D01*
X97885142Y-66095547D01*
X128183047Y-64968380D02*
X128183047Y-63968380D01*
X128611619Y-64920761D02*
X128754476Y-64968380D01*
X128992571Y-64968380D01*
X129087809Y-64920761D01*
X129135428Y-64873142D01*
X129183047Y-64777904D01*
X129183047Y-64682666D01*
X129135428Y-64587428D01*
X129087809Y-64539809D01*
X128992571Y-64492190D01*
X128802095Y-64444571D01*
X128706857Y-64396952D01*
X128659238Y-64349333D01*
X128611619Y-64254095D01*
X128611619Y-64158857D01*
X128659238Y-64063619D01*
X128706857Y-64016000D01*
X128802095Y-63968380D01*
X129040190Y-63968380D01*
X129183047Y-64016000D01*
X130040190Y-63968380D02*
X129849714Y-63968380D01*
X129754476Y-64016000D01*
X129706857Y-64063619D01*
X129611619Y-64206476D01*
X129564000Y-64396952D01*
X129564000Y-64777904D01*
X129611619Y-64873142D01*
X129659238Y-64920761D01*
X129754476Y-64968380D01*
X129944952Y-64968380D01*
X130040190Y-64920761D01*
X130087809Y-64873142D01*
X130135428Y-64777904D01*
X130135428Y-64539809D01*
X130087809Y-64444571D01*
X130040190Y-64396952D01*
X129944952Y-64349333D01*
X129754476Y-64349333D01*
X129659238Y-64396952D01*
X129611619Y-64444571D01*
X129564000Y-64539809D01*
X131087809Y-64968380D02*
X130516380Y-64968380D01*
X130802095Y-64968380D02*
X130802095Y-63968380D01*
X130706857Y-64111238D01*
X130611619Y-64206476D01*
X130516380Y-64254095D01*
X132087809Y-64873142D02*
X132040190Y-64920761D01*
X131897333Y-64968380D01*
X131802095Y-64968380D01*
X131659238Y-64920761D01*
X131564000Y-64825523D01*
X131516380Y-64730285D01*
X131468761Y-64539809D01*
X131468761Y-64396952D01*
X131516380Y-64206476D01*
X131564000Y-64111238D01*
X131659238Y-64016000D01*
X131802095Y-63968380D01*
X131897333Y-63968380D01*
X132040190Y-64016000D01*
X132087809Y-64063619D01*
X132944952Y-63968380D02*
X132754476Y-63968380D01*
X132659238Y-64016000D01*
X132611619Y-64063619D01*
X132516380Y-64206476D01*
X132468761Y-64396952D01*
X132468761Y-64777904D01*
X132516380Y-64873142D01*
X132564000Y-64920761D01*
X132659238Y-64968380D01*
X132849714Y-64968380D01*
X132944952Y-64920761D01*
X132992571Y-64873142D01*
X133040190Y-64777904D01*
X133040190Y-64539809D01*
X132992571Y-64444571D01*
X132944952Y-64396952D01*
X132849714Y-64349333D01*
X132659238Y-64349333D01*
X132564000Y-64396952D01*
X132516380Y-64444571D01*
X132468761Y-64539809D01*
X133897333Y-64301714D02*
X133897333Y-64968380D01*
X133659238Y-63920761D02*
X133421142Y-64635047D01*
X134040190Y-64635047D01*
X98552095Y-41743380D02*
X98552095Y-42552904D01*
X98599714Y-42648142D01*
X98647333Y-42695761D01*
X98742571Y-42743380D01*
X98933047Y-42743380D01*
X99028285Y-42695761D01*
X99075904Y-42648142D01*
X99123523Y-42552904D01*
X99123523Y-41743380D01*
X99552095Y-41838619D02*
X99599714Y-41791000D01*
X99694952Y-41743380D01*
X99933047Y-41743380D01*
X100028285Y-41791000D01*
X100075904Y-41838619D01*
X100123523Y-41933857D01*
X100123523Y-42029095D01*
X100075904Y-42171952D01*
X99504476Y-42743380D01*
X100123523Y-42743380D01*
X146462904Y-62063380D02*
X146272428Y-62063380D01*
X146177190Y-62111000D01*
X146129571Y-62158619D01*
X146034333Y-62301476D01*
X145986714Y-62491952D01*
X145986714Y-62872904D01*
X146034333Y-62968142D01*
X146081952Y-63015761D01*
X146177190Y-63063380D01*
X146367666Y-63063380D01*
X146462904Y-63015761D01*
X146510523Y-62968142D01*
X146558142Y-62872904D01*
X146558142Y-62634809D01*
X146510523Y-62539571D01*
X146462904Y-62491952D01*
X146367666Y-62444333D01*
X146177190Y-62444333D01*
X146081952Y-62491952D01*
X146034333Y-62539571D01*
X145986714Y-62634809D01*
X147462904Y-62063380D02*
X146986714Y-62063380D01*
X146939095Y-62539571D01*
X146986714Y-62491952D01*
X147081952Y-62444333D01*
X147320047Y-62444333D01*
X147415285Y-62491952D01*
X147462904Y-62539571D01*
X147510523Y-62634809D01*
X147510523Y-62872904D01*
X147462904Y-62968142D01*
X147415285Y-63015761D01*
X147320047Y-63063380D01*
X147081952Y-63063380D01*
X146986714Y-63015761D01*
X146939095Y-62968142D01*
X148129571Y-62063380D02*
X148224809Y-62063380D01*
X148320047Y-62111000D01*
X148367666Y-62158619D01*
X148415285Y-62253857D01*
X148462904Y-62444333D01*
X148462904Y-62682428D01*
X148415285Y-62872904D01*
X148367666Y-62968142D01*
X148320047Y-63015761D01*
X148224809Y-63063380D01*
X148129571Y-63063380D01*
X148034333Y-63015761D01*
X147986714Y-62968142D01*
X147939095Y-62872904D01*
X147891476Y-62682428D01*
X147891476Y-62444333D01*
X147939095Y-62253857D01*
X147986714Y-62158619D01*
X148034333Y-62111000D01*
X148129571Y-62063380D01*
X148843857Y-62158619D02*
X148891476Y-62111000D01*
X148986714Y-62063380D01*
X149224809Y-62063380D01*
X149320047Y-62111000D01*
X149367666Y-62158619D01*
X149415285Y-62253857D01*
X149415285Y-62349095D01*
X149367666Y-62491952D01*
X148796238Y-63063380D01*
X149415285Y-63063380D01*
X216288880Y-66555857D02*
X215812690Y-66889190D01*
X216288880Y-67127285D02*
X215288880Y-67127285D01*
X215288880Y-66746333D01*
X215336500Y-66651095D01*
X215384119Y-66603476D01*
X215479357Y-66555857D01*
X215622214Y-66555857D01*
X215717452Y-66603476D01*
X215765071Y-66651095D01*
X215812690Y-66746333D01*
X215812690Y-67127285D01*
X215288880Y-66222523D02*
X215288880Y-65603476D01*
X215669833Y-65936809D01*
X215669833Y-65793952D01*
X215717452Y-65698714D01*
X215765071Y-65651095D01*
X215860309Y-65603476D01*
X216098404Y-65603476D01*
X216193642Y-65651095D01*
X216241261Y-65698714D01*
X216288880Y-65793952D01*
X216288880Y-66079666D01*
X216241261Y-66174904D01*
X216193642Y-66222523D01*
X215717452Y-65032047D02*
X215669833Y-65127285D01*
X215622214Y-65174904D01*
X215526976Y-65222523D01*
X215479357Y-65222523D01*
X215384119Y-65174904D01*
X215336500Y-65127285D01*
X215288880Y-65032047D01*
X215288880Y-64841571D01*
X215336500Y-64746333D01*
X215384119Y-64698714D01*
X215479357Y-64651095D01*
X215526976Y-64651095D01*
X215622214Y-64698714D01*
X215669833Y-64746333D01*
X215717452Y-64841571D01*
X215717452Y-65032047D01*
X215765071Y-65127285D01*
X215812690Y-65174904D01*
X215907928Y-65222523D01*
X216098404Y-65222523D01*
X216193642Y-65174904D01*
X216241261Y-65127285D01*
X216288880Y-65032047D01*
X216288880Y-64841571D01*
X216241261Y-64746333D01*
X216193642Y-64698714D01*
X216098404Y-64651095D01*
X215907928Y-64651095D01*
X215812690Y-64698714D01*
X215765071Y-64746333D01*
X215717452Y-64841571D01*
X218447880Y-71215214D02*
X218447880Y-71786642D01*
X218447880Y-71500928D02*
X217447880Y-71500928D01*
X217590738Y-71596166D01*
X217685976Y-71691404D01*
X217733595Y-71786642D01*
X218447880Y-70786642D02*
X217447880Y-70786642D01*
X218162166Y-70453309D01*
X217447880Y-70119976D01*
X218447880Y-70119976D01*
X177633333Y-77604880D02*
X177300000Y-77128690D01*
X177061904Y-77604880D02*
X177061904Y-76604880D01*
X177442857Y-76604880D01*
X177538095Y-76652500D01*
X177585714Y-76700119D01*
X177633333Y-76795357D01*
X177633333Y-76938214D01*
X177585714Y-77033452D01*
X177538095Y-77081071D01*
X177442857Y-77128690D01*
X177061904Y-77128690D01*
X178585714Y-77604880D02*
X178014285Y-77604880D01*
X178300000Y-77604880D02*
X178300000Y-76604880D01*
X178204761Y-76747738D01*
X178109523Y-76842976D01*
X178014285Y-76890595D01*
X177236523Y-79319380D02*
X176665095Y-79319380D01*
X176950809Y-79319380D02*
X176950809Y-78319380D01*
X176855571Y-78462238D01*
X176760333Y-78557476D01*
X176665095Y-78605095D01*
X177855571Y-78319380D02*
X177950809Y-78319380D01*
X178046047Y-78367000D01*
X178093666Y-78414619D01*
X178141285Y-78509857D01*
X178188904Y-78700333D01*
X178188904Y-78938428D01*
X178141285Y-79128904D01*
X178093666Y-79224142D01*
X178046047Y-79271761D01*
X177950809Y-79319380D01*
X177855571Y-79319380D01*
X177760333Y-79271761D01*
X177712714Y-79224142D01*
X177665095Y-79128904D01*
X177617476Y-78938428D01*
X177617476Y-78700333D01*
X177665095Y-78509857D01*
X177712714Y-78414619D01*
X177760333Y-78367000D01*
X177855571Y-78319380D01*
X178617476Y-79319380D02*
X178617476Y-78319380D01*
X179188904Y-79319380D02*
X178760333Y-78747952D01*
X179188904Y-78319380D02*
X178617476Y-78890809D01*
X221599166Y-40981380D02*
X221599166Y-41695666D01*
X221551547Y-41838523D01*
X221456309Y-41933761D01*
X221313452Y-41981380D01*
X221218214Y-41981380D01*
X221980119Y-40981380D02*
X222646785Y-40981380D01*
X222218214Y-41981380D01*
X227560476Y-41997261D02*
X227703333Y-42044880D01*
X227941428Y-42044880D01*
X228036666Y-41997261D01*
X228084285Y-41949642D01*
X228131904Y-41854404D01*
X228131904Y-41759166D01*
X228084285Y-41663928D01*
X228036666Y-41616309D01*
X227941428Y-41568690D01*
X227750952Y-41521071D01*
X227655714Y-41473452D01*
X227608095Y-41425833D01*
X227560476Y-41330595D01*
X227560476Y-41235357D01*
X227608095Y-41140119D01*
X227655714Y-41092500D01*
X227750952Y-41044880D01*
X227989047Y-41044880D01*
X228131904Y-41092500D01*
X228560476Y-41521071D02*
X228893809Y-41521071D01*
X229036666Y-42044880D02*
X228560476Y-42044880D01*
X228560476Y-41044880D01*
X229036666Y-41044880D01*
X230036666Y-42044880D02*
X229703333Y-41568690D01*
X229465238Y-42044880D02*
X229465238Y-41044880D01*
X229846190Y-41044880D01*
X229941428Y-41092500D01*
X229989047Y-41140119D01*
X230036666Y-41235357D01*
X230036666Y-41378214D01*
X229989047Y-41473452D01*
X229941428Y-41521071D01*
X229846190Y-41568690D01*
X229465238Y-41568690D01*
X230465238Y-42044880D02*
X230465238Y-41044880D01*
X230893809Y-41759166D02*
X231370000Y-41759166D01*
X230798571Y-42044880D02*
X231131904Y-41044880D01*
X231465238Y-42044880D01*
X232274761Y-42044880D02*
X231798571Y-42044880D01*
X231798571Y-41044880D01*
X195881666Y-40937380D02*
X195881666Y-41651666D01*
X195834047Y-41794523D01*
X195738809Y-41889761D01*
X195595952Y-41937380D01*
X195500714Y-41937380D01*
X196786428Y-40937380D02*
X196595952Y-40937380D01*
X196500714Y-40985000D01*
X196453095Y-41032619D01*
X196357857Y-41175476D01*
X196310238Y-41365952D01*
X196310238Y-41746904D01*
X196357857Y-41842142D01*
X196405476Y-41889761D01*
X196500714Y-41937380D01*
X196691190Y-41937380D01*
X196786428Y-41889761D01*
X196834047Y-41842142D01*
X196881666Y-41746904D01*
X196881666Y-41508809D01*
X196834047Y-41413571D01*
X196786428Y-41365952D01*
X196691190Y-41318333D01*
X196500714Y-41318333D01*
X196405476Y-41365952D01*
X196357857Y-41413571D01*
X196310238Y-41508809D01*
X199818666Y-40937380D02*
X199818666Y-41651666D01*
X199771047Y-41794523D01*
X199675809Y-41889761D01*
X199532952Y-41937380D01*
X199437714Y-41937380D01*
X200771047Y-40937380D02*
X200294857Y-40937380D01*
X200247238Y-41413571D01*
X200294857Y-41365952D01*
X200390095Y-41318333D01*
X200628190Y-41318333D01*
X200723428Y-41365952D01*
X200771047Y-41413571D01*
X200818666Y-41508809D01*
X200818666Y-41746904D01*
X200771047Y-41842142D01*
X200723428Y-41889761D01*
X200628190Y-41937380D01*
X200390095Y-41937380D01*
X200294857Y-41889761D01*
X200247238Y-41842142D01*
X203882666Y-40937380D02*
X203882666Y-41651666D01*
X203835047Y-41794523D01*
X203739809Y-41889761D01*
X203596952Y-41937380D01*
X203501714Y-41937380D01*
X204787428Y-41270714D02*
X204787428Y-41937380D01*
X204549333Y-40889761D02*
X204311238Y-41604047D01*
X204930285Y-41604047D01*
X213796642Y-55792642D02*
X213749023Y-55840261D01*
X213606166Y-55887880D01*
X213510928Y-55887880D01*
X213368071Y-55840261D01*
X213272833Y-55745023D01*
X213225214Y-55649785D01*
X213177595Y-55459309D01*
X213177595Y-55316452D01*
X213225214Y-55125976D01*
X213272833Y-55030738D01*
X213368071Y-54935500D01*
X213510928Y-54887880D01*
X213606166Y-54887880D01*
X213749023Y-54935500D01*
X213796642Y-54983119D01*
X214749023Y-55887880D02*
X214177595Y-55887880D01*
X214463309Y-55887880D02*
X214463309Y-54887880D01*
X214368071Y-55030738D01*
X214272833Y-55125976D01*
X214177595Y-55173595D01*
X215082357Y-54887880D02*
X215749023Y-54887880D01*
X215320452Y-55887880D01*
X210875714Y-57332619D02*
X210923333Y-57285000D01*
X211018571Y-57237380D01*
X211256666Y-57237380D01*
X211351904Y-57285000D01*
X211399523Y-57332619D01*
X211447142Y-57427857D01*
X211447142Y-57523095D01*
X211399523Y-57665952D01*
X210828095Y-58237380D01*
X211447142Y-58237380D01*
X211828095Y-57332619D02*
X211875714Y-57285000D01*
X211970952Y-57237380D01*
X212209047Y-57237380D01*
X212304285Y-57285000D01*
X212351904Y-57332619D01*
X212399523Y-57427857D01*
X212399523Y-57523095D01*
X212351904Y-57665952D01*
X211780476Y-58237380D01*
X212399523Y-58237380D01*
X212828095Y-57570714D02*
X212828095Y-58570714D01*
X212828095Y-57618333D02*
X212923333Y-57570714D01*
X213113809Y-57570714D01*
X213209047Y-57618333D01*
X213256666Y-57665952D01*
X213304285Y-57761190D01*
X213304285Y-58046904D01*
X213256666Y-58142142D01*
X213209047Y-58189761D01*
X213113809Y-58237380D01*
X212923333Y-58237380D01*
X212828095Y-58189761D01*
X204803142Y-55856142D02*
X204755523Y-55903761D01*
X204612666Y-55951380D01*
X204517428Y-55951380D01*
X204374571Y-55903761D01*
X204279333Y-55808523D01*
X204231714Y-55713285D01*
X204184095Y-55522809D01*
X204184095Y-55379952D01*
X204231714Y-55189476D01*
X204279333Y-55094238D01*
X204374571Y-54999000D01*
X204517428Y-54951380D01*
X204612666Y-54951380D01*
X204755523Y-54999000D01*
X204803142Y-55046619D01*
X205755523Y-55951380D02*
X205184095Y-55951380D01*
X205469809Y-55951380D02*
X205469809Y-54951380D01*
X205374571Y-55094238D01*
X205279333Y-55189476D01*
X205184095Y-55237095D01*
X206612666Y-54951380D02*
X206422190Y-54951380D01*
X206326952Y-54999000D01*
X206279333Y-55046619D01*
X206184095Y-55189476D01*
X206136476Y-55379952D01*
X206136476Y-55760904D01*
X206184095Y-55856142D01*
X206231714Y-55903761D01*
X206326952Y-55951380D01*
X206517428Y-55951380D01*
X206612666Y-55903761D01*
X206660285Y-55856142D01*
X206707904Y-55760904D01*
X206707904Y-55522809D01*
X206660285Y-55427571D01*
X206612666Y-55379952D01*
X206517428Y-55332333D01*
X206326952Y-55332333D01*
X206231714Y-55379952D01*
X206184095Y-55427571D01*
X206136476Y-55522809D01*
X202049214Y-57332619D02*
X202096833Y-57285000D01*
X202192071Y-57237380D01*
X202430166Y-57237380D01*
X202525404Y-57285000D01*
X202573023Y-57332619D01*
X202620642Y-57427857D01*
X202620642Y-57523095D01*
X202573023Y-57665952D01*
X202001595Y-58237380D01*
X202620642Y-58237380D01*
X203001595Y-57332619D02*
X203049214Y-57285000D01*
X203144452Y-57237380D01*
X203382547Y-57237380D01*
X203477785Y-57285000D01*
X203525404Y-57332619D01*
X203573023Y-57427857D01*
X203573023Y-57523095D01*
X203525404Y-57665952D01*
X202953976Y-58237380D01*
X203573023Y-58237380D01*
X204001595Y-57570714D02*
X204001595Y-58570714D01*
X204001595Y-57618333D02*
X204096833Y-57570714D01*
X204287309Y-57570714D01*
X204382547Y-57618333D01*
X204430166Y-57665952D01*
X204477785Y-57761190D01*
X204477785Y-58046904D01*
X204430166Y-58142142D01*
X204382547Y-58189761D01*
X204287309Y-58237380D01*
X204096833Y-58237380D01*
X204001595Y-58189761D01*
X221480142Y-85701142D02*
X221432523Y-85748761D01*
X221289666Y-85796380D01*
X221194428Y-85796380D01*
X221051571Y-85748761D01*
X220956333Y-85653523D01*
X220908714Y-85558285D01*
X220861095Y-85367809D01*
X220861095Y-85224952D01*
X220908714Y-85034476D01*
X220956333Y-84939238D01*
X221051571Y-84844000D01*
X221194428Y-84796380D01*
X221289666Y-84796380D01*
X221432523Y-84844000D01*
X221480142Y-84891619D01*
X222432523Y-85796380D02*
X221861095Y-85796380D01*
X222146809Y-85796380D02*
X222146809Y-84796380D01*
X222051571Y-84939238D01*
X221956333Y-85034476D01*
X221861095Y-85082095D01*
X223337285Y-84796380D02*
X222861095Y-84796380D01*
X222813476Y-85272571D01*
X222861095Y-85224952D01*
X222956333Y-85177333D01*
X223194428Y-85177333D01*
X223289666Y-85224952D01*
X223337285Y-85272571D01*
X223384904Y-85367809D01*
X223384904Y-85605904D01*
X223337285Y-85701142D01*
X223289666Y-85748761D01*
X223194428Y-85796380D01*
X222956333Y-85796380D01*
X222861095Y-85748761D01*
X222813476Y-85701142D01*
X225179071Y-85796380D02*
X224607642Y-85796380D01*
X224893357Y-85796380D02*
X224893357Y-84796380D01*
X224798119Y-84939238D01*
X224702880Y-85034476D01*
X224607642Y-85082095D01*
X225798119Y-84796380D02*
X225893357Y-84796380D01*
X225988595Y-84844000D01*
X226036214Y-84891619D01*
X226083833Y-84986857D01*
X226131452Y-85177333D01*
X226131452Y-85415428D01*
X226083833Y-85605904D01*
X226036214Y-85701142D01*
X225988595Y-85748761D01*
X225893357Y-85796380D01*
X225798119Y-85796380D01*
X225702880Y-85748761D01*
X225655261Y-85701142D01*
X225607642Y-85605904D01*
X225560023Y-85415428D01*
X225560023Y-85177333D01*
X225607642Y-84986857D01*
X225655261Y-84891619D01*
X225702880Y-84844000D01*
X225798119Y-84796380D01*
X226988595Y-85129714D02*
X226988595Y-85796380D01*
X226560023Y-85129714D02*
X226560023Y-85653523D01*
X226607642Y-85748761D01*
X226702880Y-85796380D01*
X226845738Y-85796380D01*
X226940976Y-85748761D01*
X226988595Y-85701142D01*
X227798119Y-85272571D02*
X227464785Y-85272571D01*
X227464785Y-85796380D02*
X227464785Y-84796380D01*
X227940976Y-84796380D01*
X190730142Y-71341857D02*
X190777761Y-71389476D01*
X190825380Y-71532333D01*
X190825380Y-71627571D01*
X190777761Y-71770428D01*
X190682523Y-71865666D01*
X190587285Y-71913285D01*
X190396809Y-71960904D01*
X190253952Y-71960904D01*
X190063476Y-71913285D01*
X189968238Y-71865666D01*
X189873000Y-71770428D01*
X189825380Y-71627571D01*
X189825380Y-71532333D01*
X189873000Y-71389476D01*
X189920619Y-71341857D01*
X190825380Y-70389476D02*
X190825380Y-70960904D01*
X190825380Y-70675190D02*
X189825380Y-70675190D01*
X189968238Y-70770428D01*
X190063476Y-70865666D01*
X190111095Y-70960904D01*
X189920619Y-70008523D02*
X189873000Y-69960904D01*
X189825380Y-69865666D01*
X189825380Y-69627571D01*
X189873000Y-69532333D01*
X189920619Y-69484714D01*
X190015857Y-69437095D01*
X190111095Y-69437095D01*
X190253952Y-69484714D01*
X190825380Y-70056142D01*
X190825380Y-69437095D01*
X188158380Y-71651047D02*
X188158380Y-72222476D01*
X188158380Y-71936761D02*
X187158380Y-71936761D01*
X187301238Y-72032000D01*
X187396476Y-72127238D01*
X187444095Y-72222476D01*
X187158380Y-71032000D02*
X187158380Y-70936761D01*
X187206000Y-70841523D01*
X187253619Y-70793904D01*
X187348857Y-70746285D01*
X187539333Y-70698666D01*
X187777428Y-70698666D01*
X187967904Y-70746285D01*
X188063142Y-70793904D01*
X188110761Y-70841523D01*
X188158380Y-70936761D01*
X188158380Y-71032000D01*
X188110761Y-71127238D01*
X188063142Y-71174857D01*
X187967904Y-71222476D01*
X187777428Y-71270095D01*
X187539333Y-71270095D01*
X187348857Y-71222476D01*
X187253619Y-71174857D01*
X187206000Y-71127238D01*
X187158380Y-71032000D01*
X187158380Y-70079619D02*
X187158380Y-69984380D01*
X187206000Y-69889142D01*
X187253619Y-69841523D01*
X187348857Y-69793904D01*
X187539333Y-69746285D01*
X187777428Y-69746285D01*
X187967904Y-69793904D01*
X188063142Y-69841523D01*
X188110761Y-69889142D01*
X188158380Y-69984380D01*
X188158380Y-70079619D01*
X188110761Y-70174857D01*
X188063142Y-70222476D01*
X187967904Y-70270095D01*
X187777428Y-70317714D01*
X187539333Y-70317714D01*
X187348857Y-70270095D01*
X187253619Y-70222476D01*
X187206000Y-70174857D01*
X187158380Y-70079619D01*
X187491714Y-69317714D02*
X188158380Y-69317714D01*
X187586952Y-69317714D02*
X187539333Y-69270095D01*
X187491714Y-69174857D01*
X187491714Y-69032000D01*
X187539333Y-68936761D01*
X187634571Y-68889142D01*
X188158380Y-68889142D01*
X155170142Y-53379666D02*
X155217761Y-53427285D01*
X155265380Y-53570142D01*
X155265380Y-53665380D01*
X155217761Y-53808238D01*
X155122523Y-53903476D01*
X155027285Y-53951095D01*
X154836809Y-53998714D01*
X154693952Y-53998714D01*
X154503476Y-53951095D01*
X154408238Y-53903476D01*
X154313000Y-53808238D01*
X154265380Y-53665380D01*
X154265380Y-53570142D01*
X154313000Y-53427285D01*
X154360619Y-53379666D01*
X154693952Y-52808238D02*
X154646333Y-52903476D01*
X154598714Y-52951095D01*
X154503476Y-52998714D01*
X154455857Y-52998714D01*
X154360619Y-52951095D01*
X154313000Y-52903476D01*
X154265380Y-52808238D01*
X154265380Y-52617761D01*
X154313000Y-52522523D01*
X154360619Y-52474904D01*
X154455857Y-52427285D01*
X154503476Y-52427285D01*
X154598714Y-52474904D01*
X154646333Y-52522523D01*
X154693952Y-52617761D01*
X154693952Y-52808238D01*
X154741571Y-52903476D01*
X154789190Y-52951095D01*
X154884428Y-52998714D01*
X155074904Y-52998714D01*
X155170142Y-52951095D01*
X155217761Y-52903476D01*
X155265380Y-52808238D01*
X155265380Y-52617761D01*
X155217761Y-52522523D01*
X155170142Y-52474904D01*
X155074904Y-52427285D01*
X154884428Y-52427285D01*
X154789190Y-52474904D01*
X154741571Y-52522523D01*
X154693952Y-52617761D01*
X152638380Y-54292047D02*
X152638380Y-54863476D01*
X152638380Y-54577761D02*
X151638380Y-54577761D01*
X151781238Y-54673000D01*
X151876476Y-54768238D01*
X151924095Y-54863476D01*
X151638380Y-53673000D02*
X151638380Y-53577761D01*
X151686000Y-53482523D01*
X151733619Y-53434904D01*
X151828857Y-53387285D01*
X152019333Y-53339666D01*
X152257428Y-53339666D01*
X152447904Y-53387285D01*
X152543142Y-53434904D01*
X152590761Y-53482523D01*
X152638380Y-53577761D01*
X152638380Y-53673000D01*
X152590761Y-53768238D01*
X152543142Y-53815857D01*
X152447904Y-53863476D01*
X152257428Y-53911095D01*
X152019333Y-53911095D01*
X151828857Y-53863476D01*
X151733619Y-53815857D01*
X151686000Y-53768238D01*
X151638380Y-53673000D01*
X151638380Y-52720619D02*
X151638380Y-52625380D01*
X151686000Y-52530142D01*
X151733619Y-52482523D01*
X151828857Y-52434904D01*
X152019333Y-52387285D01*
X152257428Y-52387285D01*
X152447904Y-52434904D01*
X152543142Y-52482523D01*
X152590761Y-52530142D01*
X152638380Y-52625380D01*
X152638380Y-52720619D01*
X152590761Y-52815857D01*
X152543142Y-52863476D01*
X152447904Y-52911095D01*
X152257428Y-52958714D01*
X152019333Y-52958714D01*
X151828857Y-52911095D01*
X151733619Y-52863476D01*
X151686000Y-52815857D01*
X151638380Y-52720619D01*
X151971714Y-51958714D02*
X152638380Y-51958714D01*
X152066952Y-51958714D02*
X152019333Y-51911095D01*
X151971714Y-51815857D01*
X151971714Y-51673000D01*
X152019333Y-51577761D01*
X152114571Y-51530142D01*
X152638380Y-51530142D01*
X89114333Y-75414142D02*
X89066714Y-75461761D01*
X88923857Y-75509380D01*
X88828619Y-75509380D01*
X88685761Y-75461761D01*
X88590523Y-75366523D01*
X88542904Y-75271285D01*
X88495285Y-75080809D01*
X88495285Y-74937952D01*
X88542904Y-74747476D01*
X88590523Y-74652238D01*
X88685761Y-74557000D01*
X88828619Y-74509380D01*
X88923857Y-74509380D01*
X89066714Y-74557000D01*
X89114333Y-74604619D01*
X89447666Y-74509380D02*
X90114333Y-74509380D01*
X89685761Y-75509380D01*
X94003952Y-76652380D02*
X93432523Y-76652380D01*
X93718238Y-76652380D02*
X93718238Y-75652380D01*
X93623000Y-75795238D01*
X93527761Y-75890476D01*
X93432523Y-75938095D01*
X94623000Y-75652380D02*
X94718238Y-75652380D01*
X94813476Y-75700000D01*
X94861095Y-75747619D01*
X94908714Y-75842857D01*
X94956333Y-76033333D01*
X94956333Y-76271428D01*
X94908714Y-76461904D01*
X94861095Y-76557142D01*
X94813476Y-76604761D01*
X94718238Y-76652380D01*
X94623000Y-76652380D01*
X94527761Y-76604761D01*
X94480142Y-76557142D01*
X94432523Y-76461904D01*
X94384904Y-76271428D01*
X94384904Y-76033333D01*
X94432523Y-75842857D01*
X94480142Y-75747619D01*
X94527761Y-75700000D01*
X94623000Y-75652380D01*
X95575380Y-75652380D02*
X95670619Y-75652380D01*
X95765857Y-75700000D01*
X95813476Y-75747619D01*
X95861095Y-75842857D01*
X95908714Y-76033333D01*
X95908714Y-76271428D01*
X95861095Y-76461904D01*
X95813476Y-76557142D01*
X95765857Y-76604761D01*
X95670619Y-76652380D01*
X95575380Y-76652380D01*
X95480142Y-76604761D01*
X95432523Y-76557142D01*
X95384904Y-76461904D01*
X95337285Y-76271428D01*
X95337285Y-76033333D01*
X95384904Y-75842857D01*
X95432523Y-75747619D01*
X95480142Y-75700000D01*
X95575380Y-75652380D01*
X96337285Y-75985714D02*
X96337285Y-76652380D01*
X96337285Y-76080952D02*
X96384904Y-76033333D01*
X96480142Y-75985714D01*
X96623000Y-75985714D01*
X96718238Y-76033333D01*
X96765857Y-76128571D01*
X96765857Y-76652380D01*
X139803142Y-71119666D02*
X139850761Y-71167285D01*
X139898380Y-71310142D01*
X139898380Y-71405380D01*
X139850761Y-71548238D01*
X139755523Y-71643476D01*
X139660285Y-71691095D01*
X139469809Y-71738714D01*
X139326952Y-71738714D01*
X139136476Y-71691095D01*
X139041238Y-71643476D01*
X138946000Y-71548238D01*
X138898380Y-71405380D01*
X138898380Y-71310142D01*
X138946000Y-71167285D01*
X138993619Y-71119666D01*
X138898380Y-70262523D02*
X138898380Y-70453000D01*
X138946000Y-70548238D01*
X138993619Y-70595857D01*
X139136476Y-70691095D01*
X139326952Y-70738714D01*
X139707904Y-70738714D01*
X139803142Y-70691095D01*
X139850761Y-70643476D01*
X139898380Y-70548238D01*
X139898380Y-70357761D01*
X139850761Y-70262523D01*
X139803142Y-70214904D01*
X139707904Y-70167285D01*
X139469809Y-70167285D01*
X139374571Y-70214904D01*
X139326952Y-70262523D01*
X139279333Y-70357761D01*
X139279333Y-70548238D01*
X139326952Y-70643476D01*
X139374571Y-70691095D01*
X139469809Y-70738714D01*
X137398380Y-72072047D02*
X137398380Y-72643476D01*
X137398380Y-72357761D02*
X136398380Y-72357761D01*
X136541238Y-72453000D01*
X136636476Y-72548238D01*
X136684095Y-72643476D01*
X136398380Y-71453000D02*
X136398380Y-71357761D01*
X136446000Y-71262523D01*
X136493619Y-71214904D01*
X136588857Y-71167285D01*
X136779333Y-71119666D01*
X137017428Y-71119666D01*
X137207904Y-71167285D01*
X137303142Y-71214904D01*
X137350761Y-71262523D01*
X137398380Y-71357761D01*
X137398380Y-71453000D01*
X137350761Y-71548238D01*
X137303142Y-71595857D01*
X137207904Y-71643476D01*
X137017428Y-71691095D01*
X136779333Y-71691095D01*
X136588857Y-71643476D01*
X136493619Y-71595857D01*
X136446000Y-71548238D01*
X136398380Y-71453000D01*
X136398380Y-70500619D02*
X136398380Y-70405380D01*
X136446000Y-70310142D01*
X136493619Y-70262523D01*
X136588857Y-70214904D01*
X136779333Y-70167285D01*
X137017428Y-70167285D01*
X137207904Y-70214904D01*
X137303142Y-70262523D01*
X137350761Y-70310142D01*
X137398380Y-70405380D01*
X137398380Y-70500619D01*
X137350761Y-70595857D01*
X137303142Y-70643476D01*
X137207904Y-70691095D01*
X137017428Y-70738714D01*
X136779333Y-70738714D01*
X136588857Y-70691095D01*
X136493619Y-70643476D01*
X136446000Y-70595857D01*
X136398380Y-70500619D01*
X136731714Y-69738714D02*
X137398380Y-69738714D01*
X136826952Y-69738714D02*
X136779333Y-69691095D01*
X136731714Y-69595857D01*
X136731714Y-69453000D01*
X136779333Y-69357761D01*
X136874571Y-69310142D01*
X137398380Y-69310142D01*
X139422142Y-89280666D02*
X139469761Y-89328285D01*
X139517380Y-89471142D01*
X139517380Y-89566380D01*
X139469761Y-89709238D01*
X139374523Y-89804476D01*
X139279285Y-89852095D01*
X139088809Y-89899714D01*
X138945952Y-89899714D01*
X138755476Y-89852095D01*
X138660238Y-89804476D01*
X138565000Y-89709238D01*
X138517380Y-89566380D01*
X138517380Y-89471142D01*
X138565000Y-89328285D01*
X138612619Y-89280666D01*
X138517380Y-88375904D02*
X138517380Y-88852095D01*
X138993571Y-88899714D01*
X138945952Y-88852095D01*
X138898333Y-88756857D01*
X138898333Y-88518761D01*
X138945952Y-88423523D01*
X138993571Y-88375904D01*
X139088809Y-88328285D01*
X139326904Y-88328285D01*
X139422142Y-88375904D01*
X139469761Y-88423523D01*
X139517380Y-88518761D01*
X139517380Y-88756857D01*
X139469761Y-88852095D01*
X139422142Y-88899714D01*
X137017380Y-90233047D02*
X137017380Y-90804476D01*
X137017380Y-90518761D02*
X136017380Y-90518761D01*
X136160238Y-90614000D01*
X136255476Y-90709238D01*
X136303095Y-90804476D01*
X136017380Y-89614000D02*
X136017380Y-89518761D01*
X136065000Y-89423523D01*
X136112619Y-89375904D01*
X136207857Y-89328285D01*
X136398333Y-89280666D01*
X136636428Y-89280666D01*
X136826904Y-89328285D01*
X136922142Y-89375904D01*
X136969761Y-89423523D01*
X137017380Y-89518761D01*
X137017380Y-89614000D01*
X136969761Y-89709238D01*
X136922142Y-89756857D01*
X136826904Y-89804476D01*
X136636428Y-89852095D01*
X136398333Y-89852095D01*
X136207857Y-89804476D01*
X136112619Y-89756857D01*
X136065000Y-89709238D01*
X136017380Y-89614000D01*
X136017380Y-88661619D02*
X136017380Y-88566380D01*
X136065000Y-88471142D01*
X136112619Y-88423523D01*
X136207857Y-88375904D01*
X136398333Y-88328285D01*
X136636428Y-88328285D01*
X136826904Y-88375904D01*
X136922142Y-88423523D01*
X136969761Y-88471142D01*
X137017380Y-88566380D01*
X137017380Y-88661619D01*
X136969761Y-88756857D01*
X136922142Y-88804476D01*
X136826904Y-88852095D01*
X136636428Y-88899714D01*
X136398333Y-88899714D01*
X136207857Y-88852095D01*
X136112619Y-88804476D01*
X136065000Y-88756857D01*
X136017380Y-88661619D01*
X136350714Y-87899714D02*
X137017380Y-87899714D01*
X136445952Y-87899714D02*
X136398333Y-87852095D01*
X136350714Y-87756857D01*
X136350714Y-87614000D01*
X136398333Y-87518761D01*
X136493571Y-87471142D01*
X137017380Y-87471142D01*
X95861142Y-70865666D02*
X95908761Y-70913285D01*
X95956380Y-71056142D01*
X95956380Y-71151380D01*
X95908761Y-71294238D01*
X95813523Y-71389476D01*
X95718285Y-71437095D01*
X95527809Y-71484714D01*
X95384952Y-71484714D01*
X95194476Y-71437095D01*
X95099238Y-71389476D01*
X95004000Y-71294238D01*
X94956380Y-71151380D01*
X94956380Y-71056142D01*
X95004000Y-70913285D01*
X95051619Y-70865666D01*
X94956380Y-70532333D02*
X94956380Y-69913285D01*
X95337333Y-70246619D01*
X95337333Y-70103761D01*
X95384952Y-70008523D01*
X95432571Y-69960904D01*
X95527809Y-69913285D01*
X95765904Y-69913285D01*
X95861142Y-69960904D01*
X95908761Y-70008523D01*
X95956380Y-70103761D01*
X95956380Y-70389476D01*
X95908761Y-70484714D01*
X95861142Y-70532333D01*
X93456380Y-71818047D02*
X93456380Y-72389476D01*
X93456380Y-72103761D02*
X92456380Y-72103761D01*
X92599238Y-72199000D01*
X92694476Y-72294238D01*
X92742095Y-72389476D01*
X92456380Y-71199000D02*
X92456380Y-71103761D01*
X92504000Y-71008523D01*
X92551619Y-70960904D01*
X92646857Y-70913285D01*
X92837333Y-70865666D01*
X93075428Y-70865666D01*
X93265904Y-70913285D01*
X93361142Y-70960904D01*
X93408761Y-71008523D01*
X93456380Y-71103761D01*
X93456380Y-71199000D01*
X93408761Y-71294238D01*
X93361142Y-71341857D01*
X93265904Y-71389476D01*
X93075428Y-71437095D01*
X92837333Y-71437095D01*
X92646857Y-71389476D01*
X92551619Y-71341857D01*
X92504000Y-71294238D01*
X92456380Y-71199000D01*
X92456380Y-70246619D02*
X92456380Y-70151380D01*
X92504000Y-70056142D01*
X92551619Y-70008523D01*
X92646857Y-69960904D01*
X92837333Y-69913285D01*
X93075428Y-69913285D01*
X93265904Y-69960904D01*
X93361142Y-70008523D01*
X93408761Y-70056142D01*
X93456380Y-70151380D01*
X93456380Y-70246619D01*
X93408761Y-70341857D01*
X93361142Y-70389476D01*
X93265904Y-70437095D01*
X93075428Y-70484714D01*
X92837333Y-70484714D01*
X92646857Y-70437095D01*
X92551619Y-70389476D01*
X92504000Y-70341857D01*
X92456380Y-70246619D01*
X92789714Y-69484714D02*
X93456380Y-69484714D01*
X92884952Y-69484714D02*
X92837333Y-69437095D01*
X92789714Y-69341857D01*
X92789714Y-69199000D01*
X92837333Y-69103761D01*
X92932571Y-69056142D01*
X93456380Y-69056142D01*
X95226142Y-61761666D02*
X95273761Y-61809285D01*
X95321380Y-61952142D01*
X95321380Y-62047380D01*
X95273761Y-62190238D01*
X95178523Y-62285476D01*
X95083285Y-62333095D01*
X94892809Y-62380714D01*
X94749952Y-62380714D01*
X94559476Y-62333095D01*
X94464238Y-62285476D01*
X94369000Y-62190238D01*
X94321380Y-62047380D01*
X94321380Y-61952142D01*
X94369000Y-61809285D01*
X94416619Y-61761666D01*
X94416619Y-61380714D02*
X94369000Y-61333095D01*
X94321380Y-61237857D01*
X94321380Y-60999761D01*
X94369000Y-60904523D01*
X94416619Y-60856904D01*
X94511857Y-60809285D01*
X94607095Y-60809285D01*
X94749952Y-60856904D01*
X95321380Y-61428333D01*
X95321380Y-60809285D01*
X97948380Y-63008047D02*
X97948380Y-63579476D01*
X97948380Y-63293761D02*
X96948380Y-63293761D01*
X97091238Y-63389000D01*
X97186476Y-63484238D01*
X97234095Y-63579476D01*
X96948380Y-62389000D02*
X96948380Y-62293761D01*
X96996000Y-62198523D01*
X97043619Y-62150904D01*
X97138857Y-62103285D01*
X97329333Y-62055666D01*
X97567428Y-62055666D01*
X97757904Y-62103285D01*
X97853142Y-62150904D01*
X97900761Y-62198523D01*
X97948380Y-62293761D01*
X97948380Y-62389000D01*
X97900761Y-62484238D01*
X97853142Y-62531857D01*
X97757904Y-62579476D01*
X97567428Y-62627095D01*
X97329333Y-62627095D01*
X97138857Y-62579476D01*
X97043619Y-62531857D01*
X96996000Y-62484238D01*
X96948380Y-62389000D01*
X96948380Y-61436619D02*
X96948380Y-61341380D01*
X96996000Y-61246142D01*
X97043619Y-61198523D01*
X97138857Y-61150904D01*
X97329333Y-61103285D01*
X97567428Y-61103285D01*
X97757904Y-61150904D01*
X97853142Y-61198523D01*
X97900761Y-61246142D01*
X97948380Y-61341380D01*
X97948380Y-61436619D01*
X97900761Y-61531857D01*
X97853142Y-61579476D01*
X97757904Y-61627095D01*
X97567428Y-61674714D01*
X97329333Y-61674714D01*
X97138857Y-61627095D01*
X97043619Y-61579476D01*
X96996000Y-61531857D01*
X96948380Y-61436619D01*
X97281714Y-60674714D02*
X97948380Y-60674714D01*
X97376952Y-60674714D02*
X97329333Y-60627095D01*
X97281714Y-60531857D01*
X97281714Y-60389000D01*
X97329333Y-60293761D01*
X97424571Y-60246142D01*
X97948380Y-60246142D01*
X166473142Y-71159666D02*
X166520761Y-71207285D01*
X166568380Y-71350142D01*
X166568380Y-71445380D01*
X166520761Y-71588238D01*
X166425523Y-71683476D01*
X166330285Y-71731095D01*
X166139809Y-71778714D01*
X165996952Y-71778714D01*
X165806476Y-71731095D01*
X165711238Y-71683476D01*
X165616000Y-71588238D01*
X165568380Y-71445380D01*
X165568380Y-71350142D01*
X165616000Y-71207285D01*
X165663619Y-71159666D01*
X166568380Y-70207285D02*
X166568380Y-70778714D01*
X166568380Y-70493000D02*
X165568380Y-70493000D01*
X165711238Y-70588238D01*
X165806476Y-70683476D01*
X165854095Y-70778714D01*
X164068380Y-72199047D02*
X164068380Y-72770476D01*
X164068380Y-72484761D02*
X163068380Y-72484761D01*
X163211238Y-72580000D01*
X163306476Y-72675238D01*
X163354095Y-72770476D01*
X163068380Y-71580000D02*
X163068380Y-71484761D01*
X163116000Y-71389523D01*
X163163619Y-71341904D01*
X163258857Y-71294285D01*
X163449333Y-71246666D01*
X163687428Y-71246666D01*
X163877904Y-71294285D01*
X163973142Y-71341904D01*
X164020761Y-71389523D01*
X164068380Y-71484761D01*
X164068380Y-71580000D01*
X164020761Y-71675238D01*
X163973142Y-71722857D01*
X163877904Y-71770476D01*
X163687428Y-71818095D01*
X163449333Y-71818095D01*
X163258857Y-71770476D01*
X163163619Y-71722857D01*
X163116000Y-71675238D01*
X163068380Y-71580000D01*
X163068380Y-70627619D02*
X163068380Y-70532380D01*
X163116000Y-70437142D01*
X163163619Y-70389523D01*
X163258857Y-70341904D01*
X163449333Y-70294285D01*
X163687428Y-70294285D01*
X163877904Y-70341904D01*
X163973142Y-70389523D01*
X164020761Y-70437142D01*
X164068380Y-70532380D01*
X164068380Y-70627619D01*
X164020761Y-70722857D01*
X163973142Y-70770476D01*
X163877904Y-70818095D01*
X163687428Y-70865714D01*
X163449333Y-70865714D01*
X163258857Y-70818095D01*
X163163619Y-70770476D01*
X163116000Y-70722857D01*
X163068380Y-70627619D01*
X163401714Y-69865714D02*
X164068380Y-69865714D01*
X163496952Y-69865714D02*
X163449333Y-69818095D01*
X163401714Y-69722857D01*
X163401714Y-69580000D01*
X163449333Y-69484761D01*
X163544571Y-69437142D01*
X164068380Y-69437142D01*
M02*
